<?xml version="1.0" encoding="utf-8"?>
<!-- Generator: Adobe Illustrator 16.0.4, SVG Export Plug-In . SVG Version: 6.00 Build 0)  -->
<!DOCTYPE svg PUBLIC "-//W3C//DTD SVG 1.1//EN" "http://www.w3.org/Graphics/SVG/1.1/DTD/svg11.dtd">
<svg version="1.1" id="Layer_1" xmlns="http://www.w3.org/2000/svg" xmlns:xlink="http://www.w3.org/1999/xlink" x="0px" y="0px"
	 width="648px" height="479px" viewBox="0 0 648 479" enable-background="new 0 0 648 479" xml:space="preserve">
<rect x="20" y="18" fill="#FFFFFF" stroke="#000000" stroke-width="8" stroke-miterlimit="10" width="610" height="439"/>
<g>
	<path d="M39.496,39.478c0-0.924,0.748-1.672,1.672-1.672c0.925,0,1.673,0.748,1.673,1.672v4.401c0.77-0.99,1.76-1.893,3.454-1.893
		c2.53,0,4.005,1.672,4.005,4.379v6.095c0,0.924-0.748,1.672-1.672,1.672c-0.925,0-1.673-0.748-1.673-1.672v-5.039
		c0-1.584-0.748-2.398-2.024-2.398c-1.275,0-2.09,0.814-2.09,2.398v5.039c0,0.924-0.748,1.672-1.673,1.672
		c-0.924,0-1.672-0.748-1.672-1.672V39.478z"/>
	<path d="M53.752,50.655v-5.589h-0.109c-0.792,0-1.431-0.638-1.431-1.43s0.639-1.431,1.431-1.431h0.109v-1.474
		c0-0.925,0.748-1.673,1.673-1.673c0.924,0,1.672,0.748,1.672,1.673v1.474h1.475c0.792,0,1.43,0.639,1.43,1.431
		s-0.638,1.43-1.43,1.43h-1.475v5.039c0,0.771,0.33,1.145,1.078,1.145c0.11,0,0.33-0.022,0.396-0.022
		c0.748,0,1.386,0.616,1.386,1.387c0,0.594-0.396,1.078-0.857,1.254c-0.616,0.242-1.188,0.33-1.915,0.33
		C55.139,54.198,53.752,53.384,53.752,50.655z"/>
	<path d="M62.332,43.746c0-0.924,0.748-1.672,1.672-1.672c0.925,0,1.673,0.748,1.673,1.672v0.133c0.77-0.99,1.782-1.893,3.477-1.893
		c1.54,0,2.706,0.682,3.322,1.87c1.034-1.21,2.267-1.87,3.873-1.87c2.486,0,3.982,1.496,3.982,4.335v6.139
		c0,0.924-0.748,1.672-1.673,1.672c-0.924,0-1.672-0.748-1.672-1.672v-5.039c0-1.584-0.704-2.398-1.958-2.398
		c-1.255,0-2.024,0.814-2.024,2.398v5.039c0,0.924-0.748,1.672-1.673,1.672c-0.924,0-1.672-0.748-1.672-1.672v-5.039
		c0-1.584-0.704-2.398-1.958-2.398c-1.255,0-2.024,0.814-2.024,2.398v5.039c0,0.924-0.748,1.672-1.673,1.672
		c-0.924,0-1.672-0.748-1.672-1.672V43.746z"/>
	<path d="M83.386,39.478c0-0.924,0.748-1.672,1.672-1.672c0.925,0,1.673,0.748,1.673,1.672V52.46c0,0.924-0.748,1.672-1.673,1.672
		c-0.924,0-1.672-0.748-1.672-1.672V39.478z"/>
	<path d="M98.983,52.746c0-0.33,0.065-1.145,0.065-1.519c0-1.562-0.616-2.134-1.782-2.223c-0.836-0.065-1.364-0.571-1.364-1.319
		c0-0.749,0.528-1.255,1.364-1.32c1.166-0.088,1.782-0.66,1.782-2.223c0-0.374-0.065-1.188-0.065-1.519
		c0-2.09,0.99-3.433,4.269-4.181c0.857-0.197,1.54,0.33,1.54,1.145c0,0.66-0.462,1.012-0.792,1.122
		c-1.673,0.594-1.958,1.21-1.958,2.398c0,0.44,0.065,1.166,0.065,1.628c0,1.606-0.814,2.465-2.288,2.949
		c1.474,0.483,2.288,1.342,2.288,2.948c0,0.462-0.065,1.188-0.065,1.628c0,1.188,0.285,1.805,1.958,2.398
		c0.33,0.11,0.792,0.462,0.792,1.122c0,0.814-0.683,1.342-1.54,1.145C99.974,56.179,98.983,54.836,98.983,52.746z"/>
	<path d="M114.427,45.066h-0.132c-0.771,0-1.387-0.594-1.387-1.364c0-0.77,0.616-1.386,1.387-1.386h0.132v-0.748
		c0-1.299,0.33-2.244,0.946-2.86s1.518-0.925,2.706-0.925c0.528,0,0.99,0.022,1.364,0.089c0.572,0.088,1.145,0.594,1.145,1.342
		s-0.616,1.386-1.364,1.386h-0.286c-0.771,0-1.21,0.396-1.21,1.276v0.462h1.452c0.77,0,1.386,0.595,1.386,1.364
		c0,0.771-0.616,1.364-1.386,1.364h-1.408v7.394c0,0.924-0.748,1.672-1.673,1.672c-0.924,0-1.672-0.748-1.672-1.672V45.066z"/>
	<path d="M121.466,48.169v-0.044c0-3.389,2.729-6.139,6.403-6.139c3.652,0,6.358,2.706,6.358,6.095v0.044
		c0,3.389-2.728,6.139-6.402,6.139C124.173,54.264,121.466,51.558,121.466,48.169z M130.928,48.169v-0.044
		c0-1.738-1.255-3.256-3.103-3.256c-1.914,0-3.059,1.474-3.059,3.212v0.044c0,1.738,1.254,3.257,3.103,3.257
		C129.783,51.382,130.928,49.907,130.928,48.169z"/>
	<path d="M136.646,43.746c0-0.924,0.748-1.672,1.673-1.672c0.924,0,1.672,0.748,1.672,1.672v0.133c0.77-0.99,1.76-1.893,3.454-1.893
		c2.53,0,4.005,1.672,4.005,4.379v6.095c0,0.924-0.748,1.672-1.672,1.672c-0.925,0-1.673-0.748-1.673-1.672v-5.039
		c0-1.584-0.748-2.398-2.024-2.398c-1.275,0-2.09,0.814-2.09,2.398v5.039c0,0.924-0.748,1.672-1.672,1.672
		c-0.925,0-1.673-0.748-1.673-1.672V43.746z"/>
	<path d="M150.901,50.655v-5.589h-0.109c-0.792,0-1.431-0.638-1.431-1.43s0.639-1.431,1.431-1.431h0.109v-1.474
		c0-0.925,0.748-1.673,1.673-1.673c0.924,0,1.672,0.748,1.672,1.673v1.474h1.475c0.792,0,1.43,0.639,1.43,1.431
		s-0.638,1.43-1.43,1.43h-1.475v5.039c0,0.771,0.33,1.145,1.078,1.145c0.11,0,0.33-0.022,0.396-0.022
		c0.748,0,1.386,0.616,1.386,1.387c0,0.594-0.396,1.078-0.858,1.254c-0.615,0.242-1.188,0.33-1.914,0.33
		C152.288,54.198,150.901,53.384,150.901,50.655z"/>
	<path d="M158.953,47.179c0-0.88,0.727-1.605,1.606-1.605h3.829c0.88,0,1.605,0.726,1.605,1.605c0,0.881-0.726,1.606-1.605,1.606
		h-3.829C159.68,48.785,158.953,48.06,158.953,47.179z"/>
	<path d="M168.149,52.878c-0.353-0.22-0.639-0.616-0.639-1.145c0-0.748,0.572-1.32,1.32-1.32c0.242,0,0.484,0.066,0.66,0.177
		c1.122,0.704,2.244,1.056,3.19,1.056c0.969,0,1.408-0.352,1.408-0.88v-0.044c0-0.727-1.145-0.969-2.442-1.364
		c-1.65-0.484-3.521-1.254-3.521-3.543v-0.044c0-2.398,1.937-3.74,4.312-3.74c1.232,0,2.509,0.33,3.652,0.902
		c0.484,0.242,0.793,0.682,0.793,1.254c0,0.748-0.595,1.32-1.343,1.32c-0.242,0-0.396-0.044-0.616-0.154
		c-0.946-0.462-1.848-0.748-2.552-0.748c-0.814,0-1.232,0.353-1.232,0.814v0.044c0,0.66,1.122,0.968,2.398,1.408
		c1.65,0.55,3.564,1.342,3.564,3.498v0.044c0,2.619-1.958,3.807-4.511,3.807C171.142,54.22,169.579,53.802,168.149,52.878z"/>
	<path d="M179.457,39.39c0-0.968,0.814-1.562,1.87-1.562c1.057,0,1.87,0.594,1.87,1.562v0.044c0,0.969-0.813,1.585-1.87,1.585
		c-1.056,0-1.87-0.616-1.87-1.585V39.39z M179.655,43.746c0-0.924,0.748-1.672,1.672-1.672c0.925,0,1.673,0.748,1.673,1.672v8.714
		c0,0.924-0.748,1.672-1.673,1.672c-0.924,0-1.672-0.748-1.672-1.672V43.746z"/>
	<path d="M185.616,52.658v-0.066c0-0.638,0.221-1.057,0.748-1.628l5.479-6.051h-4.665c-0.748,0-1.364-0.595-1.364-1.343
		s0.616-1.364,1.364-1.364h7.327c0.946,0,1.628,0.551,1.628,1.343v0.065c0,0.639-0.22,1.057-0.748,1.629l-5.501,6.051h4.885
		c0.748,0,1.364,0.616,1.364,1.364S195.518,54,194.77,54h-7.524C186.299,54,185.616,53.45,185.616,52.658z"/>
	<path d="M203.786,54.264c-3.542,0-6.161-2.486-6.161-6.095v-0.044c0-3.366,2.398-6.139,5.831-6.139
		c3.938,0,5.677,3.234,5.677,5.677c0,0.968-0.682,1.606-1.562,1.606h-6.622c0.329,1.518,1.386,2.311,2.882,2.311
		c0.924,0,1.694-0.286,2.377-0.793c0.241-0.176,0.462-0.264,0.813-0.264c0.748,0,1.298,0.572,1.298,1.32
		c0,0.44-0.197,0.771-0.439,0.99C206.845,53.714,205.502,54.264,203.786,54.264z M205.942,47.179
		c-0.198-1.496-1.078-2.508-2.486-2.508c-1.386,0-2.288,0.99-2.553,2.508H205.942z"/>
	<path d="M213.444,42.074c1.1,0,1.914,0.814,1.914,1.87v0.044c0,1.057-0.814,1.87-1.914,1.87c-1.101,0-1.915-0.813-1.915-1.87
		v-0.044C211.529,42.889,212.344,42.074,213.444,42.074z M213.444,50.348c1.1,0,1.914,0.813,1.914,1.87v0.044
		c0,1.057-0.814,1.87-1.914,1.87c-1.101,0-1.915-0.813-1.915-1.87v-0.044C211.529,51.161,212.344,50.348,213.444,50.348z"/>
	<path d="M227.216,41.811l-1.188,0.308c-0.176,0.044-0.418,0.088-0.594,0.088c-0.793,0-1.475-0.66-1.475-1.452
		c0-0.682,0.44-1.254,1.122-1.452l2.179-0.638c0.638-0.177,1.122-0.286,1.584-0.286h0.044c0.924,0,1.672,0.748,1.672,1.672v12.41
		c0,0.924-0.748,1.672-1.672,1.672s-1.672-0.748-1.672-1.672V41.811z"/>
	<path d="M235.598,52.614c-1.122-1.123-1.826-2.772-1.826-5.831v-0.044c0-4.753,2.156-8.405,6.755-8.405
		c1.54,0,2.794,0.374,3.719,0.924c0.527,0.309,0.88,0.771,0.88,1.452c0,0.88-0.727,1.562-1.606,1.562
		c-0.286,0-0.594-0.11-0.836-0.242c-0.704-0.396-1.343-0.616-2.267-0.616c-1.914,0-2.882,1.54-3.103,3.564
		c0.771-0.506,1.673-0.99,3.19-0.99c3.059,0,5.413,1.694,5.413,4.907v0.044c0,3.146-2.53,5.324-5.875,5.324
		C238.04,54.264,236.676,53.692,235.598,52.614z M242.551,49.094v-0.045c0-1.298-1.013-2.244-2.685-2.244
		c-1.673,0-2.641,0.925-2.641,2.223v0.044c0,1.298,1.013,2.288,2.685,2.288S242.551,50.413,242.551,49.094z"/>
	<path d="M248.643,43.746c0-0.924,0.748-1.672,1.672-1.672c0.925,0,1.673,0.748,1.673,1.672V43.9c0.814-1.1,1.937-1.914,3.675-1.914
		c2.75,0,5.368,2.156,5.368,6.095v0.044c0,3.938-2.574,6.095-5.368,6.095c-1.782,0-2.883-0.813-3.675-1.76v3.521
		c0,0.924-0.748,1.672-1.673,1.672c-0.924,0-1.672-0.748-1.672-1.672V43.746z M257.686,48.125v-0.044
		c0-1.958-1.319-3.257-2.882-3.257s-2.86,1.299-2.86,3.257v0.044c0,1.958,1.298,3.257,2.86,3.257S257.686,50.105,257.686,48.125z"/>
	<path d="M263.005,51.58l3.015-3.564l-2.75-3.169c-0.374-0.44-0.551-0.836-0.551-1.276c0-0.946,0.705-1.54,1.541-1.54
		c0.66,0,1.122,0.308,1.562,0.858L268,45.793l2.223-2.904c0.396-0.484,0.857-0.858,1.452-0.858c0.88,0,1.562,0.616,1.562,1.452
		c0,0.462-0.197,0.814-0.462,1.145l-2.86,3.344l2.948,3.389c0.374,0.44,0.551,0.836,0.551,1.276c0,0.946-0.704,1.54-1.54,1.54
		c-0.66,0-1.123-0.308-1.562-0.857l-2.377-3.125l-2.376,3.125c-0.396,0.483-0.858,0.857-1.452,0.857
		c-0.88,0-1.562-0.616-1.562-1.452C262.543,52.262,262.719,51.91,263.005,51.58z"/>
	<path d="M275.479,56.09c1.122-0.264,1.738-1.033,1.694-2.09c-0.771-0.198-1.541-0.858-1.541-1.805v-0.044
		c0-1.034,0.727-1.804,1.826-1.804c1.232,0,1.959,0.946,1.959,2.464v0.088c0,1.606-0.484,2.795-1.299,3.609
		c-0.66,0.659-1.649,1.056-2.464,1.056c-0.594,0-0.836-0.352-0.836-0.748S275.105,56.179,275.479,56.09z M277.548,42.074
		c1.1,0,1.914,0.814,1.914,1.87v0.044c0,1.057-0.814,1.87-1.914,1.87c-1.101,0-1.915-0.813-1.915-1.87v-0.044
		C275.633,42.889,276.447,42.074,277.548,42.074z"/>
	<path d="M294.18,42.624c0,0.33-0.066,1.145-0.066,1.519c0,1.562,0.616,2.135,1.782,2.223c0.836,0.065,1.364,0.571,1.364,1.32
		c0,0.748-0.528,1.254-1.364,1.319c-1.166,0.089-1.782,0.66-1.782,2.223c0,0.374,0.066,1.188,0.066,1.519
		c0,2.09-0.99,3.433-4.269,4.181c-0.858,0.197-1.541-0.33-1.541-1.145c0-0.66,0.463-1.012,0.792-1.122
		c1.673-0.594,1.959-1.21,1.959-2.398c0-0.44-0.066-1.166-0.066-1.628c0-1.606,0.814-2.465,2.288-2.948
		c-1.474-0.484-2.288-1.343-2.288-2.949c0-0.462,0.066-1.188,0.066-1.628c0-1.188-0.286-1.805-1.959-2.398
		c-0.329-0.11-0.792-0.462-0.792-1.122c0-0.814,0.683-1.342,1.541-1.145C293.189,39.191,294.18,40.534,294.18,42.624z"/>
</g>
<rect x="36" y="75.25" fill="#4E70B6" width="369" height="168.5"/>
<rect x="417" y="75.25" fill="#4E70B6" width="190" height="226.75"/>
<rect x="36" y="398" fill="#4E70B6" width="575" height="42"/>
<g>
	<path fill="#FFFFFF" d="M57.146,105.348c1.101,0,1.914,0.813,1.914,1.87v0.044c0,1.057-0.813,1.87-1.914,1.87
		s-1.914-0.813-1.914-1.87v-0.044C55.232,106.161,56.046,105.348,57.146,105.348z"/>
	<path fill="#FFFFFF" d="M61.084,105.611v-0.044c0-2.574,1.958-3.763,4.753-3.763c1.188,0,2.046,0.198,2.882,0.484v-0.198
		c0-1.386-0.857-2.156-2.53-2.156c-0.924,0-1.672,0.132-2.31,0.33c-0.198,0.066-0.33,0.088-0.484,0.088
		c-0.771,0-1.387-0.594-1.387-1.364c0-0.594,0.374-1.1,0.902-1.298c1.057-0.396,2.2-0.616,3.763-0.616
		c1.826,0,3.146,0.484,3.982,1.32c0.88,0.88,1.276,2.179,1.276,3.763v5.368c0,0.902-0.727,1.606-1.628,1.606
		c-0.969,0-1.606-0.682-1.606-1.386v-0.022c-0.814,0.902-1.937,1.496-3.564,1.496C62.91,109.22,61.084,107.943,61.084,105.611z
		 M68.764,104.842v-0.595c-0.572-0.264-1.32-0.439-2.135-0.439c-1.431,0-2.311,0.571-2.311,1.628v0.044
		c0,0.902,0.748,1.431,1.826,1.431C67.707,106.91,68.764,106.052,68.764,104.842z"/>
	<path fill="#FFFFFF" d="M74.812,98.746c0-0.924,0.748-1.672,1.673-1.672c0.924,0,1.672,0.748,1.672,1.672v0.528
		c0.484-1.144,1.276-2.2,2.267-2.2c1.034,0,1.628,0.683,1.628,1.628c0,0.881-0.572,1.408-1.254,1.562
		c-1.694,0.396-2.641,1.694-2.641,4.07v3.125c0,0.924-0.748,1.672-1.672,1.672c-0.925,0-1.673-0.748-1.673-1.672V98.746z"/>
	<path fill="#FFFFFF" d="M84.558,105.655v-5.589h-0.109c-0.792,0-1.431-0.638-1.431-1.43s0.639-1.431,1.431-1.431h0.109v-1.474
		c0-0.925,0.748-1.673,1.673-1.673c0.924,0,1.672,0.748,1.672,1.673v1.474h1.475c0.792,0,1.43,0.639,1.43,1.431
		s-0.638,1.43-1.43,1.43h-1.475v5.039c0,0.771,0.33,1.145,1.078,1.145c0.11,0,0.33-0.022,0.396-0.022
		c0.748,0,1.386,0.616,1.386,1.387c0,0.594-0.396,1.078-0.858,1.254c-0.615,0.242-1.188,0.33-1.914,0.33
		C85.944,109.198,84.558,108.384,84.558,105.655z"/>
	<path fill="#FFFFFF" d="M93.094,94.39c0-0.968,0.814-1.562,1.87-1.562c1.057,0,1.87,0.594,1.87,1.562v0.044
		c0,0.969-0.813,1.585-1.87,1.585c-1.056,0-1.87-0.616-1.87-1.585V94.39z M93.292,98.746c0-0.924,0.748-1.672,1.672-1.672
		c0.925,0,1.673,0.748,1.673,1.672v8.714c0,0.924-0.748,1.672-1.673,1.672c-0.924,0-1.672-0.748-1.672-1.672V98.746z"/>
	<path fill="#FFFFFF" d="M99.209,103.169v-0.044c0-3.366,2.574-6.139,6.184-6.139c1.782,0,3.036,0.484,4.026,1.32
		c0.22,0.176,0.528,0.572,0.528,1.144c0,0.837-0.683,1.497-1.519,1.497c-0.44,0-0.771-0.177-0.968-0.33
		c-0.595-0.463-1.211-0.748-2.091-0.748c-1.672,0-2.86,1.474-2.86,3.212v0.044c0,1.805,1.166,3.257,2.992,3.257
		c0.881,0,1.562-0.309,2.2-0.814c0.177-0.132,0.507-0.308,0.902-0.308c0.792,0,1.408,0.638,1.408,1.43
		c0,0.44-0.198,0.792-0.484,1.057c-0.989,0.902-2.244,1.518-4.18,1.518C101.806,109.264,99.209,106.535,99.209,103.169z"/>
	<path fill="#FFFFFF" d="M112.498,94.478c0-0.924,0.748-1.672,1.672-1.672c0.925,0,1.673,0.748,1.673,1.672v12.982
		c0,0.924-0.748,1.672-1.673,1.672c-0.924,0-1.672-0.748-1.672-1.672V94.478z"/>
	<path fill="#FFFFFF" d="M124.576,109.264c-3.542,0-6.161-2.486-6.161-6.095v-0.044c0-3.366,2.398-6.139,5.831-6.139
		c3.938,0,5.677,3.234,5.677,5.677c0,0.968-0.682,1.606-1.562,1.606h-6.622c0.33,1.518,1.386,2.311,2.882,2.311
		c0.924,0,1.694-0.286,2.376-0.793c0.242-0.176,0.463-0.264,0.814-0.264c0.748,0,1.299,0.572,1.299,1.32
		c0,0.44-0.198,0.771-0.44,0.99C127.635,108.714,126.293,109.264,124.576,109.264z M126.732,102.179
		c-0.198-1.496-1.078-2.508-2.486-2.508c-1.386,0-2.288,0.99-2.553,2.508H126.732z"/>
	<path fill="#FFFFFF" d="M141.581,107.746c0-0.33,0.065-1.145,0.065-1.519c0-1.562-0.616-2.134-1.782-2.223
		c-0.836-0.065-1.364-0.571-1.364-1.319c0-0.749,0.528-1.255,1.364-1.32c1.166-0.088,1.782-0.66,1.782-2.223
		c0-0.374-0.065-1.188-0.065-1.519c0-2.09,0.99-3.433,4.269-4.181c0.857-0.197,1.54,0.33,1.54,1.145c0,0.66-0.462,1.012-0.792,1.122
		c-1.673,0.594-1.958,1.21-1.958,2.398c0,0.44,0.065,1.166,0.065,1.628c0,1.606-0.814,2.465-2.288,2.949
		c1.474,0.483,2.288,1.342,2.288,2.948c0,0.462-0.065,1.188-0.065,1.628c0,1.188,0.285,1.805,1.958,2.398
		c0.33,0.11,0.792,0.462,0.792,1.122c0,0.814-0.683,1.342-1.54,1.145C142.571,111.179,141.581,109.836,141.581,107.746z"/>
	<path fill="#FFFFFF" d="M157.024,100.066h-0.132c-0.771,0-1.387-0.594-1.387-1.364c0-0.77,0.616-1.386,1.387-1.386h0.132v-0.748
		c0-1.299,0.33-2.244,0.946-2.86s1.518-0.925,2.706-0.925c0.528,0,0.99,0.022,1.364,0.089c0.572,0.088,1.145,0.594,1.145,1.342
		s-0.616,1.386-1.364,1.386h-0.286c-0.771,0-1.21,0.396-1.21,1.276v0.462h1.452c0.77,0,1.386,0.595,1.386,1.364
		c0,0.771-0.616,1.364-1.386,1.364h-1.408v7.394c0,0.924-0.748,1.672-1.673,1.672c-0.924,0-1.672-0.748-1.672-1.672V100.066z"/>
	<path fill="#FFFFFF" d="M164.063,103.169v-0.044c0-3.389,2.729-6.139,6.403-6.139c3.652,0,6.358,2.706,6.358,6.095v0.044
		c0,3.389-2.728,6.139-6.402,6.139C166.771,109.264,164.063,106.558,164.063,103.169z M173.525,103.169v-0.044
		c0-1.738-1.255-3.256-3.103-3.256c-1.914,0-3.059,1.474-3.059,3.212v0.044c0,1.738,1.254,3.257,3.103,3.257
		C172.381,106.382,173.525,104.907,173.525,103.169z"/>
	<path fill="#FFFFFF" d="M179.243,98.746c0-0.924,0.748-1.672,1.673-1.672c0.924,0,1.672,0.748,1.672,1.672v0.133
		c0.77-0.99,1.76-1.893,3.454-1.893c2.53,0,4.005,1.672,4.005,4.379v6.095c0,0.924-0.748,1.672-1.672,1.672
		c-0.925,0-1.673-0.748-1.673-1.672v-5.039c0-1.584-0.748-2.398-2.024-2.398c-1.275,0-2.09,0.814-2.09,2.398v5.039
		c0,0.924-0.748,1.672-1.672,1.672c-0.925,0-1.673-0.748-1.673-1.672V98.746z"/>
	<path fill="#FFFFFF" d="M193.499,105.655v-5.589h-0.109c-0.792,0-1.431-0.638-1.431-1.43s0.639-1.431,1.431-1.431h0.109v-1.474
		c0-0.925,0.748-1.673,1.673-1.673c0.924,0,1.672,0.748,1.672,1.673v1.474h1.475c0.792,0,1.43,0.639,1.43,1.431
		s-0.638,1.43-1.43,1.43h-1.475v5.039c0,0.771,0.33,1.145,1.078,1.145c0.11,0,0.33-0.022,0.396-0.022
		c0.748,0,1.386,0.616,1.386,1.387c0,0.594-0.396,1.078-0.858,1.254c-0.615,0.242-1.188,0.33-1.914,0.33
		C194.886,109.198,193.499,108.384,193.499,105.655z"/>
	<path fill="#FFFFFF" d="M201.551,102.179c0-0.88,0.727-1.605,1.606-1.605h3.829c0.88,0,1.605,0.726,1.605,1.605
		c0,0.881-0.726,1.606-1.605,1.606h-3.829C202.277,103.785,201.551,103.06,201.551,102.179z"/>
	<path fill="#FFFFFF" d="M210.747,107.878c-0.353-0.22-0.639-0.616-0.639-1.145c0-0.748,0.572-1.32,1.32-1.32
		c0.242,0,0.484,0.066,0.66,0.177c1.122,0.704,2.244,1.056,3.19,1.056c0.969,0,1.408-0.352,1.408-0.88v-0.044
		c0-0.727-1.145-0.969-2.442-1.364c-1.65-0.484-3.521-1.254-3.521-3.543v-0.044c0-2.398,1.937-3.74,4.312-3.74
		c1.232,0,2.509,0.33,3.652,0.902c0.484,0.242,0.793,0.682,0.793,1.254c0,0.748-0.595,1.32-1.343,1.32
		c-0.242,0-0.396-0.044-0.616-0.154c-0.946-0.462-1.848-0.748-2.552-0.748c-0.814,0-1.232,0.353-1.232,0.814v0.044
		c0,0.66,1.122,0.968,2.398,1.408c1.65,0.55,3.564,1.342,3.564,3.498v0.044c0,2.619-1.958,3.807-4.511,3.807
		C213.739,109.22,212.177,108.802,210.747,107.878z"/>
	<path fill="#FFFFFF" d="M222.055,94.39c0-0.968,0.814-1.562,1.87-1.562c1.057,0,1.87,0.594,1.87,1.562v0.044
		c0,0.969-0.813,1.585-1.87,1.585c-1.056,0-1.87-0.616-1.87-1.585V94.39z M222.253,98.746c0-0.924,0.748-1.672,1.672-1.672
		c0.925,0,1.673,0.748,1.673,1.672v8.714c0,0.924-0.748,1.672-1.673,1.672c-0.924,0-1.672-0.748-1.672-1.672V98.746z"/>
	<path fill="#FFFFFF" d="M228.214,107.658v-0.066c0-0.638,0.221-1.057,0.748-1.628l5.479-6.051h-4.665
		c-0.748,0-1.364-0.595-1.364-1.343s0.616-1.364,1.364-1.364h7.327c0.946,0,1.628,0.551,1.628,1.343v0.065
		c0,0.639-0.22,1.057-0.748,1.629l-5.501,6.051h4.885c0.748,0,1.364,0.616,1.364,1.364S238.115,109,237.367,109h-7.524
		C228.896,109,228.214,108.45,228.214,107.658z"/>
	<path fill="#FFFFFF" d="M246.384,109.264c-3.542,0-6.161-2.486-6.161-6.095v-0.044c0-3.366,2.398-6.139,5.831-6.139
		c3.938,0,5.677,3.234,5.677,5.677c0,0.968-0.682,1.606-1.562,1.606h-6.622c0.329,1.518,1.386,2.311,2.882,2.311
		c0.924,0,1.694-0.286,2.377-0.793c0.241-0.176,0.462-0.264,0.813-0.264c0.748,0,1.298,0.572,1.298,1.32
		c0,0.44-0.197,0.771-0.439,0.99C249.442,108.714,248.1,109.264,246.384,109.264z M248.54,102.179
		c-0.198-1.496-1.078-2.508-2.486-2.508c-1.386,0-2.288,0.99-2.553,2.508H248.54z"/>
	<path fill="#FFFFFF" d="M256.042,97.074c1.1,0,1.914,0.814,1.914,1.87v0.044c0,1.057-0.814,1.87-1.914,1.87
		c-1.101,0-1.915-0.813-1.915-1.87v-0.044C254.127,97.889,254.941,97.074,256.042,97.074z M256.042,105.348
		c1.1,0,1.914,0.813,1.914,1.87v0.044c0,1.057-0.814,1.87-1.914,1.87c-1.101,0-1.915-0.813-1.915-1.87v-0.044
		C254.127,106.161,254.941,105.348,256.042,105.348z"/>
	<path fill="#FFFFFF" d="M269.813,96.811l-1.188,0.308c-0.176,0.044-0.418,0.088-0.594,0.088c-0.793,0-1.475-0.66-1.475-1.452
		c0-0.682,0.44-1.254,1.122-1.452l2.179-0.638c0.638-0.177,1.122-0.286,1.584-0.286h0.044c0.924,0,1.672,0.748,1.672,1.672v12.41
		c0,0.924-0.748,1.672-1.672,1.672s-1.672-0.748-1.672-1.672V96.811z"/>
	<path fill="#FFFFFF" d="M278.327,105.348c1.101,0,1.914,0.813,1.914,1.87v0.044c0,1.057-0.813,1.87-1.914,1.87
		s-1.914-0.813-1.914-1.87v-0.044C276.413,106.161,277.227,105.348,278.327,105.348z"/>
	<path fill="#FFFFFF" d="M283.299,105.699l4.379-3.586c1.914-1.562,2.662-2.421,2.662-3.697c0-1.298-0.858-2.002-2.068-2.002
		c-0.968,0-1.65,0.418-2.508,1.343c-0.221,0.241-0.616,0.483-1.145,0.483c-0.858,0-1.54-0.682-1.54-1.54
		c0-0.374,0.153-0.771,0.396-1.056c1.232-1.431,2.685-2.267,5.017-2.267c3.19,0,5.304,1.87,5.304,4.753v0.044
		c0,2.574-1.32,3.851-4.049,5.963l-2.509,1.936h5.369c0.813,0,1.474,0.66,1.474,1.475S293.42,109,292.606,109h-8.361
		c-1.057,0-1.826-0.594-1.826-1.606C282.419,106.733,282.727,106.161,283.299,105.699z"/>
	<path fill="#FFFFFF" d="M296.674,98.746c0-0.924,0.748-1.672,1.672-1.672c0.925,0,1.673,0.748,1.673,1.672v0.528
		c0.484-1.144,1.276-2.2,2.267-2.2c1.034,0,1.628,0.683,1.628,1.628c0,0.881-0.572,1.408-1.254,1.562
		c-1.694,0.396-2.641,1.694-2.641,4.07v3.125c0,0.924-0.748,1.672-1.673,1.672c-0.924,0-1.672-0.748-1.672-1.672V98.746z"/>
	<path fill="#FFFFFF" d="M311.126,109.264c-3.542,0-6.161-2.486-6.161-6.095v-0.044c0-3.366,2.398-6.139,5.831-6.139
		c3.938,0,5.677,3.234,5.677,5.677c0,0.968-0.682,1.606-1.562,1.606h-6.622c0.329,1.518,1.386,2.311,2.882,2.311
		c0.924,0,1.694-0.286,2.377-0.793c0.241-0.176,0.462-0.264,0.813-0.264c0.748,0,1.298,0.572,1.298,1.32
		c0,0.44-0.197,0.771-0.439,0.99C314.185,108.714,312.842,109.264,311.126,109.264z M313.282,102.179
		c-0.198-1.496-1.078-2.508-2.486-2.508c-1.386,0-2.288,0.99-2.553,2.508H313.282z"/>
	<path fill="#FFFFFF" d="M319.022,98.746c0-0.924,0.748-1.672,1.673-1.672c0.924,0,1.672,0.748,1.672,1.672v0.133
		c0.77-0.99,1.782-1.893,3.477-1.893c1.54,0,2.706,0.682,3.322,1.87c1.034-1.21,2.267-1.87,3.873-1.87
		c2.486,0,3.982,1.496,3.982,4.335v6.139c0,0.924-0.748,1.672-1.673,1.672c-0.924,0-1.672-0.748-1.672-1.672v-5.039
		c0-1.584-0.704-2.398-1.958-2.398c-1.255,0-2.024,0.814-2.024,2.398v5.039c0,0.924-0.748,1.672-1.673,1.672
		c-0.924,0-1.672-0.748-1.672-1.672v-5.039c0-1.584-0.704-2.398-1.958-2.398c-1.255,0-2.024,0.814-2.024,2.398v5.039
		c0,0.924-0.748,1.672-1.672,1.672c-0.925,0-1.673-0.748-1.673-1.672V98.746z"/>
	<path fill="#FFFFFF" d="M351.804,97.624c0,0.33-0.066,1.145-0.066,1.519c0,1.562,0.616,2.135,1.782,2.223
		c0.836,0.065,1.364,0.571,1.364,1.32c0,0.748-0.528,1.254-1.364,1.319c-1.166,0.089-1.782,0.66-1.782,2.223
		c0,0.374,0.066,1.188,0.066,1.519c0,2.09-0.99,3.433-4.269,4.181c-0.858,0.197-1.541-0.33-1.541-1.145
		c0-0.66,0.463-1.012,0.793-1.122c1.672-0.594,1.958-1.21,1.958-2.398c0-0.44-0.066-1.166-0.066-1.628
		c0-1.606,0.814-2.465,2.288-2.948c-1.474-0.484-2.288-1.343-2.288-2.949c0-0.462,0.066-1.188,0.066-1.628
		c0-1.188-0.286-1.805-1.958-2.398c-0.33-0.11-0.793-0.462-0.793-1.122c0-0.814,0.683-1.342,1.541-1.145
		C350.813,94.191,351.804,95.534,351.804,97.624z"/>
</g>
<g>
	<path fill="#FFFFFF" d="M435.431,101.179c0.85,0,1.479,0.629,1.479,1.444v0.034c0,0.815-0.629,1.444-1.479,1.444
		s-1.479-0.629-1.479-1.444v-0.034C433.952,101.808,434.581,101.179,435.431,101.179z"/>
	<path fill="#FFFFFF" d="M439.51,103.014l-2.227-6.425c-0.052-0.153-0.119-0.408-0.119-0.629c0-0.595,0.476-1.173,1.24-1.173
		c0.646,0,1.071,0.408,1.258,1.003l1.395,4.623l1.428-4.606c0.187-0.611,0.663-1.037,1.326-1.037h0.152
		c0.663,0,1.139,0.426,1.326,1.037l1.445,4.624l1.428-4.658c0.17-0.544,0.561-0.985,1.24-0.985c0.714,0,1.207,0.544,1.207,1.189
		c0,0.17-0.051,0.408-0.085,0.527l-2.295,6.51c-0.271,0.8-0.799,1.156-1.428,1.156h-0.085c-0.629,0-1.156-0.356-1.394-1.104
		l-1.445-4.59l-1.462,4.59c-0.237,0.748-0.765,1.104-1.394,1.104h-0.085C440.309,104.17,439.781,103.813,439.51,103.014z"/>
	<path fill="#FFFFFF" d="M452.26,92.781c0-0.714,0.577-1.292,1.291-1.292c0.715,0,1.292,0.578,1.292,1.292v3.399
		c0.596-0.765,1.36-1.462,2.669-1.462c1.955,0,3.094,1.292,3.094,3.383v4.709c0,0.714-0.578,1.291-1.292,1.291
		s-1.292-0.577-1.292-1.291v-3.893c0-1.225-0.577-1.854-1.563-1.854s-1.615,0.629-1.615,1.854v3.893
		c0,0.714-0.577,1.291-1.292,1.291c-0.714,0-1.291-0.577-1.291-1.291V92.781z"/>
	<path fill="#FFFFFF" d="M462.307,101.382v-0.033c0-1.989,1.513-2.907,3.671-2.907c0.918,0,1.581,0.153,2.228,0.374v-0.153
		c0-1.07-0.663-1.665-1.955-1.665c-0.714,0-1.292,0.102-1.785,0.255c-0.152,0.051-0.255,0.067-0.374,0.067
		c-0.595,0-1.07-0.459-1.07-1.054c0-0.459,0.289-0.85,0.696-1.003c0.816-0.306,1.7-0.476,2.907-0.476
		c1.411,0,2.431,0.374,3.076,1.02c0.681,0.68,0.986,1.683,0.986,2.907v4.147c0,0.696-0.562,1.24-1.258,1.24
		c-0.748,0-1.241-0.526-1.241-1.07v-0.018c-0.629,0.697-1.496,1.156-2.754,1.156C463.717,104.17,462.307,103.184,462.307,101.382z
		 M468.238,100.787v-0.459c-0.441-0.204-1.02-0.34-1.648-0.34c-1.104,0-1.785,0.442-1.785,1.258v0.034
		c0,0.697,0.578,1.104,1.411,1.104C467.423,102.385,468.238,101.723,468.238,100.787z"/>
	<path fill="#FFFFFF" d="M473.252,101.416v-4.317h-0.085c-0.612,0-1.105-0.493-1.105-1.104c0-0.612,0.493-1.105,1.105-1.105h0.085
		V93.75c0-0.714,0.578-1.292,1.292-1.292s1.292,0.578,1.292,1.292v1.139h1.139c0.611,0,1.104,0.493,1.104,1.105
		c0,0.611-0.493,1.104-1.104,1.104h-1.139v3.893c0,0.595,0.255,0.884,0.832,0.884c0.085,0,0.256-0.017,0.307-0.017
		c0.578,0,1.07,0.476,1.07,1.07c0,0.459-0.306,0.833-0.662,0.97c-0.477,0.187-0.918,0.255-1.479,0.255
		C474.322,104.153,473.252,103.524,473.252,101.416z"/>
	<path fill="#FFFFFF" d="M483.942,104.204c-2.737,0-4.76-1.921-4.76-4.709v-0.033c0-2.602,1.853-4.743,4.505-4.743
		c3.042,0,4.386,2.499,4.386,4.386c0,0.748-0.527,1.241-1.207,1.241h-5.117c0.255,1.173,1.071,1.784,2.228,1.784
		c0.714,0,1.309-0.221,1.836-0.611c0.187-0.137,0.356-0.204,0.629-0.204c0.577,0,1.002,0.441,1.002,1.02
		c0,0.34-0.152,0.595-0.34,0.765C486.305,103.779,485.268,104.204,483.942,104.204z M485.608,98.73
		c-0.153-1.156-0.833-1.938-1.921-1.938c-1.071,0-1.769,0.765-1.972,1.938H485.608z"/>
	<path fill="#FFFFFF" d="M493.615,104.187h-0.136c-0.697,0-1.173-0.441-1.462-1.121l-2.788-6.442
		c-0.067-0.17-0.136-0.392-0.136-0.629c0-0.612,0.561-1.207,1.258-1.207s1.071,0.391,1.258,0.918l1.955,5.286l1.988-5.32
		c0.17-0.442,0.527-0.884,1.207-0.884s1.241,0.526,1.241,1.224c0,0.221-0.085,0.493-0.136,0.612l-2.788,6.442
		C494.788,103.729,494.312,104.187,493.615,104.187z"/>
	<path fill="#FFFFFF" d="M503.712,104.204c-2.737,0-4.76-1.921-4.76-4.709v-0.033c0-2.602,1.853-4.743,4.505-4.743
		c3.042,0,4.386,2.499,4.386,4.386c0,0.748-0.527,1.241-1.207,1.241h-5.117c0.255,1.173,1.071,1.784,2.228,1.784
		c0.714,0,1.309-0.221,1.836-0.611c0.187-0.137,0.356-0.204,0.629-0.204c0.577,0,1.002,0.441,1.002,1.02
		c0,0.34-0.152,0.595-0.34,0.765C506.074,103.779,505.037,104.204,503.712,104.204z M505.378,98.73
		c-0.153-1.156-0.833-1.938-1.921-1.938c-1.071,0-1.769,0.765-1.972,1.938H505.378z"/>
	<path fill="#FFFFFF" d="M509.815,96.079c0-0.714,0.577-1.292,1.292-1.292c0.714,0,1.291,0.578,1.291,1.292v0.407
		c0.374-0.884,0.986-1.699,1.751-1.699c0.799,0,1.258,0.526,1.258,1.258c0,0.68-0.441,1.088-0.969,1.207
		c-1.309,0.306-2.04,1.309-2.04,3.145v2.414c0,0.714-0.577,1.291-1.291,1.291c-0.715,0-1.292-0.577-1.292-1.291V96.079z"/>
	<path fill="#FFFFFF" d="M523.959,103.031c0-0.255,0.051-0.884,0.051-1.173c0-1.207-0.476-1.649-1.377-1.717
		c-0.646-0.051-1.054-0.442-1.054-1.021c0-0.577,0.408-0.969,1.054-1.02c0.901-0.068,1.377-0.51,1.377-1.717
		c0-0.289-0.051-0.918-0.051-1.173c0-1.615,0.765-2.651,3.298-3.229c0.663-0.153,1.189,0.255,1.189,0.884
		c0,0.51-0.356,0.782-0.611,0.867c-1.292,0.459-1.514,0.935-1.514,1.853c0,0.34,0.052,0.9,0.052,1.258
		c0,1.241-0.629,1.903-1.769,2.277c1.14,0.374,1.769,1.037,1.769,2.278c0,0.356-0.052,0.918-0.052,1.258
		c0,0.918,0.222,1.394,1.514,1.853c0.255,0.085,0.611,0.357,0.611,0.867c0,0.629-0.526,1.037-1.189,0.884
		C524.724,105.683,523.959,104.646,523.959,103.031z"/>
	<path fill="#FFFFFF" d="M444.797,117.499h-0.102c-0.595,0-1.071-0.459-1.071-1.054s0.477-1.071,1.071-1.071h0.102v-0.578
		c0-1.003,0.255-1.733,0.731-2.209c0.476-0.477,1.173-0.714,2.091-0.714c0.407,0,0.765,0.017,1.054,0.067
		c0.441,0.068,0.884,0.459,0.884,1.037s-0.476,1.071-1.054,1.071h-0.222c-0.595,0-0.935,0.306-0.935,0.985v0.357h1.122
		c0.595,0,1.071,0.459,1.071,1.054s-0.477,1.054-1.071,1.054h-1.088v5.712c0,0.714-0.578,1.291-1.292,1.291
		s-1.292-0.577-1.292-1.291V117.499z"/>
	<path fill="#FFFFFF" d="M450.237,119.896v-0.033c0-2.618,2.107-4.743,4.946-4.743c2.822,0,4.913,2.091,4.913,4.709v0.034
		c0,2.617-2.108,4.742-4.947,4.742C452.328,124.604,450.237,122.514,450.237,119.896z M457.547,119.896v-0.033
		c0-1.344-0.969-2.517-2.397-2.517c-1.479,0-2.362,1.14-2.362,2.482v0.034c0,1.343,0.969,2.516,2.396,2.516
		C456.663,122.378,457.547,121.238,457.547,119.896z"/>
	<path fill="#FFFFFF" d="M461.967,116.479c0-0.714,0.577-1.292,1.291-1.292c0.715,0,1.292,0.578,1.292,1.292v0.102
		c0.596-0.765,1.36-1.462,2.669-1.462c1.955,0,3.094,1.292,3.094,3.383v4.709c0,0.714-0.578,1.291-1.292,1.291
		s-1.292-0.577-1.292-1.291v-3.893c0-1.225-0.577-1.854-1.563-1.854s-1.615,0.629-1.615,1.854v3.893
		c0,0.714-0.577,1.291-1.292,1.291c-0.714,0-1.291-0.577-1.291-1.291V116.479z"/>
	<path fill="#FFFFFF" d="M472.982,121.816v-4.317h-0.085c-0.612,0-1.105-0.493-1.105-1.104c0-0.612,0.493-1.105,1.105-1.105h0.085
		v-1.139c0-0.714,0.578-1.292,1.292-1.292s1.292,0.578,1.292,1.292v1.139h1.139c0.611,0,1.104,0.493,1.104,1.105
		c0,0.611-0.493,1.104-1.104,1.104h-1.139v3.893c0,0.595,0.255,0.884,0.832,0.884c0.085,0,0.256-0.017,0.307-0.017
		c0.578,0,1.07,0.476,1.07,1.07c0,0.459-0.306,0.833-0.662,0.97c-0.477,0.187-0.918,0.255-1.479,0.255
		C474.053,124.554,472.982,123.925,472.982,121.816z"/>
	<path fill="#FFFFFF" d="M479.205,119.131c0-0.68,0.561-1.241,1.241-1.241h2.957c0.68,0,1.241,0.562,1.241,1.241
		s-0.562,1.241-1.241,1.241h-2.957C479.766,120.372,479.205,119.811,479.205,119.131z"/>
	<path fill="#FFFFFF" d="M486.311,123.533c-0.272-0.17-0.493-0.476-0.493-0.884c0-0.578,0.442-1.02,1.021-1.02
		c0.187,0,0.373,0.051,0.51,0.136c0.866,0.544,1.733,0.816,2.465,0.816c0.748,0,1.088-0.272,1.088-0.681v-0.034
		c0-0.561-0.885-0.747-1.887-1.054c-1.275-0.374-2.72-0.969-2.72-2.736v-0.034c0-1.853,1.495-2.89,3.331-2.89
		c0.952,0,1.938,0.255,2.822,0.697c0.374,0.187,0.611,0.526,0.611,0.969c0,0.578-0.459,1.02-1.037,1.02
		c-0.187,0-0.306-0.034-0.476-0.119c-0.73-0.356-1.428-0.577-1.972-0.577c-0.629,0-0.952,0.271-0.952,0.629v0.033
		c0,0.511,0.867,0.748,1.853,1.088c1.275,0.426,2.754,1.037,2.754,2.703v0.034c0,2.022-1.513,2.94-3.484,2.94
		C488.622,124.57,487.415,124.247,486.311,123.533z"/>
	<path fill="#FFFFFF" d="M495.049,113.113c0-0.748,0.629-1.207,1.444-1.207c0.816,0,1.445,0.459,1.445,1.207v0.034
		c0,0.748-0.629,1.224-1.445,1.224c-0.815,0-1.444-0.476-1.444-1.224V113.113z M495.201,116.479c0-0.714,0.578-1.292,1.292-1.292
		s1.292,0.578,1.292,1.292v6.731c0,0.714-0.578,1.291-1.292,1.291s-1.292-0.577-1.292-1.291V116.479z"/>
	<path fill="#FFFFFF" d="M499.809,123.363v-0.051c0-0.493,0.17-0.816,0.578-1.258l4.232-4.675h-3.604
		c-0.578,0-1.054-0.459-1.054-1.037c0-0.577,0.476-1.054,1.054-1.054h5.66c0.73,0,1.258,0.425,1.258,1.037v0.051
		c0,0.493-0.17,0.816-0.578,1.258l-4.249,4.675h3.773c0.578,0,1.054,0.476,1.054,1.054s-0.476,1.037-1.054,1.037h-5.813
		C500.335,124.4,499.809,123.976,499.809,123.363z"/>
	<path fill="#FFFFFF" d="M513.848,124.604c-2.737,0-4.76-1.921-4.76-4.709v-0.033c0-2.602,1.853-4.743,4.505-4.743
		c3.042,0,4.386,2.499,4.386,4.386c0,0.748-0.527,1.241-1.207,1.241h-5.117c0.256,1.173,1.071,1.784,2.228,1.784
		c0.714,0,1.309-0.221,1.835-0.611c0.188-0.137,0.357-0.204,0.63-0.204c0.577,0,1.003,0.441,1.003,1.02
		c0,0.34-0.153,0.595-0.341,0.765C516.21,124.18,515.174,124.604,513.848,124.604z M515.514,119.131
		c-0.153-1.156-0.833-1.938-1.921-1.938c-1.071,0-1.769,0.765-1.972,1.938H515.514z"/>
	<path fill="#FFFFFF" d="M521.311,115.188c0.85,0,1.479,0.629,1.479,1.444v0.034c0,0.816-0.629,1.445-1.479,1.445
		s-1.479-0.629-1.479-1.445v-0.034C519.832,115.816,520.461,115.188,521.311,115.188z M521.311,121.579
		c0.85,0,1.479,0.629,1.479,1.444v0.034c0,0.815-0.629,1.444-1.479,1.444s-1.479-0.629-1.479-1.444v-0.034
		C519.832,122.208,520.461,121.579,521.311,121.579z"/>
	<path fill="#FFFFFF" d="M531.951,114.983l-0.918,0.238c-0.136,0.033-0.322,0.067-0.459,0.067c-0.611,0-1.139-0.51-1.139-1.122
		c0-0.526,0.34-0.969,0.867-1.121l1.683-0.493c0.493-0.136,0.867-0.221,1.224-0.221h0.034c0.714,0,1.292,0.577,1.292,1.291v9.588
		c0,0.714-0.578,1.291-1.292,1.291s-1.292-0.577-1.292-1.291V114.983z"/>
	<path fill="#FFFFFF" d="M537.257,116.479c0-0.714,0.577-1.292,1.292-1.292c0.714,0,1.291,0.578,1.291,1.292v0.407
		c0.374-0.884,0.986-1.699,1.751-1.699c0.799,0,1.258,0.526,1.258,1.258c0,0.68-0.441,1.088-0.969,1.207
		c-1.309,0.306-2.04,1.309-2.04,3.145v2.414c0,0.714-0.577,1.291-1.291,1.291c-0.715,0-1.292-0.577-1.292-1.291V116.479z"/>
	<path fill="#FFFFFF" d="M548.423,124.604c-2.737,0-4.76-1.921-4.76-4.709v-0.033c0-2.602,1.853-4.743,4.505-4.743
		c3.042,0,4.386,2.499,4.386,4.386c0,0.748-0.527,1.241-1.207,1.241h-5.117c0.255,1.173,1.071,1.784,2.228,1.784
		c0.714,0,1.309-0.221,1.836-0.611c0.187-0.137,0.356-0.204,0.629-0.204c0.577,0,1.002,0.441,1.002,1.02
		c0,0.34-0.152,0.595-0.34,0.765C550.785,124.18,549.748,124.604,548.423,124.604z M550.089,119.131
		c-0.153-1.156-0.833-1.938-1.921-1.938c-1.071,0-1.769,0.765-1.972,1.938H550.089z"/>
	<path fill="#FFFFFF" d="M554.525,116.479c0-0.714,0.577-1.292,1.291-1.292c0.715,0,1.292,0.578,1.292,1.292v0.102
		c0.596-0.765,1.377-1.462,2.687-1.462c1.189,0,2.091,0.527,2.566,1.445c0.799-0.936,1.751-1.445,2.991-1.445
		c1.921,0,3.077,1.156,3.077,3.349v4.743c0,0.714-0.578,1.291-1.292,1.291s-1.292-0.577-1.292-1.291v-3.893
		c0-1.225-0.544-1.854-1.513-1.854s-1.563,0.629-1.563,1.854v3.893c0,0.714-0.578,1.291-1.292,1.291s-1.292-0.577-1.292-1.291
		v-3.893c0-1.225-0.544-1.854-1.513-1.854s-1.564,0.629-1.564,1.854v3.893c0,0.714-0.577,1.291-1.292,1.291
		c-0.714,0-1.291-0.577-1.291-1.291V116.479z"/>
	<path fill="#FFFFFF" d="M570.438,126.016c0.867-0.204,1.343-0.799,1.309-1.615c-0.595-0.153-1.189-0.663-1.189-1.394v-0.034
		c0-0.799,0.561-1.394,1.41-1.394c0.952,0,1.514,0.73,1.514,1.903v0.068c0,1.24-0.374,2.158-1.003,2.787
		c-0.511,0.51-1.275,0.816-1.904,0.816c-0.459,0-0.646-0.272-0.646-0.578S570.148,126.083,570.438,126.016z M572.035,115.188
		c0.85,0,1.479,0.629,1.479,1.444v0.034c0,0.816-0.629,1.445-1.479,1.445s-1.479-0.629-1.479-1.445v-0.034
		C570.557,115.816,571.186,115.188,572.035,115.188z"/>
	<path fill="#FFFFFF" d="M438.235,136.012c0,0.255-0.051,0.884-0.051,1.173c0,1.207,0.476,1.648,1.377,1.717
		c0.646,0.051,1.054,0.442,1.054,1.02c0,0.578-0.408,0.97-1.054,1.021c-0.901,0.067-1.377,0.51-1.377,1.717
		c0,0.289,0.051,0.918,0.051,1.173c0,1.614-0.765,2.651-3.298,3.229c-0.663,0.153-1.189-0.255-1.189-0.884
		c0-0.51,0.356-0.782,0.611-0.867c1.292-0.459,1.514-0.935,1.514-1.853c0-0.34-0.052-0.901-0.052-1.258
		c0-1.241,0.629-1.904,1.769-2.278c-1.14-0.374-1.769-1.036-1.769-2.277c0-0.357,0.052-0.918,0.052-1.258
		c0-0.918-0.222-1.394-1.514-1.853c-0.255-0.085-0.611-0.357-0.611-0.867c0-0.629,0.526-1.037,1.189-0.884
		C437.471,133.36,438.235,134.396,438.235,136.012z"/>
</g>
<g>
	<path fill="#FFFFFF" d="M57.146,422.348c1.101,0,1.914,0.813,1.914,1.87v0.044c0,1.057-0.813,1.87-1.914,1.87
		s-1.914-0.813-1.914-1.87v-0.044C55.232,423.161,56.046,422.348,57.146,422.348z"/>
	<path fill="#FFFFFF" d="M62.027,417.066h-0.132c-0.771,0-1.387-0.594-1.387-1.364c0-0.77,0.616-1.386,1.387-1.386h0.132v-0.748
		c0-1.299,0.33-2.244,0.946-2.86s1.518-0.925,2.706-0.925c0.528,0,0.99,0.022,1.364,0.089c0.572,0.088,1.145,0.594,1.145,1.342
		s-0.616,1.386-1.364,1.386h-0.286c-0.771,0-1.21,0.396-1.21,1.276v0.462h1.452c0.77,0,1.386,0.595,1.386,1.364
		c0,0.771-0.616,1.364-1.386,1.364h-1.408v7.394c0,0.924-0.748,1.672-1.673,1.672c-0.924,0-1.672-0.748-1.672-1.672V417.066z"/>
	<path fill="#FFFFFF" d="M69.066,420.169v-0.044c0-3.389,2.729-6.139,6.403-6.139c3.652,0,6.358,2.706,6.358,6.095v0.044
		c0,3.389-2.728,6.139-6.402,6.139C71.773,426.264,69.066,423.558,69.066,420.169z M78.528,420.169v-0.044
		c0-1.738-1.255-3.256-3.103-3.256c-1.914,0-3.059,1.474-3.059,3.212v0.044c0,1.738,1.254,3.257,3.103,3.257
		C77.384,423.382,78.528,421.907,78.528,420.169z"/>
	<path fill="#FFFFFF" d="M83.674,420.169v-0.044c0-3.389,2.729-6.139,6.403-6.139c3.652,0,6.358,2.706,6.358,6.095v0.044
		c0,3.389-2.728,6.139-6.402,6.139C86.381,426.264,83.674,423.558,83.674,420.169z M93.136,420.169v-0.044
		c0-1.738-1.255-3.256-3.103-3.256c-1.914,0-3.059,1.474-3.059,3.212v0.044c0,1.738,1.254,3.257,3.103,3.257
		C91.991,423.382,93.136,421.907,93.136,420.169z"/>
	<path fill="#FFFFFF" d="M99.403,422.655v-5.589h-0.109c-0.792,0-1.431-0.638-1.431-1.43s0.639-1.431,1.431-1.431h0.109v-1.474
		c0-0.925,0.748-1.673,1.673-1.673c0.924,0,1.672,0.748,1.672,1.673v1.474h1.475c0.792,0,1.43,0.639,1.43,1.431
		s-0.638,1.43-1.43,1.43h-1.475v5.039c0,0.771,0.33,1.145,1.078,1.145c0.11,0,0.33-0.022,0.396-0.022
		c0.748,0,1.386,0.616,1.386,1.387c0,0.594-0.396,1.078-0.858,1.254c-0.615,0.242-1.188,0.33-1.914,0.33
		C100.79,426.198,99.403,425.384,99.403,422.655z"/>
	<path fill="#FFFFFF" d="M113.239,426.264c-3.542,0-6.161-2.486-6.161-6.095v-0.044c0-3.366,2.398-6.139,5.831-6.139
		c3.938,0,5.677,3.234,5.677,5.677c0,0.968-0.682,1.606-1.562,1.606h-6.622c0.329,1.518,1.386,2.311,2.882,2.311
		c0.924,0,1.694-0.286,2.377-0.793c0.241-0.176,0.462-0.264,0.813-0.264c0.748,0,1.298,0.572,1.298,1.32
		c0,0.44-0.197,0.771-0.439,0.99C116.298,425.714,114.955,426.264,113.239,426.264z M115.396,419.179
		c-0.198-1.496-1.078-2.508-2.486-2.508c-1.386,0-2.288,0.99-2.553,2.508H115.396z"/>
	<path fill="#FFFFFF" d="M121.137,415.746c0-0.924,0.748-1.672,1.672-1.672c0.925,0,1.673,0.748,1.673,1.672v0.528
		c0.484-1.144,1.276-2.2,2.267-2.2c1.034,0,1.628,0.683,1.628,1.628c0,0.881-0.572,1.408-1.254,1.562
		c-1.694,0.396-2.641,1.694-2.641,4.07v3.125c0,0.924-0.748,1.672-1.673,1.672c-0.924,0-1.672-0.748-1.672-1.672V415.746z"/>
	<path fill="#FFFFFF" d="M139.441,424.746c0-0.33,0.065-1.145,0.065-1.519c0-1.562-0.616-2.134-1.782-2.223
		c-0.836-0.065-1.364-0.571-1.364-1.319c0-0.749,0.528-1.255,1.364-1.32c1.166-0.088,1.782-0.66,1.782-2.223
		c0-0.374-0.065-1.188-0.065-1.519c0-2.09,0.99-3.433,4.269-4.181c0.857-0.197,1.54,0.33,1.54,1.145c0,0.66-0.462,1.012-0.792,1.122
		c-1.673,0.594-1.958,1.21-1.958,2.398c0,0.44,0.065,1.166,0.065,1.628c0,1.606-0.814,2.465-2.288,2.949
		c1.474,0.483,2.288,1.342,2.288,2.948c0,0.462-0.065,1.188-0.065,1.628c0,1.188,0.285,1.805,1.958,2.398
		c0.33,0.11,0.792,0.462,0.792,1.122c0,0.814-0.683,1.342-1.54,1.145C140.432,428.179,139.441,426.836,139.441,424.746z"/>
	<path fill="#FFFFFF" d="M154.884,417.066h-0.132c-0.771,0-1.387-0.594-1.387-1.364c0-0.77,0.616-1.386,1.387-1.386h0.132v-0.748
		c0-1.299,0.33-2.244,0.946-2.86s1.518-0.925,2.706-0.925c0.528,0,0.99,0.022,1.364,0.089c0.572,0.088,1.145,0.594,1.145,1.342
		s-0.616,1.386-1.364,1.386h-0.286c-0.771,0-1.21,0.396-1.21,1.276v0.462h1.452c0.77,0,1.386,0.595,1.386,1.364
		c0,0.771-0.616,1.364-1.386,1.364h-1.408v7.394c0,0.924-0.748,1.672-1.673,1.672c-0.924,0-1.672-0.748-1.672-1.672V417.066z"/>
	<path fill="#FFFFFF" d="M161.923,420.169v-0.044c0-3.389,2.729-6.139,6.403-6.139c3.652,0,6.358,2.706,6.358,6.095v0.044
		c0,3.389-2.728,6.139-6.402,6.139C164.63,426.264,161.923,423.558,161.923,420.169z M171.385,420.169v-0.044
		c0-1.738-1.255-3.256-3.103-3.256c-1.914,0-3.059,1.474-3.059,3.212v0.044c0,1.738,1.254,3.257,3.103,3.257
		C170.24,423.382,171.385,421.907,171.385,420.169z"/>
	<path fill="#FFFFFF" d="M177.104,415.746c0-0.924,0.748-1.672,1.672-1.672c0.925,0,1.673,0.748,1.673,1.672v0.133
		c0.77-0.99,1.76-1.893,3.454-1.893c2.53,0,4.005,1.672,4.005,4.379v6.095c0,0.924-0.748,1.672-1.672,1.672
		c-0.925,0-1.673-0.748-1.673-1.672v-5.039c0-1.584-0.748-2.398-2.024-2.398c-1.275,0-2.09,0.814-2.09,2.398v5.039
		c0,0.924-0.748,1.672-1.673,1.672c-0.924,0-1.672-0.748-1.672-1.672V415.746z"/>
	<path fill="#FFFFFF" d="M191.358,422.655v-5.589h-0.109c-0.792,0-1.431-0.638-1.431-1.43s0.639-1.431,1.431-1.431h0.109v-1.474
		c0-0.925,0.748-1.673,1.673-1.673c0.924,0,1.672,0.748,1.672,1.673v1.474h1.475c0.792,0,1.43,0.639,1.43,1.431
		s-0.638,1.43-1.43,1.43h-1.475v5.039c0,0.771,0.33,1.145,1.078,1.145c0.11,0,0.33-0.022,0.396-0.022
		c0.748,0,1.386,0.616,1.386,1.387c0,0.594-0.396,1.078-0.858,1.254c-0.615,0.242-1.188,0.33-1.914,0.33
		C192.745,426.198,191.358,425.384,191.358,422.655z"/>
	<path fill="#FFFFFF" d="M199.41,419.179c0-0.88,0.727-1.605,1.606-1.605h3.829c0.88,0,1.605,0.726,1.605,1.605
		c0,0.881-0.726,1.606-1.605,1.606h-3.829C200.137,420.785,199.41,420.06,199.41,419.179z"/>
	<path fill="#FFFFFF" d="M208.606,424.878c-0.353-0.22-0.639-0.616-0.639-1.145c0-0.748,0.572-1.32,1.32-1.32
		c0.242,0,0.484,0.066,0.66,0.177c1.122,0.704,2.244,1.056,3.19,1.056c0.969,0,1.408-0.352,1.408-0.88v-0.044
		c0-0.727-1.145-0.969-2.442-1.364c-1.65-0.484-3.521-1.254-3.521-3.543v-0.044c0-2.398,1.937-3.74,4.312-3.74
		c1.232,0,2.509,0.33,3.652,0.902c0.484,0.242,0.793,0.682,0.793,1.254c0,0.748-0.595,1.32-1.343,1.32
		c-0.242,0-0.396-0.044-0.616-0.154c-0.946-0.462-1.848-0.748-2.552-0.748c-0.814,0-1.232,0.353-1.232,0.814v0.044
		c0,0.66,1.122,0.968,2.398,1.408c1.65,0.55,3.564,1.342,3.564,3.498v0.044c0,2.619-1.958,3.807-4.511,3.807
		C211.599,426.22,210.036,425.802,208.606,424.878z"/>
	<path fill="#FFFFFF" d="M219.914,411.39c0-0.968,0.814-1.562,1.87-1.562c1.057,0,1.87,0.594,1.87,1.562v0.044
		c0,0.969-0.813,1.585-1.87,1.585c-1.056,0-1.87-0.616-1.87-1.585V411.39z M220.112,415.746c0-0.924,0.748-1.672,1.672-1.672
		c0.925,0,1.673,0.748,1.673,1.672v8.714c0,0.924-0.748,1.672-1.673,1.672c-0.924,0-1.672-0.748-1.672-1.672V415.746z"/>
	<path fill="#FFFFFF" d="M226.073,424.658v-0.066c0-0.638,0.221-1.057,0.748-1.628l5.479-6.051h-4.665
		c-0.748,0-1.364-0.595-1.364-1.343s0.616-1.364,1.364-1.364h7.327c0.946,0,1.628,0.551,1.628,1.343v0.065
		c0,0.639-0.22,1.057-0.748,1.629l-5.501,6.051h4.885c0.748,0,1.364,0.616,1.364,1.364S235.975,426,235.227,426h-7.524
		C226.756,426,226.073,425.45,226.073,424.658z"/>
	<path fill="#FFFFFF" d="M244.243,426.264c-3.542,0-6.161-2.486-6.161-6.095v-0.044c0-3.366,2.398-6.139,5.831-6.139
		c3.938,0,5.677,3.234,5.677,5.677c0,0.968-0.682,1.606-1.562,1.606h-6.622c0.329,1.518,1.386,2.311,2.882,2.311
		c0.924,0,1.694-0.286,2.377-0.793c0.241-0.176,0.462-0.264,0.813-0.264c0.748,0,1.298,0.572,1.298,1.32
		c0,0.44-0.197,0.771-0.439,0.99C247.302,425.714,245.959,426.264,244.243,426.264z M246.399,419.179
		c-0.198-1.496-1.078-2.508-2.486-2.508c-1.386,0-2.288,0.99-2.553,2.508H246.399z"/>
	<path fill="#FFFFFF" d="M253.901,414.074c1.1,0,1.914,0.814,1.914,1.87v0.044c0,1.057-0.814,1.87-1.914,1.87
		c-1.101,0-1.915-0.813-1.915-1.87v-0.044C251.986,414.889,252.801,414.074,253.901,414.074z M253.901,422.348
		c1.1,0,1.914,0.813,1.914,1.87v0.044c0,1.057-0.814,1.87-1.914,1.87c-1.101,0-1.915-0.813-1.915-1.87v-0.044
		C251.986,423.161,252.801,422.348,253.901,422.348z"/>
	<path fill="#FFFFFF" d="M264.944,418.343v-0.044c0-4.467,2.772-7.965,6.864-7.965c4.071,0,6.821,3.454,6.821,7.921v0.044
		c0,4.467-2.75,7.965-6.865,7.965C267.65,426.264,264.944,422.81,264.944,418.343z M275.153,418.343v-0.044
		c0-2.794-1.364-4.906-3.389-4.906s-3.344,2.046-3.344,4.862v0.044c0,2.816,1.342,4.907,3.388,4.907
		C273.855,423.206,275.153,421.138,275.153,418.343z"/>
	<path fill="#FFFFFF" d="M282.521,422.348c1.101,0,1.914,0.813,1.914,1.87v0.044c0,1.057-0.813,1.87-1.914,1.87
		s-1.914-0.813-1.914-1.87v-0.044C280.607,423.161,281.421,422.348,282.521,422.348z"/>
	<path fill="#FFFFFF" d="M288.241,423.558l5.721-10.033h-5.896c-0.814,0-1.475-0.639-1.475-1.452c0-0.814,0.66-1.475,1.475-1.475
		h8.36c0.946,0,1.541,0.55,1.541,1.519c0,0.506-0.198,1.122-0.484,1.65l-6.183,11.222c-0.44,0.813-0.969,1.144-1.629,1.144
		c-0.901,0-1.738-0.55-1.738-1.518C287.933,424.328,288.065,423.865,288.241,423.558z"/>
	<path fill="#FFFFFF" d="M300.271,424.812c-0.396-0.286-0.683-0.726-0.683-1.298c0-0.88,0.727-1.628,1.606-1.628
		c0.396,0,0.66,0.109,0.924,0.308c0.946,0.683,1.849,0.99,2.927,0.99c1.431,0,2.486-0.771,2.486-2.135v-0.044
		c0-1.319-1.122-2.09-2.729-2.09c-1.298,0-1.87,0.396-2.332,0.396c-0.484,0-0.858-0.197-1.54-0.682
		c-0.462-0.33-0.66-0.792-0.616-1.364l0.308-5.215c0.044-0.813,0.683-1.452,1.496-1.452h6.689c0.814,0,1.496,0.683,1.496,1.496
		c0,0.814-0.682,1.475-1.496,1.475h-5.192l-0.177,2.662c0.616-0.154,1.166-0.264,2.024-0.264c3.036,0,5.391,1.452,5.391,4.929v0.044
		c0,3.256-2.354,5.324-5.742,5.324C302.978,426.264,301.504,425.692,300.271,424.812z"/>
	<path fill="#FFFFFF" d="M313.647,415.746c0-0.924,0.748-1.672,1.673-1.672c0.924,0,1.672,0.748,1.672,1.672v0.528
		c0.484-1.144,1.276-2.2,2.267-2.2c1.034,0,1.628,0.683,1.628,1.628c0,0.881-0.572,1.408-1.254,1.562
		c-1.694,0.396-2.641,1.694-2.641,4.07v3.125c0,0.924-0.748,1.672-1.672,1.672c-0.925,0-1.673-0.748-1.673-1.672V415.746z"/>
	<path fill="#FFFFFF" d="M328.1,426.264c-3.542,0-6.161-2.486-6.161-6.095v-0.044c0-3.366,2.398-6.139,5.831-6.139
		c3.938,0,5.677,3.234,5.677,5.677c0,0.968-0.682,1.606-1.562,1.606h-6.622c0.33,1.518,1.386,2.311,2.882,2.311
		c0.924,0,1.694-0.286,2.376-0.793c0.242-0.176,0.463-0.264,0.814-0.264c0.748,0,1.299,0.572,1.299,1.32
		c0,0.44-0.198,0.771-0.44,0.99C331.158,425.714,329.816,426.264,328.1,426.264z M330.256,419.179
		c-0.198-1.496-1.078-2.508-2.486-2.508c-1.386,0-2.288,0.99-2.553,2.508H330.256z"/>
	<path fill="#FFFFFF" d="M335.996,415.746c0-0.924,0.748-1.672,1.672-1.672c0.925,0,1.673,0.748,1.673,1.672v0.133
		c0.77-0.99,1.782-1.893,3.477-1.893c1.54,0,2.706,0.682,3.322,1.87c1.034-1.21,2.267-1.87,3.873-1.87
		c2.486,0,3.982,1.496,3.982,4.335v6.139c0,0.924-0.748,1.672-1.673,1.672c-0.924,0-1.672-0.748-1.672-1.672v-5.039
		c0-1.584-0.704-2.398-1.958-2.398c-1.255,0-2.024,0.814-2.024,2.398v5.039c0,0.924-0.748,1.672-1.673,1.672
		c-0.924,0-1.672-0.748-1.672-1.672v-5.039c0-1.584-0.704-2.398-1.958-2.398c-1.255,0-2.024,0.814-2.024,2.398v5.039
		c0,0.924-0.748,1.672-1.673,1.672c-0.924,0-1.672-0.748-1.672-1.672V415.746z"/>
	<path fill="#FFFFFF" d="M368.777,414.624c0,0.33-0.066,1.145-0.066,1.519c0,1.562,0.616,2.135,1.782,2.223
		c0.836,0.065,1.364,0.571,1.364,1.32c0,0.748-0.528,1.254-1.364,1.319c-1.166,0.089-1.782,0.66-1.782,2.223
		c0,0.374,0.066,1.188,0.066,1.519c0,2.09-0.99,3.433-4.269,4.181c-0.858,0.197-1.541-0.33-1.541-1.145
		c0-0.66,0.463-1.012,0.792-1.122c1.673-0.594,1.959-1.21,1.959-2.398c0-0.44-0.066-1.166-0.066-1.628
		c0-1.606,0.814-2.465,2.288-2.948c-1.474-0.484-2.288-1.343-2.288-2.949c0-0.462,0.066-1.188,0.066-1.628
		c0-1.188-0.286-1.805-1.959-2.398c-0.329-0.11-0.792-0.462-0.792-1.122c0-0.814,0.683-1.342,1.541-1.145
		C367.787,411.191,368.777,412.534,368.777,414.624z"/>
</g>
<rect x="60" y="125" fill="#F5F089" width="318" height="34.5"/>
<g>
	<path d="M76.496,135.478c0-0.924,0.748-1.672,1.672-1.672c0.925,0,1.673,0.748,1.673,1.672v4.401c0.77-0.99,1.76-1.893,3.454-1.893
		c2.53,0,4.005,1.672,4.005,4.379v6.095c0,0.924-0.748,1.672-1.672,1.672c-0.925,0-1.673-0.748-1.673-1.672v-5.039
		c0-1.584-0.748-2.398-2.024-2.398c-1.275,0-2.09,0.814-2.09,2.398v5.039c0,0.924-0.748,1.672-1.673,1.672
		c-0.924,0-1.672-0.748-1.672-1.672V135.478z"/>
	<path d="M90.532,146.699l4.379-3.586c1.914-1.562,2.662-2.421,2.662-3.697c0-1.298-0.858-2.002-2.068-2.002
		c-0.968,0-1.65,0.418-2.508,1.343c-0.221,0.241-0.616,0.483-1.145,0.483c-0.858,0-1.54-0.682-1.54-1.54
		c0-0.374,0.154-0.771,0.396-1.056c1.232-1.431,2.685-2.267,5.017-2.267c3.191,0,5.303,1.87,5.303,4.753v0.044
		c0,2.574-1.319,3.851-4.048,5.963l-2.509,1.936h5.369c0.813,0,1.474,0.66,1.474,1.475S100.653,150,99.84,150h-8.361
		c-1.057,0-1.826-0.594-1.826-1.606C89.652,147.733,89.96,147.161,90.532,146.699z"/>
	<path d="M113.016,148.746c0-0.33,0.065-1.145,0.065-1.519c0-1.562-0.616-2.134-1.782-2.223c-0.836-0.065-1.364-0.571-1.364-1.319
		c0-0.749,0.528-1.255,1.364-1.32c1.166-0.088,1.782-0.66,1.782-2.223c0-0.374-0.065-1.188-0.065-1.519
		c0-2.09,0.99-3.433,4.269-4.181c0.857-0.197,1.54,0.33,1.54,1.145c0,0.66-0.462,1.012-0.792,1.122
		c-1.673,0.594-1.958,1.21-1.958,2.398c0,0.44,0.065,1.166,0.065,1.628c0,1.606-0.814,2.465-2.288,2.949
		c1.474,0.483,2.288,1.342,2.288,2.948c0,0.462-0.065,1.188-0.065,1.628c0,1.188,0.285,1.805,1.958,2.398
		c0.33,0.11,0.792,0.462,0.792,1.122c0,0.814-0.683,1.342-1.54,1.145C114.006,152.179,113.016,150.836,113.016,148.746z"/>
	<path d="M128.459,141.066h-0.132c-0.771,0-1.387-0.594-1.387-1.364c0-0.77,0.616-1.386,1.387-1.386h0.132v-0.748
		c0-1.299,0.33-2.244,0.946-2.86s1.518-0.925,2.706-0.925c0.528,0,0.99,0.022,1.364,0.089c0.572,0.088,1.145,0.594,1.145,1.342
		s-0.616,1.386-1.364,1.386h-0.286c-0.771,0-1.21,0.396-1.21,1.276v0.462h1.452c0.77,0,1.386,0.595,1.386,1.364
		c0,0.771-0.616,1.364-1.386,1.364h-1.408v7.394c0,0.924-0.748,1.672-1.673,1.672c-0.924,0-1.672-0.748-1.672-1.672V141.066z"/>
	<path d="M135.498,144.169v-0.044c0-3.389,2.729-6.139,6.403-6.139c3.652,0,6.358,2.706,6.358,6.095v0.044
		c0,3.389-2.728,6.139-6.402,6.139C138.205,150.264,135.498,147.558,135.498,144.169z M144.96,144.169v-0.044
		c0-1.738-1.255-3.256-3.103-3.256c-1.914,0-3.059,1.474-3.059,3.212v0.044c0,1.738,1.254,3.257,3.103,3.257
		C143.815,147.382,144.96,145.907,144.96,144.169z"/>
	<path d="M150.678,139.746c0-0.924,0.748-1.672,1.672-1.672c0.925,0,1.673,0.748,1.673,1.672v0.133
		c0.77-0.99,1.76-1.893,3.454-1.893c2.53,0,4.005,1.672,4.005,4.379v6.095c0,0.924-0.748,1.672-1.672,1.672
		c-0.925,0-1.673-0.748-1.673-1.672v-5.039c0-1.584-0.748-2.398-2.024-2.398c-1.275,0-2.09,0.814-2.09,2.398v5.039
		c0,0.924-0.748,1.672-1.673,1.672c-0.924,0-1.672-0.748-1.672-1.672V139.746z"/>
	<path d="M164.934,146.655v-5.589h-0.109c-0.792,0-1.431-0.638-1.431-1.43s0.639-1.431,1.431-1.431h0.109v-1.474
		c0-0.925,0.748-1.673,1.673-1.673c0.924,0,1.672,0.748,1.672,1.673v1.474h1.475c0.792,0,1.43,0.639,1.43,1.431
		s-0.638,1.43-1.43,1.43h-1.475v5.039c0,0.771,0.33,1.145,1.078,1.145c0.11,0,0.33-0.022,0.396-0.022
		c0.748,0,1.386,0.616,1.386,1.387c0,0.594-0.396,1.078-0.857,1.254c-0.616,0.242-1.188,0.33-1.915,0.33
		C166.32,150.198,164.934,149.384,164.934,146.655z"/>
	<path d="M172.985,143.179c0-0.88,0.727-1.605,1.606-1.605h3.829c0.88,0,1.605,0.726,1.605,1.605c0,0.881-0.726,1.606-1.605,1.606
		h-3.829C173.712,144.785,172.985,144.06,172.985,143.179z"/>
	<path d="M182.182,148.878c-0.353-0.22-0.639-0.616-0.639-1.145c0-0.748,0.572-1.32,1.32-1.32c0.242,0,0.484,0.066,0.66,0.177
		c1.122,0.704,2.244,1.056,3.19,1.056c0.968,0,1.408-0.352,1.408-0.88v-0.044c0-0.727-1.144-0.969-2.442-1.364
		c-1.65-0.484-3.521-1.254-3.521-3.543v-0.044c0-2.398,1.937-3.74,4.312-3.74c1.232,0,2.509,0.33,3.652,0.902
		c0.484,0.242,0.793,0.682,0.793,1.254c0,0.748-0.595,1.32-1.343,1.32c-0.242,0-0.396-0.044-0.616-0.154
		c-0.946-0.462-1.848-0.748-2.552-0.748c-0.814,0-1.232,0.353-1.232,0.814v0.044c0,0.66,1.122,0.968,2.398,1.408
		c1.65,0.55,3.564,1.342,3.564,3.498v0.044c0,2.619-1.958,3.807-4.511,3.807C185.174,150.22,183.611,149.802,182.182,148.878z"/>
	<path d="M193.489,135.39c0-0.968,0.814-1.562,1.87-1.562c1.057,0,1.87,0.594,1.87,1.562v0.044c0,0.969-0.813,1.585-1.87,1.585
		c-1.056,0-1.87-0.616-1.87-1.585V135.39z M193.688,139.746c0-0.924,0.748-1.672,1.672-1.672c0.925,0,1.673,0.748,1.673,1.672v8.714
		c0,0.924-0.748,1.672-1.673,1.672c-0.924,0-1.672-0.748-1.672-1.672V139.746z"/>
	<path d="M199.648,148.658v-0.066c0-0.638,0.221-1.057,0.748-1.628l5.479-6.051h-4.665c-0.748,0-1.364-0.595-1.364-1.343
		s0.616-1.364,1.364-1.364h7.327c0.946,0,1.628,0.551,1.628,1.343v0.065c0,0.639-0.22,1.057-0.748,1.629l-5.501,6.051h4.885
		c0.748,0,1.364,0.616,1.364,1.364S209.55,150,208.802,150h-7.524C200.331,150,199.648,149.45,199.648,148.658z"/>
	<path d="M217.818,150.264c-3.542,0-6.161-2.486-6.161-6.095v-0.044c0-3.366,2.398-6.139,5.831-6.139
		c3.938,0,5.677,3.234,5.677,5.677c0,0.968-0.682,1.606-1.562,1.606h-6.622c0.33,1.518,1.386,2.311,2.882,2.311
		c0.924,0,1.694-0.286,2.376-0.793c0.242-0.176,0.463-0.264,0.814-0.264c0.748,0,1.299,0.572,1.299,1.32
		c0,0.44-0.198,0.771-0.44,0.99C220.877,149.714,219.535,150.264,217.818,150.264z M219.975,143.179
		c-0.198-1.496-1.078-2.508-2.486-2.508c-1.386,0-2.288,0.99-2.553,2.508H219.975z"/>
	<path d="M227.477,138.074c1.1,0,1.914,0.814,1.914,1.87v0.044c0,1.057-0.814,1.87-1.914,1.87c-1.101,0-1.915-0.813-1.915-1.87
		v-0.044C225.562,138.889,226.376,138.074,227.477,138.074z M227.477,146.348c1.1,0,1.914,0.813,1.914,1.87v0.044
		c0,1.057-0.814,1.87-1.914,1.87c-1.101,0-1.915-0.813-1.915-1.87v-0.044C225.562,147.161,226.376,146.348,227.477,146.348z"/>
	<path d="M239.157,146.699l4.379-3.586c1.914-1.562,2.662-2.421,2.662-3.697c0-1.298-0.858-2.002-2.068-2.002
		c-0.968,0-1.65,0.418-2.508,1.343c-0.221,0.241-0.616,0.483-1.145,0.483c-0.858,0-1.54-0.682-1.54-1.54
		c0-0.374,0.154-0.771,0.396-1.056c1.232-1.431,2.685-2.267,5.017-2.267c3.191,0,5.303,1.87,5.303,4.753v0.044
		c0,2.574-1.319,3.851-4.048,5.963l-2.509,1.936h5.369c0.813,0,1.474,0.66,1.474,1.475s-0.66,1.452-1.474,1.452h-8.361
		c-1.057,0-1.826-0.594-1.826-1.606C238.277,147.733,238.585,147.161,239.157,146.699z"/>
	<path d="M258.121,150.264c-3.542,0-6.161-2.486-6.161-6.095v-0.044c0-3.366,2.398-6.139,5.831-6.139
		c3.938,0,5.677,3.234,5.677,5.677c0,0.968-0.682,1.606-1.562,1.606h-6.622c0.33,1.518,1.386,2.311,2.882,2.311
		c0.924,0,1.694-0.286,2.376-0.793c0.242-0.176,0.463-0.264,0.814-0.264c0.748,0,1.299,0.572,1.299,1.32
		c0,0.44-0.198,0.771-0.44,0.99C261.18,149.714,259.838,150.264,258.121,150.264z M260.277,143.179
		c-0.198-1.496-1.078-2.508-2.486-2.508c-1.386,0-2.288,0.99-2.553,2.508H260.277z"/>
	<path d="M266.019,139.746c0-0.924,0.748-1.672,1.673-1.672c0.924,0,1.672,0.748,1.672,1.672v0.133
		c0.77-0.99,1.782-1.893,3.477-1.893c1.54,0,2.706,0.682,3.322,1.87c1.034-1.21,2.267-1.87,3.873-1.87
		c2.486,0,3.982,1.496,3.982,4.335v6.139c0,0.924-0.748,1.672-1.673,1.672c-0.924,0-1.672-0.748-1.672-1.672v-5.039
		c0-1.584-0.704-2.398-1.958-2.398c-1.255,0-2.024,0.814-2.024,2.398v5.039c0,0.924-0.748,1.672-1.673,1.672
		c-0.924,0-1.672-0.748-1.672-1.672v-5.039c0-1.584-0.704-2.398-1.958-2.398c-1.255,0-2.024,0.814-2.024,2.398v5.039
		c0,0.924-0.748,1.672-1.672,1.672c-0.925,0-1.673-0.748-1.673-1.672V139.746z"/>
	<path d="M286.61,152.09c1.122-0.264,1.738-1.033,1.694-2.09c-0.771-0.198-1.541-0.858-1.541-1.805v-0.044
		c0-1.034,0.727-1.804,1.826-1.804c1.232,0,1.959,0.946,1.959,2.464v0.088c0,1.606-0.484,2.795-1.299,3.609
		c-0.66,0.659-1.649,1.056-2.464,1.056c-0.594,0-0.836-0.352-0.836-0.748S286.236,152.179,286.61,152.09z M288.679,138.074
		c1.1,0,1.914,0.814,1.914,1.87v0.044c0,1.057-0.814,1.87-1.914,1.87c-1.101,0-1.915-0.813-1.915-1.87v-0.044
		C286.764,138.889,287.578,138.074,288.679,138.074z"/>
	<path d="M305.312,138.624c0,0.33-0.066,1.145-0.066,1.519c0,1.562,0.616,2.135,1.782,2.223c0.836,0.065,1.364,0.571,1.364,1.32
		c0,0.748-0.528,1.254-1.364,1.319c-1.166,0.089-1.782,0.66-1.782,2.223c0,0.374,0.066,1.188,0.066,1.519
		c0,2.09-0.99,3.433-4.269,4.181c-0.858,0.197-1.541-0.33-1.541-1.145c0-0.66,0.463-1.012,0.793-1.122
		c1.672-0.594,1.958-1.21,1.958-2.398c0-0.44-0.066-1.166-0.066-1.628c0-1.606,0.814-2.465,2.288-2.948
		c-1.474-0.484-2.288-1.343-2.288-2.949c0-0.462,0.066-1.188,0.066-1.628c0-1.188-0.286-1.805-1.958-2.398
		c-0.33-0.11-0.793-0.462-0.793-1.122c0-0.814,0.683-1.342,1.541-1.145C304.321,135.191,305.312,136.534,305.312,138.624z"/>
</g>
<rect x="433" y="159.375" fill="#F5F089" width="155" height="34.5"/>
<g>
	<path d="M444.975,173.42c0-0.546,0.442-0.988,0.988-0.988s0.988,0.442,0.988,0.988v7.67c0,0.546-0.442,0.988-0.988,0.988
		s-0.988-0.442-0.988-0.988V173.42z"/>
	<path d="M448.784,173.367c0-0.571,0.48-0.923,1.104-0.923s1.105,0.352,1.105,0.923v0.026c0,0.572-0.481,0.937-1.105,0.937
		s-1.104-0.364-1.104-0.937V173.367z M448.9,175.941c0-0.546,0.442-0.987,0.988-0.987s0.988,0.441,0.988,0.987v5.148
		c0,0.546-0.442,0.988-0.988,0.988s-0.988-0.442-0.988-0.988V175.941z"/>
	<path d="M458.118,181.259c0-0.194,0.039-0.676,0.039-0.896c0-0.924-0.364-1.262-1.054-1.313c-0.493-0.039-0.806-0.338-0.806-0.78
		c0-0.441,0.312-0.741,0.806-0.779c0.689-0.053,1.054-0.391,1.054-1.313c0-0.221-0.039-0.702-0.039-0.897
		c0-1.234,0.585-2.027,2.522-2.47c0.507-0.117,0.909,0.195,0.909,0.676c0,0.391-0.272,0.599-0.468,0.663
		c-0.988,0.352-1.157,0.715-1.157,1.417c0,0.261,0.039,0.689,0.039,0.962c0,0.949-0.48,1.456-1.352,1.742
		c0.871,0.286,1.352,0.793,1.352,1.742c0,0.273-0.039,0.702-0.039,0.962c0,0.702,0.169,1.066,1.157,1.417
		c0.195,0.065,0.468,0.273,0.468,0.663c0,0.481-0.402,0.793-0.909,0.677C458.703,183.287,458.118,182.494,458.118,181.259z"/>
	<path d="M467.243,176.722h-0.077c-0.455,0-0.819-0.351-0.819-0.806s0.364-0.819,0.819-0.819h0.077v-0.442
		c0-0.767,0.195-1.325,0.56-1.689s0.896-0.546,1.599-0.546c0.312,0,0.585,0.013,0.807,0.052c0.338,0.052,0.676,0.351,0.676,0.793
		s-0.364,0.819-0.806,0.819h-0.17c-0.455,0-0.715,0.233-0.715,0.754v0.272h0.858c0.455,0,0.819,0.352,0.819,0.807
		s-0.364,0.806-0.819,0.806h-0.832v4.368c0,0.546-0.442,0.988-0.988,0.988s-0.988-0.442-0.988-0.988V176.722z"/>
	<path d="M471.403,178.555v-0.025c0-2.003,1.612-3.628,3.783-3.628c2.158,0,3.757,1.6,3.757,3.602v0.026
		c0,2.002-1.611,3.627-3.783,3.627C473.003,182.156,471.403,180.557,471.403,178.555z M476.994,178.555v-0.025
		c0-1.027-0.741-1.925-1.834-1.925c-1.131,0-1.807,0.871-1.807,1.898v0.026c0,1.026,0.741,1.924,1.833,1.924
		C476.317,180.453,476.994,179.582,476.994,178.555z"/>
	<path d="M480.372,175.941c0-0.546,0.442-0.987,0.988-0.987s0.988,0.441,0.988,0.987v0.078c0.455-0.585,1.04-1.118,2.041-1.118
		c1.495,0,2.366,0.988,2.366,2.588v3.601c0,0.546-0.442,0.988-0.988,0.988s-0.988-0.442-0.988-0.988v-2.977
		c0-0.937-0.441-1.418-1.196-1.418c-0.754,0-1.234,0.481-1.234,1.418v2.977c0,0.546-0.442,0.988-0.988,0.988
		s-0.988-0.442-0.988-0.988V175.941z"/>
	<path d="M488.797,180.023v-3.302h-0.064c-0.469,0-0.846-0.377-0.846-0.845s0.377-0.846,0.846-0.846h0.064v-0.87
		c0-0.547,0.442-0.988,0.988-0.988s0.988,0.441,0.988,0.988v0.87h0.871c0.468,0,0.845,0.378,0.845,0.846s-0.377,0.845-0.845,0.845
		h-0.871v2.978c0,0.455,0.194,0.676,0.637,0.676c0.064,0,0.195-0.013,0.234-0.013c0.441,0,0.818,0.363,0.818,0.818
		c0,0.352-0.233,0.638-0.507,0.741c-0.364,0.144-0.702,0.195-1.131,0.195C489.616,182.117,488.797,181.636,488.797,180.023z"/>
	<path d="M493.555,177.97c0-0.52,0.429-0.949,0.949-0.949h2.262c0.52,0,0.949,0.43,0.949,0.949c0,0.521-0.43,0.949-0.949,0.949
		h-2.262C493.983,178.919,493.555,178.49,493.555,177.97z"/>
	<path d="M498.988,181.337c-0.208-0.13-0.377-0.364-0.377-0.676c0-0.442,0.338-0.78,0.78-0.78c0.143,0,0.285,0.039,0.39,0.104
		c0.663,0.416,1.326,0.624,1.885,0.624c0.572,0,0.832-0.208,0.832-0.521v-0.026c0-0.429-0.676-0.571-1.442-0.806
		c-0.976-0.286-2.08-0.741-2.08-2.093v-0.026c0-1.417,1.144-2.21,2.548-2.21c0.728,0,1.481,0.195,2.158,0.533
		c0.286,0.143,0.468,0.402,0.468,0.741c0,0.441-0.351,0.779-0.793,0.779c-0.144,0-0.234-0.025-0.364-0.091
		c-0.559-0.272-1.092-0.441-1.508-0.441c-0.481,0-0.729,0.208-0.729,0.48v0.026c0,0.39,0.663,0.571,1.417,0.832
		c0.976,0.325,2.106,0.793,2.106,2.066v0.026c0,1.547-1.157,2.249-2.665,2.249C500.756,182.13,499.833,181.883,498.988,181.337z"/>
	<path d="M505.671,173.367c0-0.571,0.48-0.923,1.104-0.923s1.105,0.352,1.105,0.923v0.026c0,0.572-0.481,0.937-1.105,0.937
		s-1.104-0.364-1.104-0.937V173.367z M505.787,175.941c0-0.546,0.442-0.987,0.988-0.987s0.988,0.441,0.988,0.987v5.148
		c0,0.546-0.442,0.988-0.988,0.988s-0.988-0.442-0.988-0.988V175.941z"/>
	<path d="M509.311,181.207v-0.039c0-0.377,0.13-0.624,0.441-0.962l3.237-3.575h-2.756c-0.442,0-0.806-0.352-0.806-0.793
		c0-0.442,0.363-0.807,0.806-0.807h4.329c0.559,0,0.962,0.325,0.962,0.794v0.038c0,0.378-0.13,0.625-0.442,0.963l-3.25,3.575h2.887
		c0.441,0,0.806,0.363,0.806,0.806S515.16,182,514.719,182h-4.446C509.713,182,509.311,181.675,509.311,181.207z"/>
	<path d="M520.047,182.156c-2.094,0-3.641-1.47-3.641-3.602v-0.025c0-1.989,1.417-3.628,3.445-3.628
		c2.327,0,3.354,1.911,3.354,3.354c0,0.572-0.403,0.949-0.924,0.949h-3.913c0.195,0.896,0.819,1.365,1.703,1.365
		c0.546,0,1.001-0.169,1.404-0.469c0.143-0.104,0.273-0.155,0.481-0.155c0.441,0,0.767,0.338,0.767,0.779
		c0,0.261-0.117,0.455-0.26,0.585C521.854,181.831,521.061,182.156,520.047,182.156z M521.32,177.97
		c-0.117-0.884-0.637-1.481-1.469-1.481c-0.819,0-1.353,0.585-1.508,1.481H521.32z"/>
	<path d="M525.753,174.954c0.65,0,1.131,0.48,1.131,1.104v0.026c0,0.624-0.48,1.104-1.131,1.104c-0.649,0-1.131-0.48-1.131-1.104
		v-0.026C524.622,175.435,525.104,174.954,525.753,174.954z M525.753,179.842c0.65,0,1.131,0.481,1.131,1.105v0.025
		c0,0.624-0.48,1.105-1.131,1.105c-0.649,0-1.131-0.481-1.131-1.105v-0.025C524.622,180.323,525.104,179.842,525.753,179.842z"/>
	<path d="M533.892,174.798l-0.702,0.182c-0.104,0.026-0.247,0.052-0.352,0.052c-0.468,0-0.871-0.39-0.871-0.857
		c0-0.403,0.261-0.741,0.663-0.858l1.287-0.377c0.377-0.104,0.663-0.169,0.937-0.169h0.025c0.547,0,0.988,0.442,0.988,0.988v7.332
		c0,0.546-0.441,0.988-0.988,0.988c-0.546,0-0.987-0.442-0.987-0.988V174.798z"/>
	<path d="M538.922,179.842c0.649,0,1.131,0.481,1.131,1.105v0.025c0,0.624-0.481,1.105-1.131,1.105c-0.65,0-1.131-0.481-1.131-1.105
		v-0.025C537.791,180.323,538.271,179.842,538.922,179.842z"/>
	<path d="M542.444,174.798l-0.702,0.182c-0.104,0.026-0.247,0.052-0.352,0.052c-0.468,0-0.871-0.39-0.871-0.857
		c0-0.403,0.261-0.741,0.663-0.858l1.287-0.377c0.377-0.104,0.663-0.169,0.937-0.169h0.025c0.547,0,0.988,0.442,0.988,0.988v7.332
		c0,0.546-0.441,0.988-0.988,0.988c-0.546,0-0.987-0.442-0.987-0.988V174.798z"/>
	<path d="M549.803,182.156c-2.094,0-3.641-1.47-3.641-3.602v-0.025c0-1.989,1.417-3.628,3.445-3.628
		c2.327,0,3.354,1.911,3.354,3.354c0,0.572-0.403,0.949-0.924,0.949h-3.913c0.195,0.896,0.819,1.365,1.703,1.365
		c0.546,0,1.001-0.169,1.404-0.469c0.143-0.104,0.273-0.155,0.481-0.155c0.441,0,0.767,0.338,0.767,0.779
		c0,0.261-0.117,0.455-0.26,0.585C551.609,181.831,550.816,182.156,549.803,182.156z M551.076,177.97
		c-0.117-0.884-0.637-1.481-1.469-1.481c-0.819,0-1.353,0.585-1.508,1.481H551.076z"/>
	<path d="M554.469,175.941c0-0.546,0.442-0.987,0.988-0.987s0.988,0.441,0.988,0.987v0.078c0.455-0.585,1.053-1.118,2.054-1.118
		c0.91,0,1.6,0.403,1.963,1.105c0.611-0.715,1.339-1.105,2.288-1.105c1.47,0,2.354,0.885,2.354,2.562v3.627
		c0,0.546-0.442,0.988-0.988,0.988s-0.988-0.442-0.988-0.988v-2.977c0-0.937-0.416-1.418-1.156-1.418
		c-0.741,0-1.196,0.481-1.196,1.418v2.977c0,0.546-0.442,0.988-0.988,0.988s-0.988-0.442-0.988-0.988v-2.977
		c0-0.937-0.416-1.418-1.157-1.418c-0.74,0-1.195,0.481-1.195,1.418v2.977c0,0.546-0.442,0.988-0.988,0.988
		s-0.988-0.442-0.988-0.988V175.941z"/>
	<path d="M566.637,183.235c0.663-0.156,1.027-0.611,1.001-1.235c-0.455-0.117-0.91-0.507-0.91-1.066v-0.025
		c0-0.611,0.429-1.066,1.079-1.066c0.729,0,1.157,0.56,1.157,1.456v0.052c0,0.949-0.286,1.651-0.768,2.133
		c-0.39,0.39-0.975,0.624-1.456,0.624c-0.351,0-0.494-0.208-0.494-0.442S566.416,183.287,566.637,183.235z M567.858,174.954
		c0.65,0,1.131,0.48,1.131,1.104v0.026c0,0.624-0.48,1.104-1.131,1.104c-0.649,0-1.131-0.48-1.131-1.104v-0.026
		C566.728,175.435,567.209,174.954,567.858,174.954z"/>
	<path d="M577.687,175.278c0,0.195-0.039,0.677-0.039,0.897c0,0.923,0.364,1.261,1.054,1.313c0.494,0.038,0.806,0.338,0.806,0.779
		c0,0.442-0.312,0.741-0.806,0.78c-0.689,0.052-1.054,0.39-1.054,1.313c0,0.221,0.039,0.702,0.039,0.896
		c0,1.235-0.585,2.028-2.521,2.471c-0.508,0.116-0.91-0.195-0.91-0.677c0-0.39,0.272-0.598,0.468-0.663
		c0.988-0.351,1.157-0.715,1.157-1.417c0-0.26-0.039-0.688-0.039-0.962c0-0.949,0.48-1.456,1.352-1.742
		c-0.871-0.286-1.352-0.793-1.352-1.742c0-0.272,0.039-0.701,0.039-0.962c0-0.702-0.169-1.065-1.157-1.417
		c-0.195-0.064-0.468-0.272-0.468-0.663c0-0.48,0.402-0.793,0.91-0.676C577.102,173.251,577.687,174.044,577.687,175.278z"/>
</g>
<rect x="59.5" y="170" fill="#F5F089" width="318" height="57"/>
<g>
	<path d="M75.996,184.746c0-0.924,0.748-1.672,1.672-1.672c0.925,0,1.673,0.748,1.673,1.672v0.154
		c0.814-1.1,1.937-1.914,3.675-1.914c2.75,0,5.368,2.156,5.368,6.095v0.044c0,3.938-2.574,6.095-5.368,6.095
		c-1.782,0-2.883-0.813-3.675-1.76v3.521c0,0.924-0.748,1.672-1.673,1.672c-0.924,0-1.672-0.748-1.672-1.672V184.746z
		 M85.039,189.125v-0.044c0-1.958-1.319-3.257-2.882-3.257s-2.86,1.299-2.86,3.257v0.044c0,1.958,1.298,3.257,2.86,3.257
		S85.039,191.105,85.039,189.125z"/>
	<path d="M90.846,184.746c0-0.924,0.748-1.672,1.672-1.672c0.925,0,1.673,0.748,1.673,1.672v0.528c0.484-1.144,1.276-2.2,2.267-2.2
		c1.034,0,1.628,0.683,1.628,1.628c0,0.881-0.572,1.408-1.254,1.562c-1.694,0.396-2.641,1.694-2.641,4.07v3.125
		c0,0.924-0.748,1.672-1.673,1.672c-0.924,0-1.672-0.748-1.672-1.672V184.746z"/>
	<path d="M105.298,195.264c-3.542,0-6.161-2.486-6.161-6.095v-0.044c0-3.366,2.398-6.139,5.831-6.139
		c3.938,0,5.677,3.234,5.677,5.677c0,0.968-0.682,1.606-1.562,1.606h-6.622c0.329,1.518,1.386,2.311,2.882,2.311
		c0.924,0,1.694-0.286,2.377-0.793c0.241-0.176,0.462-0.264,0.813-0.264c0.748,0,1.298,0.572,1.298,1.32
		c0,0.44-0.197,0.771-0.439,0.99C108.356,194.714,107.014,195.264,105.298,195.264z M107.454,188.179
		c-0.198-1.496-1.078-2.508-2.486-2.508c-1.386,0-2.288,0.99-2.553,2.508H107.454z"/>
	<path d="M122.303,193.746c0-0.33,0.065-1.145,0.065-1.519c0-1.562-0.616-2.134-1.782-2.223c-0.836-0.065-1.364-0.571-1.364-1.319
		c0-0.749,0.528-1.255,1.364-1.32c1.166-0.088,1.782-0.66,1.782-2.223c0-0.374-0.065-1.188-0.065-1.519
		c0-2.09,0.99-3.433,4.269-4.181c0.857-0.197,1.54,0.33,1.54,1.145c0,0.66-0.462,1.012-0.792,1.122
		c-1.673,0.594-1.958,1.21-1.958,2.398c0,0.44,0.065,1.166,0.065,1.628c0,1.606-0.814,2.465-2.288,2.949
		c1.474,0.483,2.288,1.342,2.288,2.948c0,0.462-0.065,1.188-0.065,1.628c0,1.188,0.285,1.805,1.958,2.398
		c0.33,0.11,0.792,0.462,0.792,1.122c0,0.814-0.683,1.342-1.54,1.145C123.293,197.179,122.303,195.836,122.303,193.746z"/>
	<path d="M137.746,186.066h-0.132c-0.771,0-1.387-0.594-1.387-1.364c0-0.77,0.616-1.386,1.387-1.386h0.132v-0.748
		c0-1.299,0.33-2.244,0.946-2.86s1.518-0.925,2.706-0.925c0.528,0,0.99,0.022,1.364,0.089c0.572,0.088,1.145,0.594,1.145,1.342
		s-0.616,1.386-1.364,1.386h-0.286c-0.771,0-1.21,0.396-1.21,1.276v0.462h1.452c0.77,0,1.386,0.595,1.386,1.364
		c0,0.771-0.616,1.364-1.386,1.364h-1.408v7.394c0,0.924-0.748,1.672-1.673,1.672c-0.924,0-1.672-0.748-1.672-1.672V186.066z"/>
	<path d="M144.785,189.169v-0.044c0-3.389,2.729-6.139,6.403-6.139c3.652,0,6.358,2.706,6.358,6.095v0.044
		c0,3.389-2.728,6.139-6.402,6.139C147.492,195.264,144.785,192.558,144.785,189.169z M154.247,189.169v-0.044
		c0-1.738-1.255-3.256-3.103-3.256c-1.914,0-3.059,1.474-3.059,3.212v0.044c0,1.738,1.254,3.257,3.103,3.257
		C153.103,192.382,154.247,190.907,154.247,189.169z"/>
	<path d="M159.965,184.746c0-0.924,0.748-1.672,1.672-1.672c0.925,0,1.673,0.748,1.673,1.672v0.133
		c0.77-0.99,1.76-1.893,3.454-1.893c2.53,0,4.005,1.672,4.005,4.379v6.095c0,0.924-0.748,1.672-1.672,1.672
		c-0.925,0-1.673-0.748-1.673-1.672v-5.039c0-1.584-0.748-2.398-2.024-2.398c-1.275,0-2.09,0.814-2.09,2.398v5.039
		c0,0.924-0.748,1.672-1.673,1.672c-0.924,0-1.672-0.748-1.672-1.672V184.746z"/>
	<path d="M174.221,191.655v-5.589h-0.109c-0.792,0-1.431-0.638-1.431-1.43s0.639-1.431,1.431-1.431h0.109v-1.474
		c0-0.925,0.748-1.673,1.673-1.673c0.924,0,1.672,0.748,1.672,1.673v1.474h1.475c0.792,0,1.43,0.639,1.43,1.431
		s-0.638,1.43-1.43,1.43h-1.475v5.039c0,0.771,0.33,1.145,1.078,1.145c0.11,0,0.33-0.022,0.396-0.022
		c0.748,0,1.386,0.616,1.386,1.387c0,0.594-0.396,1.078-0.857,1.254c-0.616,0.242-1.188,0.33-1.915,0.33
		C175.607,195.198,174.221,194.384,174.221,191.655z"/>
	<path d="M182.272,188.179c0-0.88,0.727-1.605,1.606-1.605h3.829c0.88,0,1.605,0.726,1.605,1.605c0,0.881-0.726,1.606-1.605,1.606
		h-3.829C182.999,189.785,182.272,189.06,182.272,188.179z"/>
	<path d="M191.469,193.878c-0.353-0.22-0.639-0.616-0.639-1.145c0-0.748,0.572-1.32,1.32-1.32c0.242,0,0.484,0.066,0.66,0.177
		c1.122,0.704,2.244,1.056,3.19,1.056c0.968,0,1.408-0.352,1.408-0.88v-0.044c0-0.727-1.144-0.969-2.442-1.364
		c-1.65-0.484-3.521-1.254-3.521-3.543v-0.044c0-2.398,1.937-3.74,4.312-3.74c1.232,0,2.509,0.33,3.652,0.902
		c0.484,0.242,0.793,0.682,0.793,1.254c0,0.748-0.595,1.32-1.343,1.32c-0.242,0-0.396-0.044-0.616-0.154
		c-0.946-0.462-1.848-0.748-2.552-0.748c-0.814,0-1.232,0.353-1.232,0.814v0.044c0,0.66,1.122,0.968,2.398,1.408
		c1.65,0.55,3.564,1.342,3.564,3.498v0.044c0,2.619-1.958,3.807-4.511,3.807C194.461,195.22,192.898,194.802,191.469,193.878z"/>
	<path d="M202.776,180.39c0-0.968,0.814-1.562,1.87-1.562c1.057,0,1.87,0.594,1.87,1.562v0.044c0,0.969-0.813,1.585-1.87,1.585
		c-1.056,0-1.87-0.616-1.87-1.585V180.39z M202.975,184.746c0-0.924,0.748-1.672,1.672-1.672c0.925,0,1.673,0.748,1.673,1.672v8.714
		c0,0.924-0.748,1.672-1.673,1.672c-0.924,0-1.672-0.748-1.672-1.672V184.746z"/>
	<path d="M208.936,193.658v-0.066c0-0.638,0.221-1.057,0.748-1.628l5.479-6.051h-4.665c-0.748,0-1.364-0.595-1.364-1.343
		s0.616-1.364,1.364-1.364h7.327c0.946,0,1.628,0.551,1.628,1.343v0.065c0,0.639-0.22,1.057-0.748,1.629l-5.501,6.051h4.885
		c0.748,0,1.364,0.616,1.364,1.364S218.837,195,218.089,195h-7.524C209.618,195,208.936,194.45,208.936,193.658z"/>
	<path d="M227.105,195.264c-3.542,0-6.161-2.486-6.161-6.095v-0.044c0-3.366,2.398-6.139,5.831-6.139
		c3.938,0,5.677,3.234,5.677,5.677c0,0.968-0.682,1.606-1.562,1.606h-6.622c0.33,1.518,1.386,2.311,2.882,2.311
		c0.924,0,1.694-0.286,2.376-0.793c0.242-0.176,0.463-0.264,0.814-0.264c0.748,0,1.299,0.572,1.299,1.32
		c0,0.44-0.198,0.771-0.44,0.99C230.164,194.714,228.822,195.264,227.105,195.264z M229.262,188.179
		c-0.198-1.496-1.078-2.508-2.486-2.508c-1.386,0-2.288,0.99-2.553,2.508H229.262z"/>
	<path d="M236.764,183.074c1.1,0,1.914,0.814,1.914,1.87v0.044c0,1.057-0.814,1.87-1.914,1.87c-1.101,0-1.915-0.813-1.915-1.87
		v-0.044C234.849,183.889,235.663,183.074,236.764,183.074z M236.764,191.348c1.1,0,1.914,0.813,1.914,1.87v0.044
		c0,1.057-0.814,1.87-1.914,1.87c-1.101,0-1.915-0.813-1.915-1.87v-0.044C234.849,192.161,235.663,191.348,236.764,191.348z"/>
	<path d="M247.807,187.343v-0.044c0-4.467,2.772-7.965,6.864-7.965c4.071,0,6.821,3.454,6.821,7.921v0.044
		c0,4.467-2.75,7.965-6.865,7.965C250.513,195.264,247.807,191.81,247.807,187.343z M258.016,187.343v-0.044
		c0-2.794-1.364-4.906-3.389-4.906c-2.023,0-3.344,2.046-3.344,4.862v0.044c0,2.816,1.342,4.907,3.388,4.907
		C256.718,192.206,258.016,190.138,258.016,187.343z"/>
	<path d="M265.384,191.348c1.101,0,1.914,0.813,1.914,1.87v0.044c0,1.057-0.813,1.87-1.914,1.87s-1.914-0.813-1.914-1.87v-0.044
		C263.47,192.161,264.283,191.348,265.384,191.348z"/>
	<path d="M269.52,190.775v-0.044c0-1.87,0.858-2.971,2.486-3.719c-1.188-0.726-1.958-1.716-1.958-3.366v-0.044
		c0-2.354,2.156-4.225,5.412-4.225c3.257,0,5.413,1.848,5.413,4.225v0.044c0,1.65-0.771,2.641-1.958,3.366
		c1.562,0.814,2.486,1.805,2.486,3.631v0.044c0,2.86-2.53,4.532-5.941,4.532C272.05,195.22,269.52,193.46,269.52,190.775z
		 M278.123,190.512v-0.044c0-1.188-1.122-1.893-2.663-1.893c-1.54,0-2.662,0.704-2.662,1.893v0.044c0,1.056,0.99,1.914,2.662,1.914
		C277.133,192.426,278.123,191.59,278.123,190.512z M277.66,184.021v-0.044c0-0.946-0.813-1.805-2.2-1.805
		c-1.386,0-2.2,0.836-2.2,1.782v0.044c0,1.078,0.858,1.893,2.2,1.893C276.803,185.891,277.66,185.099,277.66,184.021z"/>
	<path d="M289.475,195.264c-3.542,0-6.161-2.486-6.161-6.095v-0.044c0-3.366,2.398-6.139,5.831-6.139
		c3.938,0,5.677,3.234,5.677,5.677c0,0.968-0.682,1.606-1.562,1.606h-6.622c0.33,1.518,1.386,2.311,2.882,2.311
		c0.924,0,1.694-0.286,2.376-0.793c0.242-0.176,0.463-0.264,0.814-0.264c0.748,0,1.299,0.572,1.299,1.32
		c0,0.44-0.198,0.771-0.44,0.99C292.533,194.714,291.191,195.264,289.475,195.264z M291.631,188.179
		c-0.198-1.496-1.078-2.508-2.486-2.508c-1.386,0-2.288,0.99-2.553,2.508H291.631z"/>
	<path d="M297.371,184.746c0-0.924,0.748-1.672,1.672-1.672c0.925,0,1.673,0.748,1.673,1.672v0.133
		c0.77-0.99,1.782-1.893,3.477-1.893c1.54,0,2.706,0.682,3.322,1.87c1.034-1.21,2.267-1.87,3.873-1.87
		c2.486,0,3.982,1.496,3.982,4.335v6.139c0,0.924-0.748,1.672-1.673,1.672c-0.924,0-1.672-0.748-1.672-1.672v-5.039
		c0-1.584-0.704-2.398-1.958-2.398c-1.255,0-2.024,0.814-2.024,2.398v5.039c0,0.924-0.748,1.672-1.673,1.672
		c-0.924,0-1.672-0.748-1.672-1.672v-5.039c0-1.584-0.704-2.398-1.958-2.398c-1.255,0-2.024,0.814-2.024,2.398v5.039
		c0,0.924-0.748,1.672-1.673,1.672c-0.924,0-1.672-0.748-1.672-1.672V184.746z"/>
	<path d="M317.964,197.09c1.122-0.264,1.738-1.033,1.694-2.09c-0.771-0.198-1.541-0.858-1.541-1.805v-0.044
		c0-1.034,0.727-1.804,1.826-1.804c1.232,0,1.959,0.946,1.959,2.464v0.088c0,1.606-0.484,2.795-1.299,3.609
		c-0.66,0.659-1.649,1.056-2.464,1.056c-0.594,0-0.836-0.352-0.836-0.748S317.59,197.179,317.964,197.09z M320.032,183.074
		c1.1,0,1.914,0.814,1.914,1.87v0.044c0,1.057-0.814,1.87-1.914,1.87c-1.101,0-1.915-0.813-1.915-1.87v-0.044
		C318.117,183.889,318.932,183.074,320.032,183.074z"/>
	<path d="M336.664,183.624c0,0.33-0.066,1.145-0.066,1.519c0,1.562,0.616,2.135,1.782,2.223c0.836,0.065,1.364,0.571,1.364,1.32
		c0,0.748-0.528,1.254-1.364,1.319c-1.166,0.089-1.782,0.66-1.782,2.223c0,0.374,0.066,1.188,0.066,1.519
		c0,2.09-0.99,3.433-4.269,4.181c-0.858,0.197-1.541-0.33-1.541-1.145c0-0.66,0.463-1.012,0.792-1.122
		c1.673-0.594,1.959-1.21,1.959-2.398c0-0.44-0.066-1.166-0.066-1.628c0-1.606,0.814-2.465,2.288-2.948
		c-1.474-0.484-2.288-1.343-2.288-2.949c0-0.462,0.066-1.188,0.066-1.628c0-1.188-0.286-1.805-1.959-2.398
		c-0.329-0.11-0.792-0.462-0.792-1.122c0-0.814,0.683-1.342,1.541-1.145C335.674,180.191,336.664,181.534,336.664,183.624z"/>
</g>
</svg>
