<?xml version="1.0" encoding="utf-8"?>
<!-- Generator: Adobe Illustrator 16.0.4, SVG Export Plug-In . SVG Version: 6.00 Build 0)  -->
<!DOCTYPE svg PUBLIC "-//W3C//DTD SVG 1.1//EN" "http://www.w3.org/Graphics/SVG/1.1/DTD/svg11.dtd">
<svg version="1.1" id="Layer_1" xmlns="http://www.w3.org/2000/svg" xmlns:xlink="http://www.w3.org/1999/xlink" x="0px" y="0px"
	 width="2309.343px" height="2240.07px" viewBox="0 0 2309.343 2240.07" enable-background="new 0 0 2309.343 2240.07"
	 xml:space="preserve">
<g>
	<g>
		<path d="M1489.744,928.077l1.48-2.961l3.383-2.327h4.441l4.443,1.903l0.846-3.173l0.848-5.075l3.596-1.693l30.033,4.653
			l5.498,5.499l1.693,5.077c0,0,4.23,2.96,4.652,4.862c0.424,1.905-1.059,6.56-1.059,6.56l-3.385,15.65l-2.326,12.27v8.882
			l2.75,8.458l4.865,7.827l3.662,4.142l7.123-5.199l1.27,5.5l11.848,12.69l13.959,14.805c0,0,6.342,9.732,6.768,10.999
			c0.424,1.27,2.959,11.422,2.959,11.422l15.23,16.074l4.652,13.115l6.346,6.343l7.615,11.423l11.846,13.959l13.111,20.73
			l15.652,16.92l12.268,18.611l13.113,8.883l17.768,13.115l16.074,1.27c0,0,13.111,2.959,15.65,2.535
			c2.537-0.422,10.576,6.77,10.576,6.77l7.189,6.77l3.807-1.271l0.846-5.074h5.502l-0.848-9.729l2.961-19.039l8.885,1.693
			l3.807-0.422l2.113-12.27l8.039-24.535l17.344-19.458l27.498-19.883l19.033-7.614l17.771-0.847l14.803,2.114l15.652,9.73
			l10.998,13.114l7.193,16.921l2.113,24.535l-2.113,20.725l-8.883,19.887l-13.117,19.457l-17.342,12.268l-6.346,1.689l5.924,2.541
			l8.883-2.541l10.998-2.537l8.461,2.537l14.381,2.963l10.998,3.807l13.541-2.117l11.42-8.883l20.727-3.807l21.152-13.111h6.346
			l7.613-4.654l14.807-1.691l25.379-13.115c0,0,16.498-0.844,18.191-1.691c1.691-0.846,9.729-9.729,9.729-9.729l9.73-1.691
			l10.576-8.883l18.611-9.307l2.537-6.77l19.035-10.998l24.959-17.345l15.652-13.111l2.537,2.538l4.654,3.384l11.842-9.305
			l9.73-5.078l5.076-6.346l13.113-14.807l9.309-8.459l8.883-3.385l8.459-3.386l7.191-6.764l7.615-4.233l6.344,0.846l1.27,6.771
			l5.924,2.114l10.576,2.963l1.268,12.688l-8.035,2.962l1.689,5.5l-0.422,8.884l-6.346,3.809l-1.691,10.997l-5.5,2.963l-2.961,8.458
			l-2.537,1.693l-4.229,3.383l-11,1.271l-21.576,6.768l-12.266,4.654l-13.113,8.035l3.809,11.846l0.846,11.422l-7.191,17.768
			l-8.461,2.537l-8.035,7.191h-8.461l-13.113,8.459c0,0-13.537,5.924-13.959,7.191c-0.426,1.271-18.191,13.959-18.191,13.959
			l-9.305,10.152l-14.807,3.807l-8.039,9.73l-24.957,12.689l-11.844,12.27l-18.613,6.768l-10.154,12.268l-19.033,13.113
			l-2.113,4.654l-8.887,5.498l-17.342,7.189c0,0-11.846,2.961-14.805,2.961c-2.963,0-9.732,4.654-9.732,4.654l-19.457,4.654
			l-11,4.229l-10.152,5.922l-13.113,3.809l-6.77,8.461l-8.885,5.078l-2.959,4.65l-4.23,15.229l-7.615,13.537l-8.883,16.922
			l-8.461,23.268l-20.727,43.146l-9.73,19.459l-16.92,19.459l-5.078,1.27l-8.459,5.5v9.303l-2.115,24.115l-7.613,29.611
			l-1.693,3.383c0,0-1.27,6.346-1.27,7.615c0,1.268-3.807,9.307-3.807,9.307l1.27,7.613l2.539,7.189l-2.959,5.926v10.15
			l2.959,13.113l2.539,9.732v7.188l2.113,7.617l1.693,10.574c0,0,3.385,12.27,3.385,13.537c0,1.27,2.113,15.652,2.537,19.459
			c0.424,3.809-1.693,5.498-1.693,9.73c0,4.229,1.271,11.844,1.271,11.844l0.422,6.77l0.846,13.959l4.656,11.418l-2.963,13.537
			l8.461,22.422l3.383,35.957l3.809,7.189c0,0,9.305,15.652,9.305,16.922c0,1.268,1.693,13.537,1.693,13.537
			s9.309,14.383,9.727,16.072c0.426,1.691,2.541,6.77,2.541,6.77l4.654,4.23l3.807,6.768l0.42,11.846l8.463,6.77l1.27,8.037
			l8.883,11.42l16.922,35.959l19.883,43.994l12.688,33.418l16.076,28.764l5.5,11.846l0.422,16.074l-3.383,16.074l-3.383,42.303
			l-2.117,8.885c0,0,6.346,14.807,6.346,16.074c0,1.27,2.115,13.113,2.115,13.113l-3.807,1.27l-6.346,1.691l-11.426,6.768
			c0,0-12.264,1.693-14.379,1.693s-63.031,2.115-63.031,2.115l-2.537-10.576v-9.73l4.65-9.307l8.883-23.266l-1.691-9.305
			c0,0-8.883-16.5-8.883-17.77c0-1.271-1.268-13.111-1.268-13.111s1.268-7.615,1.268-8.885c0-1.268,0-7.615,0-9.305
			c0-1.691-8.035-9.732-8.035-9.732l-2.539-21.572l-4.229-36.381l-7.617-16.072l-9.305-20.307l-13.537-38.496l-11-13.959
			l-19.879-29.609l-8.037-9.307l-2.117-14.383l-14.807-31.727l-16.496-41.033l-18.189-44.416l2.113,41.455l4.232,2.961l7.191,8.883
			c0,0,3.807,7.617,3.807,8.885c0,1.271,0.422,13.535,0.422,13.535s2.115,9.309,3.809,12.268c1.691,2.963,4.23,13.539,4.23,13.539
			l0.846,8.037l2.113,5.076v5.498l1.693,13.959c0,0,4.654,11.42,4.654,13.961c0,2.537,3.383,10.576,3.383,10.576v4.652l4.229,11.844
			l2.961,15.652l17.344,54.568l15.654,47.799l1.691,14.809l-7.193,13.537l2.539,13.537l-2.115,8.033l3.387,24.111l-1.693,5.926
			l-1.693,4.65l3.809,11.424v17.77c0,0-95.602,6.766-97.719,6.766c-2.113,0-22.418,6.77-22.418,6.77l-22.42,4.23l-20.727,2.113
			l-21.152-2.961l-14.383-8.885v-8.883l6.346-11.422l10.574-7.613l9.309-5.074l9.309-1.271l13.535-4.229l38.07-31.303l8.037-22
			l5.076-8.459l-3.383-2.537l-6.346-8.463l1.689-19.033l8.463-27.074l-29.611-90.104l-8.885-17.344l-10.15-10.152l1.689-22.42
			l-6.768-5.498l-10.576-26.652l-6.768-27.496l-2.963-35.531l-13.111-47.801l-6.771-25.805l-8.459-19.459l-2.115-50.338l1.27-37.229
			l4.654-42.301v-28.34l-20.729-14.807l-2.539-6.348l3.385-10.998v-8.885v-11.844l4.65-7.613l0.848-13.113
			c0,0,2.537-6.346,3.807-16.92c1.268-10.576,11.846-41.033,11.846-41.033l4.652-8.885l8.037-10.574l10.152-8.461
			c0,0,3.807-5.498,4.23-10.576c0.42-5.078,10.998-19.881,10.998-19.881l3.385-19.885l12.691-46.107l3.807-17.342
			c0,0-3.807-9.307-5.076-10.152s-5.922-8.885-5.922-10.576c0-1.689-0.848-7.615-0.848-7.615l-7.191-8.459l-5.498-13.961
			l-13.539-22.42l-15.65-24.957l-14.807-22.844l-5.924-14.381l-16.496-24.537l-13.959-20.729l-6.766-18.61l-13.959-31.305
			l-11.422-16.073l1.27-15.651c0,0,3.836-8.739,6.213-14.268l-11.293-26.342l-5.287-5.923l-2.959-9.519l-4.654-7.19l-5.922-10.787
			l-2.328-9.31l-4.441-10.149c0,0-1.691-4.021-2.539-4.229c-0.844-0.214-3.17-5.077-3.17-5.077L1489.744,928.077z"/>
		<path fill="#B62B26" d="M1791.146,1171.525l-3.807,0.422l-8.885-1.693l-2.961,19.039l0.848,9.727h-5.502l-0.846,5.076
			l-3.807,1.271l-7.189-6.77c0,0-8.039-7.191-10.576-6.77c-2.539,0.424-15.65-2.535-15.65-2.535l-16.074-1.27l-17.768-13.115
			l-13.111-8.883l-12.27-18.611l-15.652-16.92l-13.111-20.73l-11.846-13.959l-7.615-11.423l-6.346-6.343l-4.652-13.115
			l-15.23-16.074c0,0-2.535-10.152-2.959-11.422c-0.424-1.267-6.768-10.999-6.768-10.999l-13.959-14.805l-11.846-12.691l-1.271-5.5
			l-7.123,5.2l-23.041,21.99c-2.377,5.527-6.213,14.267-6.213,14.267l-1.27,15.652l11.422,16.073l13.959,31.305l6.766,18.61
			l13.959,20.729l16.498,24.537l5.922,14.381l14.809,22.842l15.65,24.959l13.537,22.42l5.5,13.961l7.189,8.459
			c0,0,0.848,5.924,0.848,7.613c0,1.693,4.652,9.732,5.922,10.576c1.27,0.848,5.078,10.154,5.078,10.154l-3.809,17.342
			l-12.691,46.107l-3.385,19.885c0,0-10.578,14.803-10.998,19.881c-0.424,5.078-4.229,10.576-4.229,10.576l-10.154,8.461
			l-8.035,10.574l-4.654,8.885c0,0-10.576,30.457-11.846,41.033c-1.268,10.574-3.807,16.92-3.807,16.92l-0.848,13.113l-4.648,7.613
			v11.844v8.885l-3.385,10.998l2.537,6.348l21.152,15.229l6.766-29.613l19.037,0.424l27.072,5.076l36.803,4.654l5.922-1.27
			l9.729,3.807l87.564,46.109l4.232,10.152c0,0,3.807-8.039,3.807-9.309c0-1.268,1.268-7.613,1.268-7.613l1.693-3.383l7.615-29.611
			l2.115-24.115v-9.303l8.459-5.5l5.076-1.27l16.922-19.459l9.729-19.459l20.729-43.146l8.461-23.27l8.883-16.922l7.615-13.535
			l4.229-15.229l2.959-4.65l8.885-5.08l6.771-8.461l13.113-3.807l10.15-5.922l11-4.23l19.457-4.652c0,0,6.771-4.654,9.732-4.654
			s14.805-2.961,14.805-2.961l17.344-7.189l8.887-5.5l2.113-4.652l19.031-13.113l10.156-12.268l18.613-6.768l11.842-12.27
			l24.957-12.691l8.041-9.729l14.805-3.807l9.307-10.152c0,0,17.766-12.689,18.189-13.959c0.424-1.268,13.959-7.191,13.959-7.191
			l13.115-8.459h8.461l8.035-7.191l8.461-2.539l7.189-17.768l-0.844-11.42l-3.809-11.846l-16.074,14.383l-8.039-24.537v-13.957
			v-3.385l5.502-5.498l-4.654-3.384l-2.537-2.538l-15.652,13.11l-24.959,17.345l-19.035,10.998l-2.539,6.77l-18.609,9.307
			l-10.576,8.883l-9.73,1.691c0,0-8.035,8.883-9.729,9.73c-1.693,0.846-18.191,1.689-18.191,1.689l-25.381,13.115l-14.805,1.693
			l-7.615,4.652h-6.344l-21.152,13.111l-20.727,3.807l-11.42,8.885l-13.541,2.115l-10.998-3.807l-14.381-2.963l-8.461-2.537
			l-10.998,2.537l-8.885,2.541l-5.922-2.541l-21.148-19.457l-4.23-3.385l-3.809,1.693l-55.838,25.803l-11.422-20.307
			c0,0-5.5-9.303-5.924-13.111c-0.422-3.807,2.963-12.266,2.963-12.266L1791.146,1171.525z"/>
		<path fill="#B62B26" d="M1949.566,2185.712l-23.9-14.383l-13.535-5.924l-9.939-2.75l-8.465,1.271l-7.188,2.535l-10.576,6.346
			l-7.828,11.213l-1.691,2.959l-3.385,10.574l-4.018,7.191l-3.596,8.039l-1.059,6.768l0.422,8.461l1.691,9.307l3.598,2.328
			l28.342,0.422c0,0,29.398-1.059,30.244-1.271s14.807-3.383,14.807-3.383l8.672-4.02c0,0,7.617-4.865,8.672-4.865
			c1.057,0,5.287-1.268,5.287-1.268s0.424-3.174,0.424-4.018c0-0.543-2.033-10.914-4.654-18.404c-1.48-4.23-4.229-7.613-4.229-7.613
			L1949.566,2185.712z"/>
		<path fill="#B62B26" d="M1796.222,2173.515l-12.973,3.102l-16.359,0.562l-17.766-2.818l-16.074-5.359l-23.688-10.436
			l-17.768-8.461l-4.795-5.355l-12.127,9.309l-11.842,9.586l-14.666,11.566l-11.846,3.943l-11.562,1.695l-13.818,7.896l-7.895,6.484
			l-4.514,8.461l1.412,10.434l9.871,9.023c0,0,17.766,3.949,18.611,3.949c0.844,0,22.559-1.129,22.559-1.129l20.873-1.973
			l15.508-5.924l11.846-4.229l25.381-1.693l25.381,0.844l20.869-2.254l18.332-2.82l11.844-1.127l-1.408-19.459l-2.822-9.871
			L1796.222,2173.515z"/>
	</g>
	<path d="M1527.74,1025.78l0.174-14.381l-0.898-25.63l1.096-31.735l-0.314-26.729l-0.145-23.145l0.082-24.355l0.234-19.6l0.762-0.21
		c0.064-9.753,0.682-19.215,0.434-24.99c-0.014-0.312-0.025-0.627-0.039-0.942l0.482-3.072l-0.623-0.174
		c-1.232-28.729-2.469-57.455-3.699-86.183c-0.334-7.758,3.678-13.688,4.742-20.155c1.816-11.039-5.492-19.15-6.057-29.623
		c-0.014,0.549-0.033,1.099-0.047,1.647c0.014-0.597,0.027-1.191,0.041-1.788c-0.049-1.076-0.027-2.178,0.082-3.311
		c2.094-86.7,4.188-173.397,6.283-260.097c0.857-35.553,1.717-71.104,2.576-106.656c0.076-3.131-13.471-4.05-16.852-4.097
		c-12.391-0.176,4.906-8.15,5.949-9.854c10.551-17.229-14.139-20.647-19.307-33.945c-5.09,7.078-15.58,10.95-20.836,18.06
		c-8.104,10.961,4.238,12.018,6.957,18.571c1.949,4.701,0.793,11.294,1.018,17.203c0.533,13.991,1.318,27.897,2.432,41.868
		c1.893,23.707-0.262,47.79,0.949,71.584c1.152,22.611,5.953,45.328,6.465,67.863c1.137,49.499,1.045,99.08,4.027,148.543
		c0.799,13.254,1.586,26.305,1.137,39.562c-0.244,7.301-11.07,20.798-2.189,26.849c13.34,9.087,4.6,48.659,5.465,63.376
		c1.029,17.518,1.564,35.027,2.045,52.541l-0.836,13.213l-0.602,26.118l1.059,18.3l0.162,16.091l-0.334,21.711l0.391,20.335
		l0.273,24.471l-1.184,27.216l1.488,12.021l-4.748,92.495l0.445,4.631l2.947,14.733l0.01,10.912l0.006,28.875l-0.09,18.9
		l0.273,24.471l-0.684,27.053l-0.277,16.918l0.271,24.467l0.045,2.26l1.104,2.598l0.465,3.035l2.684,1.174l15.217-0.625l1.324-4.064
		l-1.104-2.6l-0.166-21.547l0.023-19.562l0.854-23.467l1.08-1.262"/>
	<polygon points="1930.625,744.476 1632.931,742.475 1531.82,734.953 1467.367,736.589 1329.052,735.708 1148.404,728.371 
		1138.986,717.706 1138.584,706.694 1148.95,364.602 1149.867,308.452 1152.137,288.325 1161.88,280.945 1171.628,273.573 
		1351.796,267.894 1507.16,269.153 1645.482,270.043 1778.687,268.103 1909.925,267.248 1918.968,267.91 1935.427,279.324 
		1938.539,390.448 1937.914,481.65 1943.449,684.872 1941.857,723.01 	"/>
</g>
<g>
	<polygon points="127.716,601.62 379.974,520.793 463.837,487.528 519.003,471.787 636.221,434.274 787.669,380.028 
		792.833,368.467 790.248,359.008 690.515,71.271 674.809,23.836 667.534,7.347 657.297,3.669 647.062,0 492.558,43.069 
		360.964,85.434 243.743,122.955 130.114,156.716 18.444,190.872 10.941,193.838 0,207.906 26.892,303.095 51.667,380.376 
		100.985,554.415 112.476,586.378 	"/>
	<path d="M1303.132,2205.589l-8.176-12.084l-8.176-6.396l-9.242-3.91l-8.529-2.846l-9.598-4.977l-9.598-8.529l-12.441-12.439
		l-7.463-10.309l-6.041-8.176l-1.779-5.33l3.912-3.201l6.041-4.266l6.398-2.842l-1.779-5.688l-2.844-3.559h-5.686l-9.953,3.559
		l-7.82,3.91l-3.197,1.064l-6.043-0.711l-6.4-11.729l-4.975-13.863l-3.555-12.086l-1.777-12.439l-2.131-8.529l-1.422-4.623
		l1.066-3.553l1.064-3.197v-14.221l-1.064-19.549l-0.355-24.172l-0.355-3.553l-4.621,0.711l-2.844-2.133l-2.133-4.977l-3.199-22.746
		l-0.711-17.064l-2.133-13.504l0.355-15.996l0.354-13.15l1.068-13.506l-5.689-8.889c0,0-6.396-11.375-7.817-11.375
		c-1.422,0-2.845-1.777-2.845-1.777l1.065-13.154v-12.434l2.135-0.359l2.131,1.779l-1.066-3.557l-1.777-1.773v-11.021l1.065-2.49
		l2.489-4.973l-1.777-4.979l-1.42-3.199l1.067-1.777l4.976,1.422l-1.424-2.844l-4.263-2.844l-8.533-2.488l-2.131-1.777
		l-2.133-45.141l-1.421-24.527l0.711-10.307l0.71-19.904l0.354-14.219l-1.775-20.615l-4.979-17.061v-4.266l4.269-1.422l3.197-3.91
		l2.844-2.846l5.687-2.129l3.2-0.355l1.775-2.488l3.912-0.711l6.396-1.066l5.688-4.266l3.908-3.199l3.557-2.131l0.355-10.311
		l-2.133-11.02l-2.131-14.217l-2.488-3.553l-1.777-9.24l0.355-14.219l-1.422-13.506l-3.555-8.531l-3.557-11.73l-5.332-33.41
		l-3.909-29.15l-4.622-19.191l-8.887-30.922l-3.554-18.482l-3.198-12.088l-1.422-6.752l-6.755-12.084l-6.041-16.707l-5.332-22.748
		l-3.198-18.127l-2.845-11.73l-7.108-12.441l-1.777-8.174l-1.776-15.994l-1.421-16.705l-1.423-8.176v-6.043l2.487-1.066l2.489-2.49
		l-3.91-9.238l-4.976-10.309l-3.199-7.822l-1.779-4.973l-8.885-8.178l-13.152-8.885l-17.771-7.818l-16.351-7.111l-11.375-7.105
		l-6.753-3.559l-9.951-3.553l-9.598-3.555l-2.845-3.197l-0.711-12.086l1.778-1.781h4.977l3.555-1.772h3.909l1.422-4.269l1.777-2.13
		l1.777-2.843l2.843-0.711l5.331-1.778l4.623-7.463l1.064-6.042l-0.712-3.912l-0.708-3.909l-1.069-3.911l-0.354-5.329l1.425-4.978
		l3.197-1.066l0.71-5.332l1.068-4.267l1.419-3.555l1.422-2.843l0.354-4.268l0.712-6.042l1.422-3.91l4.977-7.109v-6.754l-1.777-8.883
		l-3.198-7.464l-2.488-6.045l1.423-2.486l-3.2-1.777l-2.133-3.911l-1.775-7.819v-2.844l-3.201-2.842l-3.907-3.91l-2.133-4.979
		l-2.489-2.845h-3.554l-4.976-1.774l-2.488-4.266l-4.978-4.265l-5.687-2.133l-6.754-2.134l-4.621-2.842l-5.688-3.2l-4.621-3.908
		l-7.817-4.979l-7.82-3.554l-5.332-0.71h-8.531l-4.265,3.198l-1.422,4.266l-4.977,0.71l-4.978,4.622l-7.464,7.463l-2.487,4.977
		l-2.134,3.554l-1.064,4.623l-0.711,3.554l-5.688,3.555l-4.978,5.328l-5.331,5.335l0.354,6.041l0.711,2.135l-0.711,1.422
		l-1.777,0.71l0.711,1.774h1.423l0.354,4.979l-1.065,2.487c0,0-3.201,0.71-3.201,1.773c0,1.07,0,3.557,0,3.557l1.777-2.131
		l2.489-1.064l0.71,4.977v5.331l0.71,6.396v4.978h-3.554l-3.554-4.268l-1.778-3.553l-0.711,2.488l2.846,6.396l3.553,3.199
		l3.909,2.132l-0.711,3.911l-6.042,4.62l-1.776-1.064l-2.844-2.846l1.422,4.979l2.844,1.777v1.423l-0.71,6.04l3.198,4.266
		l4.267,0.355l-2.132-7.819l2.486-2.488c0,0,2.134,1.421,2.134,2.488s1.065,4.267,1.065,4.267l0.356,4.62l0.71,5.333l-0.356,4.264
		l-1.419,2.844l2.842,2.133l0.711,3.909l3.556,1.065l3.199,1.422l2.131,2.132l1.067,3.911c0,0,0,4.268,0,6.397
		c0,2.132-0.709,4.978-0.709,4.978h-4.978l-4.267-4.271l-4.265-6.395l-7.109-3.555l-5.332-5.688l-11.018-11.373l-10.664-11.729
		l-3.553-2.135l-3.912-1.422l-3.909-2.132l-18.838-13.506l-13.152-8.887l-9.241-12.084l-13.861-14.573l-14.219-17.062l-9.953-11.729
		l-9.241-11.018l-11.729-6.755l-10.663-7.816l-7.82-8.889l-7.464-9.241l-6.042-9.241l-7.464-13.509l-6.045-10.307l-8.173-8.884
		l-6.399-8.889l-7.108-7.464l-11.019-9.951l-7.465-8.891l-8.528-9.594l-10.31-13.151l-7.108-10.663l-6.043-9.598l-3.909-7.464
		l-3.911-6.401l-4.265-9.236l-4.266-9.599l-3.199-4.977l1.066-6.043l-1.776-7.106l-2.133-6.045l-6.754-6.396l-2.488-5.688
		l-2.133-4.622l-2.489-2.842l-5.685-5.688l-5.687-6.042l-3.558-6.042l-5.332-6.043l-3.553-3.909l-2.489-2.133l-2.486-2.131
		l-1.066-2.847l-3.198,0.357h-2.489l-2.132-1.068l-6.397-15.993l-12.441-28.079L527.2,616.048l-12.438-29.502l-10.664-25.592
		l-11.019-27.011l-10.665-26.66l-7.108-17.772l-2.843-10.309l-18.481,0.712l4.62,12.085l7.82,22.038l11.373,29.146l9.241,19.906
		l7.465,17.769l9.598,24.171l9.597,22.394l11.375,27.016l11.375,30.568l6.751,12.794l-1.42,3.199l-3.557,1.778l-2.132,6.752
		l-1.066,4.978l-0.712,5.332l3.91,2.132l2.488,6.042l1.067,3.199l3.909,5.33l1.777,1.779l1.064,2.131v2.485l-1.421,4.625
		l-0.711,4.62v6.397l0.711,6.755c0,0,3.555,6.397,3.909,7.463c0.356,1.064,7.11,8.174,7.11,8.174l3.908,6.043l3.201,4.62
		l8.175,7.109l6.042,3.91l1.775-0.71l2.489,4.976l9.243,15.283l4.976,12.088l13.15,31.988l8.529,20.972l11.375,27.013l11.729,30.212
		l7.465,18.839l11.375,27.015l1.065,2.485l2.132,2.489l1.778,3.199l2.844,0.356l2.132,3.554h1.422l-0.354-5.332l1.778-1.067h1.775
		l1.422,1.42l1.421,2.136h1.777l-0.356-3.556v-2.486l1.778-0.713l-0.712-4.976l-2.132-2.488l-9.953-23.814l-8.887-21.683
		l-9.951-26.301l0.354-1.777l9.953,12.795l9.952,12.439l9.953,11.373l7.465,8.887l5.687,7.466l3.198,7.108l4.978,2.489l4.976,6.043
		l8.53,14.572l16.35,22.393l17.062,27.013l11.02,17.062l8.887,14.573l9.598,13.152l9.598,12.44l8.53,9.595l8.884,8.887l4.977,6.753
		l1.777,4.621l0.713,6.398v7.463l2.486,3.555l2.133,1.777l2.846,7.82l2.842,13.15l4.621,23.105l3.91,17.771l4.977,24.525
		l4.266,21.326l3.2,15.283l2.131,13.152l1.777,8.174v6.756l-3.555,17.418l-1.421,9.24c0,0-2.489,12.439-2.846,13.504
		c-0.354,1.068-1.776,10.662-1.776,10.662l-1.42,9.955l0.354,8.887l2.489,1.422l4.62,1.066h3.2l-0.713,6.396l0.356,9.598
		l0.354,4.264l6.755,7.109l2.486,1.068v11.729l-1.777,1.775l-2.845,2.133l-1.775,2.137l0.711,3.197l-2.132,7.465v4.975l-0.354,8.531
		l-1.779,1.066l-1.422,2.842v4.266l-1.065,4.979l-2.487,7.109l-1.778,2.844c0,0-1.063,0-1.063,1.422c0,1.42-0.712,8.887-0.712,8.887
		l-0.711,4.619l1.423,4.975v4.621l-1.423,6.4l0.354,4.619l-6.041,13.506l-0.356,2.133l-0.71,2.844c0,0-0.713,2.488-1.066,3.912
		c-0.356,1.42-5.332,9.596-5.332,9.596l-1.066,6.398l-2.486,11.729l-3.91,11.018l-2.488,8.531l-3.554,6.754l-2.845,7.818v4.621
		c0,0,0.355,3.199,0.355,4.268c0,1.064-0.355,8.885-0.355,8.885l-1.777,10.662l-3.554,21.324l-3.556,18.844l-1.776,19.191
		l-0.355,14.219l-2.488,14.57c0,0-4.266,12.441-4.266,14.574c0,2.135-0.354,12.088-0.354,13.508s0,24.525,0,24.525l-9.599,24.525
		l-3.2,11.73l-5.331,16.35c0,0-4.265,8.174-4.621,9.242c-0.355,1.066-3.198,10.662-3.198,10.662l-2.844,9.242l-1.775,8.176
		l-2.134,4.621l-3.91,3.91l-4.622,10.307l-2.487,13.508l-1.421,10.664l-0.712,4.619l-1.776,1.779l-1.422,4.264l-1.421,10.307
		l-3.2,8.176l-2.134,9.6l-2.131,13.148l-2.845,9.955l-1.42,6.752l-1.423,5.332l-1.777,2.133l-4.621,1.064l-4.976,1.779l-1.066,2.842
		l0.712,7.465v8.531l-0.712,7.818l-4.264,10.307l-3.556,8.176c0,0-0.711,4.977-0.355,6.4c0.355,1.42,4.267,7.816,4.267,7.816
		l6.042,7.467l4.265,3.912l1.422,2.842l-3.2,8.527l-3.554,8.18l-2.488,4.264l-2.132,1.422v7.82l1.779,7.818l-1.068,2.846
		l-1.777,1.064l-0.355,2.844l-3.555,3.197l1.424,3.201l0.71,5.686l-2.843,7.109l-2.489,6.754v8.887l-0.709,6.395l-0.358,4.268
		l-3.554,3.91l-8.174,4.977c0,0-2.133,2.133-3.2,3.199c-1.064,1.066-7.464,7.107-7.464,7.107l-4.265,2.844l-2.488,1.777
		l-2.488,3.908l1.421,1.066l1.777,0.711l-2.133,5.688c0,0,0,4.621-0.711,6.043c-0.71,1.422-3.909,9.24-3.909,9.24s0,5.688,0,6.756
		c0,1.064,0.354,6.396,0.354,6.396l-0.71,5.688l-0.12,1.07l3.319,9.236v2.846l-0.354,9.24l2.486,6.398l6.042,4.977l9.241,2.486
		l8.886,0.711l17.063,1.779l13.505-0.355l12.795-0.711l11.375-3.91l3.91-6.043l1.422-5.688l1.42-3.555l3.555-8.889l1.421-11.018
		l-1.063-11.018l1.775-11.375l0.711-15.641l-1.423-4.977l-2.131-4.266l-3.556-5.334l-2.488-5.33l0.71-7.818l-0.354-10.662
		l1.066-10.309l0.71-6.043l2.132-3.555l4.62-2.133l-0.354-5.688v-4.266l0.354-2.488l3.91-3.197l-0.354-6.754l-1.778-2.49
		l-0.354-2.842l5.687-14.572l1.067-1.779h10.664l15.639-0.355l7.109-2.486l8.53-0.355l7.463-1.422l8.176-11.02l1.066-6.043
		l1.421-14.926l-0.354-18.84l-1.421-11.02l-3.554-2.133l0.354-4.619l3.91-25.236l1.778-10.307l4.265-18.129l5.687-16.707
		l7.108-19.191l3.91-14.217l1.423-10.311l4.977-18.84l3.555-9.596l3.553-12.084l8.531-21.684l13.152-26.656l23.458-42.654
		l15.284-27.367l14.218-26.305l7.108-13.861l7.109-13.506l6.042-10.666l3.556-7.465l1.776-1.777l2.488-0.354l9.241,9.953
		l7.463,10.309l9.6,13.15l10.307,13.15l8.175,14.572l7.465,19.904l9.242,26.66l9.242,26.658l4.62,22.395l4.976,14.217l4.976,14.572
		l5.332,12.797l3.2,6.043l0.355,6.4l3.198,15.281l2.844,7.463l-0.355,26.658l1.776,7.82l2.49,23.104l1.064,19.193v17.062
		l-1.421,11.373l-0.355,11.021l-2.134,1.422l-1.065,6.396l1.421,12.086l1.777,14.574l0.712,9.951l1.42,16.352l-0.709,7.818
		l7.819,1.777l9.599,2.488l9.24,1.775l11.729,1.066h4.978l0.354,4.623l-0.354,5.332l1.775,4.975l-0.711,3.91l-1.063,4.977
		l2.843,6.398l0.711,4.264l1.776,1.42l1.066,6.043l0.354,11.021v3.199l-3.554,4.621l-4.264,6.752l-1.068,7.465l-1.065,8.531
		l-1.423,13.859l-1.42,15.641v17.771l4.265,7.465l8.888,1.424l14.573,4.266l17.06,3.197h10.309l14.572,1.777l17.062,4.266
		l6.752,2.842l19.195,5.334l12.084,0.355l27.727,2.486l27.369,0.711l12.439-1.775l2.131-4.979L1303.132,2205.589z
		 M1091.288,1452.052l-1.777-6.754l-1.064-2.488l-1.778-2.131l-1.422-2.49l-1.066-3.199l-0.71-5.33l-1.423-3.201l-0.354-5.332
		l-1.777-3.555l-5.333-8.887l-6.396-12.439l-3.201-4.977l-1.067-4.264c0,0,0-3.91,0.356-7.467c0.354-3.553-0.356-5.332-0.356-5.332
		l-1.774-3.199l-1.067-4.621v-10.307l-1.423-8.887l-2.131-10.662l-1.067-6.754l-2.489-8.885l-3.199-6.047l-1.064-5.33l2.843,0.355
		l2.488,1.777l3.909,5.334l3.201,5.328l1.065,4.268l2.132,8.885l3.199,11.018l2.133,8.178l1.778,12.438l2.13,6.4l1.068,9.24
		l1.775,6.756l2.134,9.238l1.064,5.689l1.422,6.041l3.199,8.887l1.068,4.979l2.842,7.818l1.779,5.686l1.064,8.178l1.067,6.043
		h-1.778V1452.052z M1131.808,1570.058l-2.842,4.621l-3.199,4.266l-1.421,1.775l-1.779-1.062l-1.421-2.133l-0.711-4.621v-8.531
		l-0.711-2.49l-1.422-3.551l-2.487-9.6l-1.423-4.975l-2.488-2.135l0.354-5.33l-1.776-6.754l-2.845-5.332c0,0-1.064-4.621-1.064-6.4
		c0-1.773-1.064-11.016-1.064-11.016l-1.067-1.42l-2.133-2.49c0,0,0-3.555,0.355-4.619c0.355-1.068-1.066-9.953-1.066-9.953
		l1.066-3.91l-0.355-4.979l2.133-3.197l1.778,0.355l1.776,1.422l2.845,5.332l3.553,6.396l4.622,9.596l3.552,10.309l3.912,11.02
		l3.198,11.02l4.266,14.219l1.42,13.15l0.356,6.754l-1.42,2.488L1131.808,1570.058z"/>
</g>
<g enable-background="new    ">
	<path fill="#E81F25" d="M156.892,348.517c-0.302-0.71,0.191-2.354,1.483-4.93c1.291-2.577,2.958-5.752,5.002-9.529
		c2.042-3.776,4.231-8.062,6.564-12.854c2.33-4.79,4.369-9.814,6.114-15.069c1.745-5.253,2.962-10.584,3.653-15.992
		c0.689-5.408,0.417-10.616-0.821-15.625c-0.708-2.274-1.967-4.116-3.774-5.527c-1.809-1.407-3.908-2.525-6.298-3.351
		c-2.392-0.826-4.994-1.361-7.809-1.613c-2.816-0.251-5.561-0.34-8.237-0.272c-2.677,0.069-5.204,0.292-7.58,0.671
		c-2.379,0.378-4.338,0.808-5.879,1.288c-0.368,0.114-0.894,0.299-1.579,0.552c-0.687,0.255-1.44,0.61-2.264,1.067
		c-0.823,0.458-1.655,0.959-2.492,1.5c-0.838,0.545-1.555,1.15-2.151,1.817l25.915,65.355c0.618,0.694,0.873,1.581,0.768,2.659
		c-0.106,1.08-0.442,2.07-1.007,2.97c-0.564,0.901-1.282,1.508-2.151,1.817c-0.869,0.313-1.722,0.035-2.554-0.833l-26.759-66.904
		c-0.174,0.218-0.528,0.568-1.061,1.055c-0.532,0.489-1.078,1.001-1.635,1.537c-0.557,0.535-1.079,1.061-1.562,1.574
		c-0.485,0.513-0.824,0.842-1.022,0.981c-0.073,0.023-0.197,0.082-0.368,0.176c-0.172,0.096-0.296,0.152-0.368,0.175
		c-0.44,0.137-0.97,0.181-1.589,0.133c-0.619-0.049-1.042-0.439-1.271-1.175c-0.388-1.247-0.428-2.343-0.118-3.284
		c0.31-0.942,0.784-1.875,1.423-2.798c0.637-0.923,1.355-1.851,2.152-2.784c0.797-0.931,1.457-2.043,1.98-3.334
		c0.523-1.29,0.821-2.793,0.891-4.505c0.071-1.713-0.271-3.78-1.026-6.202c1.613-0.502,2.715-0.523,3.302-0.062
		c0.585,0.462,1.036,1.066,1.35,1.812c0.312,0.749,0.662,1.484,1.051,2.21c0.386,0.725,1.149,1.111,2.293,1.157
		c2.205-0.928,4.972-1.87,8.297-2.826c3.326-0.955,6.889-1.663,10.691-2.124c3.801-0.458,7.653-0.631,11.553-0.519
		c3.9,0.113,7.564,0.766,10.993,1.949c3.43,1.188,6.402,2.979,8.92,5.374c2.518,2.398,4.273,5.574,5.265,9.531
		c1.286,6.202,1.557,12.497,0.812,18.89c-0.747,6.392-2.224,12.829-4.43,19.312c-2.207,6.485-5.059,13.031-8.557,19.635
		c-3.498,6.605-7.343,13.258-11.535,19.958c-0.074,0.023-0.199,0.08-0.369,0.175c-0.173,0.094-0.296,0.152-0.368,0.175
		c-0.734,0.229-1.5-0.096-2.296-0.976C157.632,350.059,157.121,349.252,156.892,348.517z"/>
	<path fill="#E81F25" d="M201.666,308.484c-2.955-9.225-4.623-17.942-5.008-26.155c-0.385-8.214,0.156-15.647,1.626-22.307
		c1.468-6.656,3.659-12.35,6.574-17.084c2.913-4.729,6.203-8.191,9.869-10.381c3.666-2.187,7.523-2.986,11.572-2.396
		c4.049,0.592,7.905,2.893,11.57,6.902c3.285,3.566,6.157,8.006,8.617,13.317c2.46,5.313,4.371,10.998,5.735,17.054
		c1.363,6.058,2.093,12.211,2.188,18.46c0.095,6.251-0.581,12.158-2.028,17.722c-1.448,5.564-3.715,10.498-6.802,14.799
		c-3.088,4.304-7.157,7.525-12.208,9.66c-4.042,1.501-7.822,1.772-11.339,0.815c-3.52-0.956-6.654-2.557-9.406-4.8
		c-2.751-2.241-5.084-4.817-6.995-7.724C203.718,313.46,202.397,310.833,201.666,308.484z M208.406,247.932
		c-0.929,1.417-1.762,3.649-2.503,6.697c-0.74,3.051-1.292,6.582-1.65,10.598c-0.36,4.02-0.493,8.307-0.4,12.867
		c0.091,4.56,0.452,9.079,1.081,13.551c0.628,4.476,1.59,8.725,2.885,12.749c1.293,4.025,3,7.499,5.118,10.422
		s4.652,5.113,7.602,6.568c2.948,1.457,6.412,1.848,10.389,1.172c3.049-0.546,5.707-2.421,7.971-5.623
		c2.264-3.199,4.037-7.134,5.321-11.802c1.282-4.666,2.089-9.769,2.417-15.307c0.328-5.537,0.167-10.9-0.484-16.092
		c-0.639-4.632-1.613-9.057-2.929-13.278c-1.314-4.22-2.925-7.966-4.828-11.236c-1.906-3.271-4.028-5.95-6.369-8.04
		c-2.342-2.088-4.822-3.329-7.439-3.721c-2.619-0.393-5.304,0.224-8.06,1.846C213.772,240.927,211.064,243.803,208.406,247.932z"/>
	<path fill="#E81F25" d="M243.581,226.709c-0.343-1.101-0.387-1.951-0.132-2.556c0.254-0.603,0.677-1.056,1.267-1.36
		c0.588-0.304,1.254-0.491,1.999-0.562c0.742-0.069,1.441-0.087,2.098-0.05l45.67,78.766c0.201-0.384,0.372-1.967,0.513-4.749
		c0.14-2.78,0.227-6.249,0.26-10.408c0.034-4.155,0.063-8.774,0.092-13.855c0.027-5.08,0.031-10.174,0.011-15.28
		c-0.021-5.106-0.06-9.945-0.115-14.518c-0.056-4.571-0.1-8.462-0.134-11.674c0.17-1.259,0.556-2.285,1.155-3.076
		c0.6-0.79,1.339-1.322,2.22-1.597s1.792-0.317,2.738-0.129c0.943,0.189,1.81,0.644,2.599,1.364l41.618,56.84l-9.207-87.708
		c0.161-0.775,0.49-1.461,0.989-2.059c0.497-0.598,1.039-0.989,1.628-1.173c0.586-0.183,1.241-0.083,1.963,0.295
		c0.723,0.378,1.447,1.222,2.175,2.522l8.83,93.864c-0.057,0.341-0.284,0.834-0.686,1.481c-0.401,0.65-0.965,1.168-1.689,1.554
		c-0.725,0.387-1.597,0.498-2.615,0.331c-1.018-0.166-2.097-0.917-3.236-2.252l-42.157-55.465l-0.312,71.108
		c-0.386,1.088-1.064,1.883-2.035,2.386c-0.972,0.503-1.968,0.794-2.989,0.871c-1.023,0.077-1.965,0.028-2.823-0.147
		c-0.86-0.173-1.362-0.36-1.503-0.559L243.581,226.709z"/>
	<path fill="#E81F25" d="M346.741,192.28c0.44-1.425,1.304-2.076,2.591-1.954c1.286,0.123,2.579,0.525,3.879,1.206
		c1.299,0.683,2.396,1.429,3.293,2.235c0.895,0.809,1.184,1.222,0.868,1.239l61.903,56.438c-0.123-1.169-0.476-3.01-1.058-5.527
		c-0.583-2.515-1.357-5.453-2.324-8.817c-0.968-3.36-2.087-7.019-3.356-10.97c-1.272-3.951-2.58-7.893-3.924-11.82
		c-1.346-3.93-2.722-7.767-4.131-11.516c-1.408-3.747-2.735-7.097-3.977-10.052c-1.242-2.954-2.361-5.383-3.357-7.288
		c-0.996-1.903-1.82-2.995-2.47-3.277c-0.365-1.173-0.494-2.36-0.386-3.562c0.109-1.2,0.824-2.008,2.145-2.419
		c1.248-0.389,2.503,0.025,3.77,1.242c1.264,1.217,2.402,2.673,3.414,4.37s1.883,3.398,2.615,5.103s1.18,2.814,1.339,3.326
		c0.53,1.447,1.311,3.76,2.343,6.94c1.031,3.181,2.205,6.821,3.522,10.919c1.316,4.1,2.695,8.398,4.139,12.899
		c1.443,4.503,2.822,8.804,4.141,12.901c1.316,4.101,2.479,7.764,3.484,10.992c1.006,3.229,1.773,5.566,2.304,7.011
		c0.713,2.033,1.549,3.745,2.507,5.137c0.956,1.394,1.744,3.08,2.361,5.062c0.503,1.615,0.275,3.015-0.685,4.198
		c-0.959,1.186-2.174,2.006-3.641,2.463c-0.809,0.252-1.559,0.364-2.25,0.339c-0.693-0.025-1.303-0.238-1.829-0.639
		c-0.527-0.398-0.94-1.014-1.239-1.848c-0.301-0.831-0.462-1.929-0.482-3.292c-1.801-1.13-4.297-3.19-7.481-6.184
		c-3.187-2.992-6.724-6.398-10.611-10.22c-3.888-3.819-7.96-7.847-12.216-12.076c-4.258-4.229-8.316-8.219-12.182-11.967
		c-3.865-3.746-7.387-6.977-10.566-9.689c-3.181-2.712-5.624-4.486-7.334-5.325c1.118,4.888,2.729,10.443,4.83,16.672
		c2.102,6.229,4.358,12.572,6.772,19.024c2.412,6.455,4.793,12.739,7.14,18.851c2.346,6.113,4.265,11.555,5.75,16.323
		c0.48,1.542,0.343,2.653-0.412,3.33c-0.756,0.676-1.645,1.056-2.667,1.133c-1.022,0.076-1.95-0.058-2.782-0.401
		c-0.832-0.346-1.073-0.732-0.725-1.164L346.741,192.28z"/>
</g>
<g enable-background="new    ">
	<path fill="#FFFFFF" d="M475.595,188.162c-0.226-0.726-0.255-1.287-0.087-1.688c0.168-0.396,0.446-0.697,0.836-0.898
		c0.389-0.2,0.829-0.323,1.32-0.371c0.49-0.045,0.952-0.057,1.386-0.032l30.153,52.004c0.133-0.253,0.245-1.299,0.339-3.135
		c0.093-1.835,0.15-4.127,0.172-6.872c0.022-2.744,0.042-5.793,0.061-9.148c0.018-3.354,0.021-6.717,0.007-10.089
		c-0.014-3.37-0.04-6.565-0.075-9.584c-0.037-3.02-0.066-5.588-0.089-7.707c0.112-0.833,0.367-1.511,0.763-2.032
		s0.884-0.873,1.466-1.055c0.581-0.181,1.183-0.209,1.808-0.085c0.623,0.125,1.195,0.426,1.715,0.901l27.479,37.528l-6.079-57.909
		c0.106-0.512,0.324-0.964,0.652-1.36c0.329-0.394,0.688-0.652,1.075-0.772c0.388-0.121,0.82-0.057,1.296,0.193
		c0.478,0.25,0.956,0.807,1.437,1.666l5.83,61.974c-0.037,0.225-0.188,0.55-0.453,0.979c-0.265,0.429-0.637,0.771-1.116,1.024
		c-0.478,0.257-1.053,0.329-1.726,0.219c-0.673-0.109-1.384-0.604-2.138-1.486l-27.833-36.621l-0.206,46.951
		c-0.255,0.717-0.703,1.243-1.344,1.574c-0.642,0.332-1.299,0.524-1.974,0.575c-0.676,0.051-1.297,0.02-1.864-0.098
		c-0.567-0.115-0.898-0.238-0.991-0.368L475.595,188.162z"/>
	<path fill="#FFFFFF" d="M544.065,165.558c0.103-0.352,0.342-0.651,0.716-0.901c0.373-0.248,0.787-0.418,1.238-0.506
		c0.451-0.086,0.912-0.097,1.385-0.033c0.472,0.066,0.818,0.197,1.04,0.396l19.656,59.261c0.181,0.581,0.165,1.038-0.051,1.371
		c-0.216,0.332-0.526,0.575-0.929,0.729c-0.406,0.151-0.848,0.224-1.329,0.214s-0.913-0.114-1.295-0.314L544.065,165.558z"/>
	<path fill="#FFFFFF" d="M578.844,160.225c-1.966,0.347-3.867,0.898-5.703,1.657c-1.837,0.759-3.651,1.549-5.441,2.372
		c-1.79,0.824-3.596,1.639-5.418,2.445c-1.821,0.808-3.7,1.433-5.636,1.875c-0.548,0.119-1.131,0.167-1.748,0.146
		c-0.617-0.019-1.006-0.456-1.166-1.311c-0.118-0.548-0.017-1.163,0.302-1.849c0.318-0.683,0.751-1.083,1.3-1.202l21.471-8.123
		c-0.028-0.257-0.039-0.638-0.038-1.145c0.002-0.506,0.056-1.014,0.163-1.526c0.105-0.511,0.279-0.977,0.521-1.398
		c0.241-0.42,0.588-0.673,1.039-0.762c0.644-0.147,1.206-0.096,1.683,0.153c0.477,0.251,0.899,0.546,1.271,0.881
		c0.37,0.337,0.706,0.645,1.005,0.922c0.299,0.28,0.603,0.397,0.908,0.355c7.801-2.43,15.775-5.073,23.922-7.931
		c0.146-0.045,0.537-0.153,1.175-0.325s1.085-0.271,1.343-0.299c0.547,0.733,0.444,1.47-0.309,2.21
		c-0.754,0.739-1.928,1.49-3.524,2.254c-1.596,0.764-3.445,1.525-5.548,2.286c-2.102,0.761-4.198,1.494-6.291,2.198
		c-2.093,0.706-4.058,1.397-5.893,2.075c-1.836,0.679-3.256,1.28-4.262,1.806c0.396,2.641,1.023,5.423,1.883,8.344
		c0.855,2.923,1.805,5.924,2.844,9.002c1.038,3.079,2.152,6.188,3.343,9.324c1.189,3.138,2.353,6.231,3.488,9.279
		c1.136,3.049,2.181,6.02,3.136,8.91c0.953,2.893,1.726,5.631,2.317,8.209c0.773,1.461,0.915,2.387,0.427,2.778
		c-0.49,0.392-1.548,0.709-3.174,0.947c-1.007-1.864-2.049-4.185-3.125-6.96c-1.077-2.774-2.181-5.805-3.311-9.096
		c-1.133-3.287-2.252-6.714-3.361-10.274c-1.109-3.562-2.225-7.054-3.344-10.48c-1.121-3.425-2.196-6.664-3.229-9.72
		C580.833,165.201,579.826,162.525,578.844,160.225z"/>
	<path fill="#FFFFFF" d="M648.867,162.572c-0.313,0.365-0.913,0.911-1.803,1.639c-0.889,0.729-1.924,1.544-3.106,2.443
		s-2.428,1.846-3.739,2.839c-1.312,0.995-2.556,1.952-3.729,2.876c-1.175,0.924-2.218,1.755-3.132,2.49
		c-0.913,0.738-1.519,1.312-1.814,1.722c-0.676,0.902-1.056,1.991-1.137,3.265c-0.082,1.274,0.003,2.657,0.255,4.147
		c0.251,1.489,0.63,3.045,1.136,4.669s1.048,3.195,1.629,4.715c0.579,1.521,1.148,2.965,1.708,4.332
		c0.558,1.368,1.013,2.528,1.364,3.481c0.192,0.792,0.129,1.569-0.191,2.333s-0.868,1.269-1.643,1.51
		c-0.291,0.09-0.653,0.123-1.086,0.098c-0.434-0.024-0.686-0.239-0.758-0.642l-18.716-59.314c-0.212-0.678-0.221-1.219-0.028-1.625
		c0.192-0.405,0.504-0.688,0.932-0.85c0.429-0.159,0.915-0.218,1.46-0.175c0.544,0.043,1.056,0.149,1.535,0.319
		c0.712,2.117,1.499,4.556,2.359,7.317c0.86,2.763,1.739,5.546,2.641,8.348c0.898,2.804,1.816,5.495,2.753,8.073
		c0.937,2.579,1.861,4.736,2.774,6.472c2.056-1.757,4.212-3.372,6.464-4.845c2.253-1.472,4.236-2.994,5.953-4.566
		c1.717-1.57,3-3.298,3.848-5.185c0.848-1.885,0.952-4.11,0.312-6.675c-0.312-1.339-0.625-2.517-0.941-3.535
		c-0.317-1.018-0.671-2.023-1.061-3.019c-0.389-0.995-0.871-2.026-1.443-3.099c-0.572-1.07-1.271-2.327-2.093-3.773
		c-0.302-0.969-0.288-1.65,0.041-2.045c0.329-0.394,0.808-0.691,1.438-0.888c0.678-0.211,1.251-0.203,1.721,0.022
		c0.47,0.227,0.867,0.566,1.195,1.023c0.328,0.455,0.614,0.991,0.859,1.605c0.244,0.615,0.451,1.188,0.617,1.722
		c0.304,0.81,0.752,2.077,1.345,3.807c0.591,1.73,1.247,3.666,1.968,5.807c0.72,2.142,1.494,4.412,2.321,6.812
		c0.828,2.399,1.602,4.671,2.321,6.812c0.72,2.142,1.376,4.076,1.969,5.806c0.59,1.729,1.016,3.006,1.272,3.83
		c0.364,1.002,0.812,2.352,1.34,4.047c0.528,1.697,1.079,3.465,1.653,5.307s1.104,3.631,1.592,5.364
		c0.487,1.736,0.864,3.119,1.134,4.151c0.087,0.452,0.187,0.9,0.299,1.342c0.11,0.444,0.166,0.879,0.167,1.305
		c-0.001,0.427-0.113,0.832-0.338,1.221c-0.225,0.39-0.629,0.755-1.213,1.096c-1.166-0.326-1.921-0.917-2.265-1.766
		c-0.345-0.85-0.7-1.775-1.065-2.778c-0.181-0.581-0.498-1.639-0.948-3.173c-0.452-1.533-0.986-3.294-1.605-5.281
		c-0.618-1.986-1.26-4.085-1.922-6.298c-0.663-2.212-1.3-4.3-1.911-6.263c-0.611-1.962-1.154-3.706-1.63-5.232
		C649.449,164.185,649.095,163.139,648.867,162.572z"/>
</g>
<g enable-background="new    ">
	<path fill="#FFFFFF" d="M113.508,405.158c-0.5-0.747-0.912-1.43-1.236-2.047c-0.325-0.616-0.561-1.327-0.704-2.133
		c-0.027-0.257-0.05-0.542-0.067-0.855c-0.018-0.314,0.031-0.581,0.148-0.805c0.116-0.221,0.309-0.416,0.577-0.579
		c0.268-0.162,0.674-0.222,1.22-0.181c0.335,0.056,0.706,0.22,1.109,0.492c0.404,0.273,0.791,0.618,1.16,1.034
		c0.369,0.417,0.694,0.82,0.975,1.211c0.282,0.392,0.492,0.726,0.631,1c1.067-1.182,2.275-2.423,3.625-3.721
		c1.35-1.297,2.798-2.492,4.345-3.586c1.546-1.093,3.151-2.044,4.812-2.854c1.661-0.809,3.322-1.367,4.981-1.672
		c0.547-0.117,1.207-0.177,1.978-0.177c0.77-0.001,1.514,0.086,2.234,0.26c0.719,0.176,1.363,0.454,1.934,0.834
		c0.569,0.38,0.912,0.924,1.027,1.632c0.408,1.31,0.552,2.753,0.433,4.332c-0.12,1.58-0.397,3.207-0.832,4.883
		c-0.434,1.678-0.984,3.365-1.653,5.061c-0.667,1.697-1.337,3.302-2.009,4.812c-0.672,1.513-1.318,2.896-1.936,4.151
		c-0.619,1.257-1.073,2.274-1.361,3.056c1.45-1.144,3.22-2.291,5.306-3.447c2.085-1.154,4.229-1.995,6.43-2.521
		c2.201-0.526,4.306-0.596,6.313-0.212c2.006,0.385,3.626,1.529,4.856,3.431c0.538,1.215,0.736,2.709,0.598,4.478
		c-0.139,1.772-0.526,3.687-1.161,5.744c-0.635,2.06-1.472,4.194-2.51,6.403c-1.039,2.213-2.17,4.384-3.391,6.52
		c-1.223,2.135-2.494,4.152-3.816,6.052c-1.321,1.901-2.567,3.579-3.735,5.031c-1.169,1.454-2.23,2.608-3.187,3.465
		c-0.957,0.856-1.692,1.312-2.206,1.365l-2.651-2.365c0.258-0.025,0.909-0.667,1.953-1.924c1.044-1.254,2.259-2.856,3.646-4.803
		c1.388-1.947,2.848-4.129,4.38-6.548c1.532-2.417,2.929-4.805,4.187-7.165c1.259-2.358,2.257-4.57,2.997-6.634
		c0.738-2.064,1.009-3.756,0.811-5.077c-0.286-1.771-1.115-2.854-2.488-3.252c-1.373-0.396-3.029-0.292-4.966,0.312
		c-1.938,0.604-3.993,1.604-6.163,2.996c-2.17,1.394-4.16,2.944-5.967,4.65c-1.808,1.706-3.299,3.486-4.476,5.341
		s-1.732,3.569-1.667,5.145c0.274,1.563,0.635,3.15,1.086,4.765c0.449,1.613,0.915,3.237,1.396,4.867
		c0.48,1.632,0.958,3.249,1.433,4.856c0.474,1.606,0.84,3.167,1.1,4.681c0.187,1.111,0.252,2.049,0.197,2.809
		c-0.056,0.761-0.694,1.227-1.918,1.396c-0.098,0.03-0.274,0.058-0.531,0.087c-0.259,0.025-0.394,0.014-0.408-0.033L113.508,405.158
		z M119.708,409.446c0.157,1.015,0.433,2.285,0.828,3.809c0.396,1.525,0.842,3.087,1.34,4.687c0.498,1.599,1.041,3.132,1.63,4.595
		c0.589,1.466,1.163,2.669,1.722,3.609c0.646-0.997,1.529-2.39,2.647-4.174c1.119-1.783,2.285-3.754,3.5-5.913
		c1.214-2.158,2.366-4.392,3.456-6.697c1.088-2.306,1.918-4.466,2.488-6.477c0.569-2.012,0.785-3.754,0.645-5.225
		c-0.14-1.473-0.822-2.467-2.048-2.99c-0.901,0.174-1.96,0.491-3.173,0.948c-1.213,0.458-2.457,1.032-3.73,1.72
		c-1.274,0.69-2.514,1.488-3.719,2.396c-1.206,0.907-2.257,1.887-3.152,2.936c-0.896,1.05-1.576,2.151-2.04,3.306
		C119.636,407.13,119.506,408.286,119.708,409.446z"/>
	<path fill="#FFFFFF" d="M152.155,385.624c0.103-0.351,0.342-0.65,0.716-0.901c0.374-0.249,0.787-0.417,1.238-0.506
		c0.452-0.086,0.913-0.097,1.386-0.032c0.471,0.065,0.818,0.197,1.04,0.394l19.657,59.261c0.181,0.581,0.164,1.039-0.052,1.372
		c-0.215,0.331-0.525,0.575-0.929,0.729c-0.405,0.151-0.847,0.224-1.329,0.214c-0.481-0.01-0.912-0.115-1.294-0.315L152.155,385.624
		z"/>
	<path fill="#FFFFFF" d="M211.335,416.386c-0.878,2.134-2.022,4.431-3.435,6.892c-1.414,2.46-3.024,4.796-4.834,7.006
		c-1.81,2.214-3.759,4.15-5.845,5.809c-2.088,1.66-4.209,2.786-6.363,3.378c-2.156,0.592-4.317,0.521-6.485-0.213
		c-2.17-0.732-4.229-2.442-6.184-5.13c-1.294-1.936-2.303-4.359-3.022-7.271c-0.722-2.912-1.176-6.079-1.365-9.502
		c-0.189-3.423-0.103-6.986,0.259-10.687c0.362-3.701,1.016-7.318,1.96-10.857c0.944-3.535,2.18-6.911,3.704-10.124
		c1.524-3.212,3.337-6.009,5.439-8.391c2.102-2.382,4.502-4.274,7.204-5.673c2.7-1.399,5.71-2.058,9.032-1.977
		c0.388-0.121,0.656-0.11,0.807,0.028c0.149,0.141,0.245,0.362,0.288,0.668c0.041,0.305,0.069,0.696,0.085,1.169
		c0.014,0.475,0.112,1.002,0.294,1.583c-3.688,0.619-6.954,1.995-9.798,4.129c-2.843,2.135-5.28,4.769-7.308,7.897
		c-2.028,3.131-3.642,6.611-4.841,10.438c-1.199,3.83-1.987,7.744-2.363,11.74c-0.376,3.999-0.333,7.932,0.128,11.802
		c0.46,3.87,1.326,7.415,2.595,10.634c1.068,2.751,2.486,4.396,4.248,4.936c1.764,0.541,3.65,0.325,5.66-0.646
		c2.009-0.971,4.035-2.533,6.076-4.684s3.899-4.59,5.575-7.318c1.675-2.727,3.052-5.562,4.129-8.503
		c1.078-2.938,1.649-5.669,1.715-8.188l-13.083,4.075c-1.044-0.791-1.357-1.543-0.943-2.257c0.416-0.715,1.304-1.403,2.666-2.066
		c1.361-0.664,3.035-1.305,5.023-1.924c1.986-0.619,4.037-1.204,6.15-1.758c0.584-0.34,1.363-0.914,2.334-1.723
		c0.971-0.807,1.92-1.515,2.847-2.122c0.927-0.608,1.715-0.933,2.367-0.977c0.651-0.043,0.917,0.511,0.798,1.665
		c-0.018,0.113-0.139,0.322-0.362,0.63c-0.223,0.31-0.482,0.629-0.777,0.96c-0.296,0.332-0.57,0.645-0.825,0.936
		c-0.255,0.292-0.423,0.478-0.505,0.556c-0.453,2.641-0.447,5.562,0.02,8.766c0.466,3.204,1.188,6.461,2.167,9.771
		c0.978,3.312,2.105,6.548,3.383,9.71c1.277,3.163,2.517,5.994,3.721,8.49l-2.468,1.805c-0.711-0.575-1.549-1.857-2.513-3.843
		c-0.965-1.986-1.936-4.207-2.914-6.667c-0.979-2.458-1.866-4.88-2.662-7.265C212.316,419.708,211.724,417.807,211.335,416.386z"/>
	<path fill="#FFFFFF" d="M262.567,402.181c-0.544-1.745-1.102-4.174-1.674-7.292c-0.573-3.118-1.051-6.53-1.435-10.238
		c-0.385-3.707-0.574-7.515-0.569-11.425c0.004-3.908,0.309-7.537,0.914-10.889c0.604-3.35,1.576-6.245,2.917-8.683
		c1.34-2.437,3.173-4.018,5.499-4.743c1.309-0.408,2.511-0.516,3.606-0.327c1.096,0.191,2.086,0.599,2.974,1.227
		c0.886,0.628,1.641,1.429,2.264,2.405c0.623,0.976,1.124,2.069,1.501,3.28c-1.112,1.038-2.061,1.493-2.845,1.364
		c-0.784-0.127-1.492-0.479-2.122-1.054c-0.631-0.573-1.261-1.188-1.89-1.842c-0.63-0.654-1.337-0.965-2.125-0.933
		c-1.745,0.543-3.083,1.876-4.016,4.001c-0.934,2.125-1.581,4.652-1.944,7.582c-0.362,2.932-0.489,6.107-0.38,9.528
		c0.109,3.422,0.336,6.712,0.684,9.875c0.347,3.161,0.752,5.998,1.216,8.511c0.464,2.514,0.877,4.352,1.239,5.514
		c0.483,1.552,1.008,3.022,1.574,4.414c0.565,1.392,1.277,2.565,2.134,3.521c0.856,0.958,1.895,1.603,3.116,1.94
		c1.221,0.337,2.751,0.22,4.594-0.354c2.18-0.68,4.128-1.978,5.844-3.894c1.715-1.916,3.162-4.095,4.343-6.536
		c1.18-2.44,2.1-4.945,2.761-7.518c0.661-2.57,1.011-4.82,1.049-6.746c0.082-0.077,0.312-0.189,0.693-0.334
		c0.38-0.145,0.618-0.233,0.716-0.264c0.629-0.196,1.258-0.312,1.885-0.348c0.627-0.035,1.068,0.358,1.325,1.182
		c0.204,1.851,0.011,3.919-0.58,6.202c-0.591,2.285-1.415,4.587-2.472,6.91c-1.058,2.323-2.298,4.57-3.721,6.741
		c-1.424,2.171-2.89,4.077-4.399,5.716c-1.51,1.64-2.988,2.911-4.434,3.812c-1.447,0.902-2.73,1.262-3.85,1.08
		c-1.745,0.544-3.401,0.516-4.971-0.086c-1.57-0.601-2.98-1.504-4.232-2.709c-1.253-1.204-2.321-2.585-3.205-4.144
		C263.665,405.069,263.004,403.587,262.567,402.181z"/>
	<path fill="#FFFFFF" d="M300.229,386.143c-1.951-6.089-3.053-11.847-3.306-17.27c-0.254-5.423,0.103-10.331,1.074-14.727
		c0.97-4.395,2.416-8.154,4.341-11.279c1.924-3.124,4.096-5.409,6.516-6.855c2.421-1.444,4.968-1.972,7.641-1.582
		c2.674,0.391,5.22,1.911,7.64,4.557c2.168,2.354,4.064,5.286,5.688,8.793c1.624,3.508,2.887,7.261,3.787,11.259
		c0.899,4,1.381,8.063,1.444,12.188c0.062,4.128-0.384,8.027-1.339,11.701c-0.956,3.674-2.453,6.932-4.491,9.772
		s-4.726,4.967-8.061,6.377c-2.669,0.99-5.164,1.171-7.487,0.538c-2.323-0.632-4.393-1.688-6.209-3.169
		c-1.817-1.479-3.357-3.179-4.619-5.099C301.584,389.428,300.712,387.694,300.229,386.143z M304.679,346.164
		c-0.612,0.937-1.162,2.41-1.652,4.422c-0.489,2.014-0.853,4.346-1.09,6.998c-0.237,2.652-0.325,5.483-0.264,8.494
		c0.061,3.011,0.298,5.994,0.713,8.947c0.415,2.955,1.05,5.76,1.905,8.417c0.854,2.658,1.98,4.952,3.379,6.881
		c1.398,1.93,3.071,3.376,5.019,4.336c1.947,0.962,4.234,1.22,6.859,0.774c2.013-0.361,3.769-1.599,5.263-3.712
		c1.495-2.112,2.665-4.711,3.514-7.792c0.846-3.082,1.379-6.451,1.596-10.106s0.11-7.197-0.319-10.625
		c-0.423-3.059-1.065-5.98-1.934-8.768c-0.868-2.786-1.932-5.259-3.188-7.418c-1.259-2.16-2.66-3.929-4.205-5.309
		c-1.546-1.378-3.184-2.197-4.912-2.457c-1.729-0.258-3.502,0.148-5.321,1.22C308.222,341.539,306.434,343.438,304.679,346.164z"/>
	<path fill="#FFFFFF" d="M328.492,330.454c0.291-0.941,0.861-1.372,1.71-1.292c0.85,0.083,1.704,0.347,2.562,0.797
		s1.582,0.943,2.174,1.475c0.591,0.534,0.782,0.808,0.574,0.819l40.871,37.263c-0.081-0.771-0.314-1.987-0.699-3.65
		c-0.385-1.66-0.896-3.601-1.533-5.82c-0.639-2.219-1.378-4.634-2.217-7.244c-0.84-2.608-1.703-5.211-2.591-7.804
		c-0.888-2.594-1.797-5.128-2.728-7.602c-0.93-2.475-1.806-4.687-2.625-6.638c-0.82-1.95-1.56-3.553-2.217-4.812
		c-0.658-1.256-1.202-1.979-1.631-2.164c-0.241-0.774-0.326-1.558-0.254-2.352c0.072-0.793,0.543-1.326,1.416-1.598
		c0.823-0.256,1.651,0.018,2.487,0.82c0.835,0.805,1.587,1.766,2.255,2.885c0.668,1.122,1.243,2.244,1.727,3.369
		c0.483,1.126,0.779,1.858,0.885,2.197c0.35,0.955,0.865,2.481,1.546,4.581c0.681,2.101,1.456,4.504,2.326,7.21
		c0.869,2.707,1.779,5.545,2.733,8.517c0.952,2.974,1.862,5.812,2.732,8.519c0.869,2.706,1.637,5.125,2.301,7.257
		s1.171,3.675,1.521,4.629c0.471,1.343,1.021,2.474,1.654,3.392c0.632,0.92,1.152,2.034,1.56,3.342
		c0.333,1.066,0.182,1.99-0.452,2.772c-0.633,0.783-1.435,1.324-2.403,1.626c-0.534,0.167-1.029,0.24-1.485,0.223
		c-0.458-0.017-0.86-0.156-1.208-0.421c-0.349-0.262-0.621-0.669-0.819-1.22c-0.197-0.549-0.304-1.273-0.317-2.173
		c-1.189-0.746-2.837-2.106-4.939-4.083c-2.104-1.976-4.44-4.225-7.007-6.748c-2.566-2.522-5.256-5.181-8.064-7.974
		c-2.811-2.792-5.492-5.426-8.043-7.9c-2.553-2.474-4.877-4.606-6.977-6.397c-2.101-1.791-3.714-2.962-4.843-3.515
		c0.738,3.225,1.802,6.893,3.189,11.006c1.387,4.113,2.878,8.301,4.472,12.562c1.592,4.262,3.164,8.411,4.714,12.446
		c1.549,4.037,2.814,7.628,3.796,10.778c0.316,1.018,0.227,1.751-0.272,2.197c-0.499,0.448-1.086,0.698-1.76,0.749
		c-0.676,0.051-1.288-0.038-1.837-0.266c-0.55-0.229-0.709-0.483-0.479-0.768L328.492,330.454z"/>
	<path fill="#FFFFFF" d="M395.61,315.287c-1.966,0.345-3.866,0.898-5.703,1.657c-1.837,0.76-3.651,1.55-5.441,2.372
		c-1.79,0.824-3.596,1.639-5.417,2.445c-1.822,0.808-3.7,1.432-5.636,1.875c-0.549,0.119-1.132,0.167-1.749,0.146
		c-0.617-0.02-1.006-0.457-1.166-1.312c-0.118-0.547-0.017-1.164,0.302-1.849c0.317-0.683,0.751-1.083,1.3-1.201l21.471-8.125
		c-0.027-0.256-0.039-0.637-0.038-1.144c0.003-0.504,0.056-1.014,0.163-1.525c0.105-0.512,0.279-0.978,0.521-1.399
		c0.24-0.419,0.588-0.673,1.038-0.761c0.645-0.148,1.206-0.097,1.683,0.153s0.899,0.544,1.271,0.88
		c0.369,0.336,0.705,0.645,1.004,0.923c0.299,0.279,0.603,0.397,0.908,0.354c7.801-2.43,15.775-5.073,23.922-7.931
		c0.146-0.045,0.537-0.153,1.175-0.325s1.085-0.271,1.343-0.299c0.547,0.734,0.444,1.47-0.309,2.21
		c-0.754,0.74-1.928,1.492-3.524,2.253c-1.596,0.764-3.445,1.525-5.547,2.286c-2.103,0.761-4.199,1.495-6.292,2.199
		c-2.093,0.706-4.058,1.398-5.893,2.074c-1.836,0.679-3.256,1.281-4.262,1.807c0.397,2.641,1.024,5.422,1.883,8.344
		c0.855,2.922,1.805,5.923,2.844,9.001c1.039,3.079,2.152,6.187,3.343,9.325c1.189,3.137,2.353,6.232,3.488,9.278
		c1.136,3.05,2.181,6.02,3.136,8.912c0.953,2.893,1.726,5.629,2.317,8.209c0.773,1.46,0.915,2.386,0.427,2.777
		c-0.49,0.391-1.548,0.709-3.174,0.949c-1.007-1.865-2.049-4.186-3.125-6.96c-1.076-2.775-2.181-5.806-3.312-9.096
		c-1.131-3.288-2.251-6.714-3.36-10.276s-2.225-7.054-3.344-10.48c-1.121-3.425-2.196-6.665-3.228-9.719
		C397.598,320.262,396.591,317.585,395.61,315.287z"/>
	<path fill="#FFFFFF" d="M449.592,358.034c-1.449-4.651-2.845-9.426-4.184-14.324c-1.341-4.898-2.788-9.803-4.345-14.715
		c-1.557-4.91-3.283-9.728-5.18-14.454c-1.897-4.723-4.104-9.247-6.618-13.566c-0.075-0.242-0.073-0.576,0.007-1
		c0.08-0.422,0.222-0.826,0.422-1.207c0.2-0.382,0.456-0.713,0.766-0.998c0.311-0.282,0.683-0.41,1.115-0.387
		c0.705,0.047,1.374,0.357,2.005,0.931c0.63,0.575,1.184,1.239,1.658,1.995c0.476,0.757,0.865,1.499,1.172,2.227
		c0.307,0.729,0.513,1.263,0.618,1.602l25.81-15.694c0.467-0.039,0.897,0.106,1.292,0.435c0.395,0.33,0.659,0.75,0.794,1.268
		c0.133,0.516,0.119,1.066-0.046,1.648c-0.164,0.583-0.53,1.07-1.1,1.459l-25.215,16.068c0.981,3.151,2.039,6.25,3.175,9.296
		c1.136,3.05,2.322,6.134,3.562,9.257l18.01-13.344c0.4-0.763,0.776-1.304,1.128-1.628c0.351-0.32,0.765-0.529,1.239-0.625
		c0.477-0.094,1.038,0.13,1.686,0.672c0.303,0.97-0.005,2.035-0.918,3.196c-0.914,1.163-2.126,2.352-3.635,3.565
		c-1.509,1.215-3.175,2.438-4.996,3.669c-1.823,1.233-3.496,2.433-5.02,3.597c-1.524,1.167-2.766,2.257-3.725,3.273
		c-0.959,1.017-1.325,1.889-1.099,2.615l5.446,19.276c0.861,0.208,1.957,0.015,3.285-0.587c1.328-0.599,2.765-1.405,4.311-2.418
		c1.544-1.013,3.152-2.165,4.824-3.457c1.67-1.291,3.279-2.522,4.828-3.697c1.548-1.172,2.984-2.232,4.312-3.178
		c1.327-0.944,2.443-1.584,3.349-1.919c0.451-0.087,0.888-0.051,1.311,0.109c0.421,0.162,0.759,0.39,1.01,0.683
		c0.251,0.295,0.372,0.642,0.364,1.042s-0.241,0.807-0.697,1.215c-1.634,1.413-3.625,3.042-5.973,4.89
		c-2.349,1.847-4.792,3.686-7.332,5.513c-2.541,1.828-5.035,3.509-7.48,5.042c-2.446,1.533-4.567,2.658-6.363,3.377
		c-0.71,0.115-1.304,0.128-1.783,0.037C450.903,358.702,450.306,358.45,449.592,358.034z"/>
	<path fill="#FFFFFF" d="M469.062,286.665c0.291-0.941,0.861-1.372,1.711-1.291c0.85,0.082,1.703,0.347,2.561,0.797
		c0.858,0.451,1.582,0.943,2.174,1.476c0.592,0.533,0.783,0.807,0.574,0.818l40.871,37.263c-0.081-0.771-0.314-1.987-0.698-3.65
		c-0.385-1.66-0.896-3.6-1.534-5.82c-0.639-2.219-1.377-4.634-2.217-7.244c-0.84-2.608-1.703-5.211-2.59-7.805
		c-0.889-2.594-1.797-5.128-2.728-7.602s-1.806-4.687-2.626-6.637s-1.56-3.553-2.217-4.812c-0.657-1.256-1.201-1.978-1.631-2.164
		c-0.241-0.774-0.326-1.558-0.254-2.352c0.072-0.792,0.544-1.326,1.416-1.598c0.823-0.256,1.652,0.018,2.487,0.82
		c0.836,0.805,1.587,1.766,2.255,2.886c0.669,1.121,1.244,2.244,1.728,3.369c0.482,1.125,0.778,1.858,0.884,2.197
		c0.35,0.955,0.865,2.48,1.547,4.581c0.681,2.1,1.455,4.504,2.326,7.21c0.869,2.706,1.779,5.544,2.732,8.516
		c0.952,2.974,1.862,5.812,2.732,8.519c0.87,2.707,1.637,5.125,2.301,7.257s1.172,3.675,1.522,4.628
		c0.471,1.343,1.021,2.474,1.654,3.392c0.632,0.919,1.151,2.033,1.56,3.342c0.332,1.066,0.182,1.99-0.452,2.772
		c-0.634,0.783-1.435,1.325-2.403,1.626c-0.535,0.166-1.03,0.24-1.486,0.223c-0.457-0.017-0.859-0.156-1.208-0.421
		c-0.348-0.262-0.621-0.67-0.818-1.22c-0.198-0.549-0.305-1.273-0.317-2.173c-1.189-0.746-2.837-2.106-4.94-4.083
		c-2.104-1.976-4.44-4.225-7.006-6.748c-2.567-2.522-5.256-5.181-8.065-7.974c-2.811-2.792-5.491-5.425-8.042-7.9
		c-2.553-2.474-4.878-4.606-6.978-6.397c-2.1-1.791-3.713-2.962-4.842-3.515c0.738,3.225,1.801,6.893,3.188,11.006
		c1.388,4.112,2.878,8.301,4.472,12.561c1.594,4.262,3.164,8.411,4.715,12.446c1.549,4.037,2.814,7.628,3.795,10.778
		c0.317,1.018,0.227,1.75-0.271,2.198c-0.499,0.448-1.086,0.698-1.761,0.749c-0.676,0.051-1.288-0.038-1.837-0.266
		c-0.549-0.229-0.709-0.483-0.479-0.768L469.062,286.665z"/>
	<path fill="#FFFFFF" d="M536.181,271.498c-1.966,0.346-3.867,0.898-5.704,1.657c-1.836,0.76-3.651,1.55-5.44,2.372
		c-1.79,0.824-3.596,1.639-5.418,2.445c-1.822,0.808-3.7,1.433-5.636,1.876c-0.548,0.118-1.131,0.167-1.748,0.146
		c-0.618-0.02-1.006-0.457-1.166-1.312c-0.118-0.547-0.017-1.164,0.302-1.849c0.318-0.683,0.751-1.083,1.3-1.201l21.471-8.125
		c-0.028-0.256-0.04-0.637-0.038-1.145c0.002-0.504,0.056-1.014,0.163-1.525c0.105-0.512,0.279-0.977,0.521-1.399
		c0.24-0.419,0.588-0.673,1.038-0.761c0.645-0.148,1.206-0.097,1.683,0.153c0.478,0.25,0.9,0.545,1.271,0.88
		c0.37,0.336,0.705,0.645,1.005,0.923c0.299,0.278,0.603,0.397,0.908,0.354c7.801-2.43,15.774-5.074,23.922-7.931
		c0.146-0.045,0.537-0.153,1.175-0.325c0.637-0.171,1.084-0.27,1.342-0.299c0.548,0.734,0.445,1.47-0.308,2.21
		c-0.754,0.74-1.929,1.492-3.524,2.254c-1.596,0.764-3.445,1.525-5.547,2.286c-2.104,0.761-4.199,1.494-6.292,2.199
		c-2.093,0.706-4.058,1.398-5.893,2.075c-1.836,0.679-3.257,1.281-4.262,1.806c0.396,2.641,1.023,5.422,1.882,8.344
		c0.856,2.923,1.805,5.924,2.844,9.001c1.039,3.079,2.153,6.187,3.344,9.325c1.189,3.137,2.353,6.232,3.488,9.278
		c1.136,3.05,2.18,6.02,3.135,8.912c0.953,2.892,1.727,5.629,2.318,8.208c0.773,1.46,0.915,2.386,0.426,2.777
		c-0.489,0.392-1.547,0.709-3.173,0.949c-1.007-1.865-2.05-4.186-3.125-6.959c-1.077-2.776-2.181-5.807-3.312-9.096
		c-1.132-3.288-2.251-6.715-3.36-10.276s-2.226-7.054-3.345-10.48c-1.121-3.425-2.195-6.665-3.227-9.719
		C538.169,276.473,537.163,273.796,536.181,271.498z"/>
	<path fill="#FFFFFF" d="M575.387,299.192c-0.54-0.283-0.985-0.73-1.333-1.338c-0.35-0.61-0.497-1.294-0.441-2.056
		c0.054-0.761,0.529-1.414,1.423-1.958l24.827-8.612c0.484-0.151,0.904-0.081,1.26,0.206c0.355,0.288,0.645,0.704,0.866,1.245
		c0.222,0.543,0.362,1.123,0.423,1.742s0.022,1.136-0.114,1.55l-25.632,9.102C576.353,299.437,575.927,299.476,575.387,299.192z"/>
	<path fill="#FFFFFF" d="M596.566,254.68c-0.5-0.748-0.911-1.43-1.236-2.047s-0.56-1.328-0.704-2.133
		c-0.027-0.256-0.05-0.542-0.067-0.855s0.031-0.581,0.148-0.805c0.117-0.221,0.309-0.416,0.577-0.578
		c0.269-0.163,0.675-0.222,1.22-0.181c0.336,0.055,0.706,0.219,1.11,0.492c0.403,0.272,0.79,0.618,1.159,1.033
		c0.369,0.418,0.694,0.821,0.976,1.211c0.28,0.392,0.491,0.726,0.63,1c1.067-1.182,2.275-2.423,3.625-3.721
		c1.351-1.297,2.799-2.493,4.346-3.586c1.546-1.092,3.15-2.044,4.812-2.854c1.661-0.809,3.322-1.367,4.981-1.671
		c0.547-0.117,1.207-0.177,1.979-0.177c0.769-0.001,1.514,0.086,2.233,0.26c0.719,0.176,1.363,0.454,1.934,0.834
		c0.569,0.38,0.913,0.924,1.027,1.632c0.408,1.31,0.552,2.753,0.433,4.332c-0.12,1.58-0.396,3.207-0.832,4.883
		c-0.434,1.678-0.984,3.365-1.652,5.061c-0.668,1.697-1.338,3.302-2.009,4.812c-0.673,1.512-1.318,2.896-1.937,4.152
		c-0.619,1.256-1.073,2.274-1.361,3.055c1.451-1.143,3.221-2.291,5.306-3.447c2.085-1.154,4.229-1.994,6.431-2.521
		c2.201-0.526,4.306-0.596,6.313-0.212c2.006,0.385,3.626,1.529,4.855,3.432c0.538,1.214,0.737,2.708,0.599,4.477
		c-0.141,1.772-0.526,3.687-1.162,5.744c-0.634,2.06-1.472,4.194-2.51,6.403c-1.039,2.212-2.171,4.384-3.392,6.519
		c-1.223,2.135-2.494,4.153-3.815,6.053c-1.322,1.901-2.567,3.579-3.736,5.031c-1.168,1.454-2.23,2.608-3.187,3.464
		c-0.956,0.856-1.692,1.312-2.206,1.365l-2.649-2.365c0.257-0.025,0.908-0.667,1.952-1.923c1.044-1.254,2.259-2.856,3.646-4.804
		c1.387-1.947,2.847-4.128,4.379-6.547c1.532-2.417,2.929-4.806,4.188-7.166c1.258-2.358,2.256-4.57,2.996-6.634
		c0.738-2.064,1.01-3.755,0.811-5.077c-0.286-1.771-1.115-2.854-2.487-3.252c-1.374-0.395-3.029-0.292-4.967,0.312
		c-1.938,0.604-3.993,1.603-6.163,2.995c-2.171,1.395-4.16,2.945-5.967,4.651c-1.809,1.707-3.3,3.487-4.477,5.341
		c-1.176,1.854-1.732,3.569-1.667,5.144c0.274,1.563,0.636,3.15,1.086,4.764c0.449,1.614,0.915,3.238,1.396,4.867
		c0.481,1.632,0.959,3.25,1.433,4.856c0.475,1.606,0.84,3.168,1.101,4.681c0.187,1.112,0.251,2.048,0.196,2.809
		s-0.694,1.227-1.917,1.395c-0.098,0.031-0.275,0.058-0.532,0.086c-0.258,0.026-0.394,0.015-0.408-0.032L596.566,254.68z
		 M602.765,258.967c0.157,1.015,0.434,2.285,0.828,3.809c0.396,1.526,0.842,3.086,1.34,4.686c0.498,1.599,1.042,3.132,1.631,4.595
		c0.588,1.466,1.163,2.669,1.723,3.61c0.646-0.998,1.528-2.39,2.646-4.173c1.119-1.783,2.285-3.755,3.5-5.914
		c1.214-2.159,2.366-4.392,3.456-6.698c1.088-2.305,1.918-4.465,2.487-6.477s0.785-3.753,0.645-5.225
		c-0.139-1.472-0.822-2.467-2.047-2.989c-0.902,0.174-1.96,0.49-3.174,0.948c-1.212,0.458-2.456,1.032-3.73,1.72
		c-1.273,0.69-2.513,1.488-3.719,2.395c-1.206,0.907-2.257,1.887-3.152,2.937c-0.896,1.049-1.575,2.151-2.039,3.305
		C602.695,256.652,602.564,257.808,602.765,258.967z"/>
	<path fill="#FFFFFF" d="M647.804,277.869c-1.951-6.089-3.053-11.847-3.307-17.269c-0.254-5.423,0.104-10.331,1.074-14.727
		c0.97-4.395,2.416-8.154,4.341-11.279c1.923-3.125,4.096-5.409,6.516-6.855c2.421-1.444,4.967-1.972,7.641-1.582
		c2.673,0.391,5.22,1.91,7.639,4.557c2.169,2.354,4.065,5.286,5.689,8.793c1.624,3.508,2.886,7.261,3.787,11.258
		c0.899,4,1.381,8.063,1.444,12.188c0.062,4.127-0.384,8.027-1.339,11.7c-0.956,3.675-2.453,6.932-4.491,9.772
		c-2.039,2.841-4.726,4.967-8.061,6.377c-2.669,0.99-5.164,1.171-7.486,0.538c-2.324-0.632-4.394-1.688-6.21-3.168
		c-1.817-1.48-3.357-3.18-4.619-5.1C649.16,281.155,648.288,279.42,647.804,277.869z M652.254,237.89
		c-0.612,0.937-1.162,2.41-1.652,4.422c-0.489,2.013-0.853,4.345-1.089,6.998c-0.238,2.653-0.325,5.484-0.265,8.495
		c0.062,3.011,0.299,5.994,0.714,8.947c0.414,2.956,1.05,5.761,1.904,8.417c0.854,2.658,1.981,4.952,3.38,6.882
		s3.071,3.376,5.019,4.336c1.947,0.962,4.233,1.22,6.859,0.774c2.014-0.361,3.768-1.599,5.263-3.712
		c1.495-2.112,2.665-4.71,3.513-7.792c0.847-3.082,1.38-6.451,1.596-10.106c0.218-3.656,0.111-7.197-0.318-10.625
		c-0.422-3.059-1.066-5.98-1.935-8.768c-0.867-2.786-1.931-5.259-3.188-7.419c-1.259-2.16-2.659-3.928-4.205-5.309
		c-1.546-1.378-3.185-2.198-4.912-2.458c-1.729-0.257-3.503,0.148-5.321,1.221C655.797,233.265,654.009,235.165,652.254,237.89z"/>
	<path fill="#FFFFFF" d="M697.847,282.374c-0.749,0.499-1.385,0.764-1.905,0.793c-0.522,0.031-1.028-0.183-1.517-0.643
		c-0.489-0.458-0.824-1.405-1.004-2.838l6.166-29.35l-24.696-24.759c-0.492-1.069-0.495-1.932-0.009-2.589
		c0.485-0.657,1.275-1.022,2.369-1.097l23.8,22.646c0.155-0.526,0.389-1.568,0.7-3.128c0.312-1.559,0.668-3.397,1.072-5.517
		c0.402-2.119,0.809-4.398,1.219-6.839c0.408-2.439,0.817-4.799,1.223-7.079c0.406-2.28,0.784-4.351,1.135-6.214
		c0.349-1.863,0.639-3.281,0.867-4.257c0.275-0.138,0.621-0.219,1.039-0.245c0.418-0.022,0.827,0.01,1.227,0.097
		c0.398,0.089,0.732,0.264,1.001,0.526c0.268,0.263,0.396,0.634,0.388,1.115l-6.117,35.396l23.777,21.298
		c0.565,0.621,0.814,1.249,0.746,1.88c-0.069,0.634-0.309,1.146-0.717,1.539c-0.41,0.393-0.908,0.628-1.495,0.706
		c-0.588,0.075-1.117-0.131-1.589-0.623l-21.781-20.006l-5.856,28.298L697.847,282.374z"/>
</g>
<g enable-background="new    ">
	<path fill="#FFFFFF" d="M1238.027,377.63c-0.367-1.312-0.638-2.489-0.812-3.529c-0.178-1.041-0.182-2.175-0.008-3.403
		c0.082-0.382,0.186-0.804,0.308-1.264c0.122-0.459,0.318-0.819,0.593-1.086c0.271-0.265,0.641-0.453,1.104-0.562
		s1.076-0.001,1.841,0.317c0.458,0.237,0.913,0.647,1.365,1.23c0.452,0.584,0.847,1.264,1.181,2.036
		c0.334,0.774,0.612,1.509,0.832,2.203c0.22,0.696,0.365,1.274,0.436,1.736c2.094-1.197,4.418-2.413,6.974-3.644
		s5.204-2.267,7.946-3.111c2.74-0.842,5.499-1.454,8.272-1.837c2.773-0.38,5.427-0.397,7.958-0.054
		c0.844,0.09,1.821,0.314,2.931,0.678c1.108,0.362,2.14,0.838,3.093,1.43c0.951,0.591,1.748,1.294,2.391,2.111
		c0.64,0.817,0.876,1.763,0.707,2.836c-0.031,2.075-0.506,4.222-1.423,6.437c-0.917,2.218-2.083,4.429-3.501,6.638
		c-1.416,2.209-3.006,4.376-4.767,6.502c-1.763,2.128-3.483,4.119-5.163,5.978c-1.682,1.859-3.264,3.547-4.746,5.061
		c-1.484,1.518-2.618,2.769-3.4,3.755c2.627-0.959,5.715-1.777,9.263-2.456c3.545-0.677,7.026-0.875,10.444-0.594
		c3.416,0.281,6.479,1.174,9.188,2.673c2.705,1.503,4.496,3.913,5.369,7.231c0.201,2.003-0.218,4.245-1.253,6.728
		c-1.037,2.484-2.497,5.057-4.382,7.719c-1.886,2.664-4.098,5.342-6.637,8.03c-2.539,2.692-5.191,5.286-7.957,7.782
		c-2.768,2.495-5.55,4.8-8.349,6.91c-2.8,2.112-5.384,3.938-7.751,5.478c-2.369,1.541-4.441,2.702-6.222,3.482
		c-1.78,0.781-3.054,1.091-3.819,0.924l-2.697-4.653c0.382,0.082,1.621-0.533,3.717-1.848c2.096-1.312,4.602-3.045,7.516-5.193
		c2.916-2.147,6.046-4.597,9.393-7.355c3.347-2.757,6.483-5.534,9.408-8.336c2.926-2.8,5.405-5.513,7.445-8.135
		c2.037-2.622,3.225-4.93,3.562-6.925c0.424-2.683-0.26-4.634-2.047-5.854c-1.789-1.218-4.221-1.851-7.295-1.896
		s-6.504,0.423-10.285,1.403c-3.781,0.982-7.375,2.274-10.781,3.876c-3.408,1.604-6.395,3.462-8.964,5.575
		c-2.568,2.115-4.179,4.319-4.827,6.616c-0.344,2.379-0.572,4.835-0.686,7.37c-0.115,2.536-0.211,5.092-0.287,7.666
		c-0.078,2.575-0.154,5.129-0.229,7.665c-0.077,2.536-0.287,4.955-0.628,7.256c-0.256,1.688-0.604,3.066-1.041,4.137
		c-0.439,1.069-1.578,1.436-3.419,1.103c-0.155-0.002-0.423-0.046-0.806-0.127c-0.385-0.084-0.574-0.164-0.572-0.24L1238.027,377.63
		z M1244.925,386.729c-0.254,1.534-0.457,3.492-0.607,5.872c-0.15,2.382-0.244,4.839-0.281,7.376c-0.039,2.536,0.02,5,0.177,7.384
		c0.156,2.387,0.415,4.389,0.776,6.009c1.4-1.133,3.327-2.719,5.779-4.759c2.452-2.038,5.061-4.324,7.829-6.859
		c2.766-2.535,5.478-5.203,8.134-8.01c2.654-2.804,4.869-5.521,6.638-8.146c1.769-2.627,2.9-5.031,3.394-7.216
		c0.494-2.183-0.018-3.939-1.535-5.27c-1.383-0.174-3.053-0.22-5.016-0.133c-1.961,0.087-4.022,0.325-6.18,0.715
		c-2.159,0.393-4.321,0.956-6.483,1.691c-2.165,0.737-4.138,1.65-5.923,2.736c-1.785,1.089-3.283,2.355-4.496,3.797
		C1245.916,383.361,1245.181,384.964,1244.925,386.729z"/>
	<path fill="#FFFFFF" d="M1300.827,435.191c0.067-9.687,1.198-18.492,3.392-26.418c2.194-7.924,5.025-14.818,8.496-20.689
		c3.471-5.867,7.326-10.595,11.571-14.184c4.243-3.588,8.448-5.852,12.614-6.789c4.166-0.937,8.08-0.494,11.742,1.328
		c3.664,1.822,6.611,5.212,8.844,10.164c2.011,4.412,3.356,9.527,4.039,15.341c0.681,5.815,0.727,11.813,0.135,17.992
		c-0.593,6.181-1.816,12.256-3.674,18.225c-1.857,5.97-4.34,11.372-7.447,16.208c-3.111,4.835-6.803,8.817-11.077,11.942
		c-4.275,3.128-9.146,4.921-14.61,5.376c-4.31,0.166-7.986-0.753-11.03-2.759c-3.046-2.007-5.526-4.504-7.442-7.491
		c-1.916-2.988-3.33-6.163-4.24-9.521C1301.226,440.558,1300.791,437.651,1300.827,435.191z M1326.101,379.75
		c-1.324,1.059-2.811,2.919-4.465,5.585c-1.654,2.668-3.279,5.852-4.871,9.558c-1.594,3.705-3.057,7.738-4.39,12.101
		s-2.399,8.769-3.195,13.215c-0.798,4.448-1.208,8.785-1.231,13.013c-0.025,4.228,0.514,8.062,1.615,11.499
		c1.104,3.438,2.828,6.31,5.178,8.611c2.348,2.303,5.518,3.754,9.506,4.35c3.068,0.432,6.178-0.522,9.326-2.858
		s6.061-5.521,8.734-9.557s5.029-8.632,7.068-13.792c2.036-5.159,3.555-10.307,4.555-15.443c0.836-4.601,1.288-9.108,1.354-13.53
		c0.066-4.418-0.297-8.479-1.087-12.183c-0.792-3.701-1.973-6.909-3.546-9.625c-1.574-2.713-3.546-4.665-5.91-5.854
		c-2.366-1.188-5.11-1.44-8.234-0.757C1333.382,374.767,1329.914,376.656,1326.101,379.75z"/>
	<path fill="#FFFFFF" d="M1367.896,368.841c0.238-0.534,0.724-0.95,1.46-1.247c0.734-0.296,1.506-0.438,2.312-0.427
		c0.808,0.012,1.514,0.234,2.124,0.666c0.607,0.433,0.981,1.11,1.123,2.033l0.598,6.354c1.463-0.285,3.202-0.894,5.216-1.826
		c2.013-0.931,4.353-1.838,7.019-2.722c2.665-0.882,5.654-1.605,8.969-2.171s7.004-0.588,11.072-0.065
		c6.283,1.323,10.836,2.852,13.655,4.585c2.817,1.733,4.309,3.621,4.472,5.659c0.16,2.04-0.718,4.219-2.635,6.535
		c-1.92,2.317-4.472,4.644-7.658,6.978c-3.188,2.336-6.759,4.705-10.715,7.105c-3.957,2.403-7.817,4.709-11.578,6.921
		c-3.764,2.212-7.254,4.313-10.473,6.301c-3.222,1.99-5.65,3.82-7.29,5.484l53.59,33.32c-0.019,1.23-0.536,2.396-1.552,3.494
		c-1.016,1.101-2.176,1.565-3.48,1.391l-50.409-30.043l-0.57,38.278c-0.935,0.754-1.73,1.243-2.386,1.464
		c-0.658,0.22-1.178,0.288-1.561,0.206c-0.385-0.083-0.727-0.298-1.027-0.648c-0.303-0.352-0.566-0.721-0.791-1.107
		L1367.896,368.841z M1375.384,384.867c-0.179,1.536-0.321,3.38-0.43,5.528c-0.109,2.152-0.181,4.438-0.217,6.86
		c-0.036,2.42-0.071,4.804-0.106,7.147c-0.035,2.347-0.065,4.438-0.094,6.284c0.39-0.379,1.61-1.072,3.663-2.08
		c2.052-1.007,4.55-2.256,7.494-3.75c2.943-1.494,6.102-3.157,9.475-4.992c3.371-1.832,6.57-3.726,9.598-5.681
		c3.027-1.953,5.689-3.894,7.986-5.819c2.296-1.927,3.784-3.73,4.463-5.412c0.678-1.681,0.354-3.203-0.969-4.568
		c-1.326-1.365-4.059-2.464-8.197-3.294c-2.304-0.188-5.014-0.151-8.131,0.109c-3.119,0.261-6.24,0.771-9.365,1.532
		s-6.043,1.812-8.754,3.155C1379.088,381.231,1376.95,382.891,1375.384,384.867z"/>
	<path fill="#FFFFFF" d="M1449.997,462.323c-0.065-0.77,0.916-2.178,2.946-4.223c2.029-2.046,4.604-4.545,7.723-7.497
		c3.118-2.951,6.533-6.341,10.242-10.169c3.709-3.826,7.211-7.965,10.508-12.413c3.295-4.449,6.112-9.135,8.455-14.059
		c2.34-4.925,3.703-9.959,4.088-15.104c0.035-2.382-0.588-4.525-1.865-6.43c-1.279-1.901-2.926-3.618-4.939-5.147
		c-2.016-1.529-4.322-2.85-6.918-3.967c-2.598-1.114-5.179-2.056-7.742-2.824c-2.566-0.769-5.036-1.344-7.413-1.726
		c-2.378-0.382-4.374-0.584-5.987-0.608c-0.386-0.006-0.942,0.006-1.673,0.033c-0.731,0.029-1.559,0.132-2.484,0.309
		c-0.925,0.18-1.87,0.396-2.835,0.65c-0.967,0.256-1.836,0.606-2.611,1.057l4.26,70.179c0.371,0.853,0.338,1.775-0.099,2.767
		c-0.438,0.994-1.065,1.829-1.882,2.51c-0.818,0.68-1.688,1.033-2.611,1.056c-0.923,0.026-1.646-0.503-2.168-1.589l-4.578-71.914
		c-0.233,0.15-0.68,0.375-1.337,0.672c-0.658,0.299-1.335,0.614-2.032,0.95c-0.697,0.335-1.355,0.671-1.975,1.008
		c-0.622,0.338-1.047,0.543-1.279,0.616c-0.077-0.002-0.212,0.016-0.403,0.051c-0.194,0.036-0.329,0.053-0.405,0.052
		c-0.461-0.007-0.978-0.13-1.551-0.369c-0.573-0.238-0.854-0.743-0.842-1.512c0.02-1.307,0.322-2.359,0.912-3.158
		c0.588-0.799,1.328-1.536,2.223-2.215s1.865-1.337,2.914-1.975c1.047-0.637,2.02-1.488,2.92-2.552
		c0.899-1.062,1.65-2.397,2.251-4.004c0.601-1.604,0.921-3.675,0.958-6.212c1.689,0.024,2.742,0.349,3.156,0.97
		c0.412,0.622,0.652,1.336,0.719,2.144c0.062,0.809,0.166,1.617,0.309,2.428c0.143,0.808,0.746,1.413,1.818,1.813
		c2.386-0.195,5.309-0.228,8.766-0.101c3.459,0.129,7.064,0.566,10.822,1.315c3.754,0.747,7.469,1.783,11.14,3.107
		c3.671,1.322,6.949,3.083,9.839,5.277c2.889,2.196,5.155,4.825,6.802,7.886c1.645,3.062,2.323,6.628,2.032,10.698
		c-0.711,6.294-2.415,12.361-5.115,18.202c-2.701,5.841-6.11,11.498-10.229,16.974c-4.117,5.474-8.867,10.806-14.25,15.99
		c-5.382,5.187-11.109,10.311-17.182,15.37c-0.078-0.001-0.213,0.015-0.404,0.052c-0.193,0.035-0.328,0.053-0.404,0.052
		c-0.77-0.012-1.395-0.558-1.879-1.643C1450.22,464.018,1449.986,463.092,1449.997,462.323z"/>
	<path fill="#FFFFFF" d="M1507.62,464.911c0.11-7.379,0.355-14.909,0.741-22.593c0.383-7.681,0.613-15.424,0.691-23.226
		c0.076-7.803-0.135-15.552-0.634-23.248c-0.502-7.694-1.542-15.245-3.122-22.65c0.006-0.384,0.166-0.862,0.482-1.435
		c0.314-0.57,0.709-1.083,1.177-1.538c0.468-0.454,0.992-0.811,1.573-1.072c0.58-0.26,1.174-0.271,1.787-0.03
		c0.992,0.399,1.809,1.161,2.445,2.284c0.636,1.124,1.119,2.343,1.445,3.653c0.326,1.314,0.538,2.565,0.635,3.759
		c0.098,1.194,0.143,2.06,0.135,2.596l44.555-10.406c0.69,0.165,1.241,0.577,1.653,1.234c0.412,0.661,0.595,1.394,0.546,2.2
		c-0.053,0.807-0.332,1.591-0.844,2.352c-0.512,0.762-1.27,1.29-2.272,1.58l-43.875,11.226c-0.074,4.997-0.015,9.957,0.183,14.879
		c0.195,4.925,0.447,9.925,0.756,15.004l32.221-10.706c0.936-0.909,1.731-1.512,2.391-1.811c0.656-0.296,1.35-0.401,2.081-0.314
		c0.728,0.088,1.432,0.676,2.106,1.761c-0.023,1.539-0.965,2.926-2.83,4.167c-1.864,1.241-4.168,2.38-6.913,3.414
		c-2.743,1.038-5.72,2.011-8.923,2.924c-3.205,0.915-6.18,1.85-8.922,2.807c-2.744,0.96-5.045,1.944-6.905,2.954
		c-1.86,1.011-2.8,2.092-2.817,3.245l-1.258,30.312c1.143,0.709,2.811,0.946,5.006,0.709c2.195-0.236,4.643-0.719,7.345-1.448
		c2.701-0.728,5.56-1.627,8.573-2.697c3.015-1.069,5.913-2.084,8.695-3.042c2.781-0.957,5.35-1.803,7.707-2.537
		c2.354-0.733,4.263-1.128,5.727-1.183c0.69,0.087,1.301,0.347,1.833,0.776c0.53,0.432,0.91,0.918,1.133,1.458
		c0.222,0.542,0.231,1.099,0.032,1.672c-0.203,0.574-0.728,1.047-1.578,1.418c-3.018,1.265-6.653,2.67-10.904,4.221
		c-4.253,1.552-8.637,3.042-13.156,4.474c-4.518,1.433-8.9,2.676-13.145,3.727c-4.244,1.052-7.828,1.671-10.752,1.857
		c-1.075-0.169-1.936-0.433-2.584-0.787C1509.191,466.492,1508.451,465.846,1507.62,464.911z"/>
	<path fill="#FFFFFF" d="M1569.436,371.844c0.238-0.533,0.724-0.95,1.46-1.247c0.734-0.296,1.506-0.438,2.314-0.427
		c0.807,0.013,1.512,0.234,2.121,0.666c0.608,0.433,0.982,1.11,1.124,2.033l0.597,6.354c1.465-0.285,3.203-0.893,5.218-1.826
		c2.012-0.93,4.352-1.838,7.017-2.721c2.666-0.883,5.655-1.605,8.971-2.172c3.313-0.565,7.003-0.587,11.072-0.065
		c6.282,1.323,10.836,2.853,13.654,4.585c2.818,1.734,4.309,3.622,4.472,5.66c0.159,2.04-0.718,4.219-2.636,6.534
		c-1.92,2.317-4.471,4.644-7.656,6.979c-3.189,2.336-6.759,4.705-10.717,7.104c-3.956,2.403-7.815,4.71-11.578,6.921
		c-3.762,2.212-7.253,4.313-10.472,6.302c-3.222,1.99-5.65,3.819-7.29,5.484l53.592,33.32c-0.02,1.23-0.537,2.396-1.553,3.494
		c-1.016,1.101-2.176,1.564-3.48,1.39l-50.41-30.043l-0.57,38.278c-0.934,0.754-1.73,1.243-2.385,1.464
		c-0.658,0.22-1.178,0.288-1.561,0.206c-0.385-0.083-0.727-0.298-1.029-0.647c-0.302-0.352-0.564-0.721-0.789-1.108
		L1569.436,371.844z M1576.923,387.87c-0.178,1.537-0.32,3.38-0.428,5.529c-0.109,2.152-0.182,4.438-0.218,6.859
		c-0.036,2.42-0.071,4.804-0.106,7.147c-0.035,2.347-0.066,4.438-0.094,6.284c0.39-0.378,1.611-1.072,3.664-2.08
		c2.051-1.007,4.549-2.256,7.494-3.75c2.943-1.494,6.101-3.157,9.474-4.992c3.372-1.832,6.57-3.725,9.599-5.681
		c3.027-1.953,5.689-3.894,7.986-5.819c2.295-1.927,3.783-3.729,4.463-5.411c0.678-1.681,0.354-3.204-0.971-4.569
		s-4.057-2.464-8.195-3.294c-2.305-0.188-5.015-0.15-8.131,0.109c-3.119,0.262-6.241,0.771-9.365,1.533
		c-3.125,0.76-6.045,1.812-8.754,3.155C1580.628,384.235,1578.49,385.894,1576.923,387.87z"/>
	<path fill="#FFFFFF" d="M1637.004,438.412c-0.646-0.661-1.073-1.516-1.288-2.556c-0.215-1.042-0.104-2.096,0.335-3.167
		c0.438-1.068,1.429-1.783,2.974-2.146l39.797-0.676c0.766,0.012,1.34,0.309,1.717,0.891c0.373,0.582,0.594,1.317,0.658,2.2
		c0.062,0.886-0.01,1.788-0.215,2.707c-0.205,0.92-0.504,1.647-0.896,2.179l-41.186,1.001
		C1638.279,439.22,1637.647,439.076,1637.004,438.412z"/>
	<path fill="#FFFFFF" d="M1688.496,384.342c-0.367-1.312-0.637-2.488-0.812-3.528c-0.178-1.041-0.18-2.175-0.008-3.403
		c0.082-0.383,0.186-0.804,0.307-1.264c0.123-0.46,0.318-0.82,0.594-1.087c0.273-0.264,0.641-0.452,1.104-0.561
		s1.076-0.001,1.84,0.316c0.457,0.237,0.912,0.647,1.365,1.23c0.453,0.584,0.846,1.265,1.182,2.037
		c0.334,0.774,0.611,1.509,0.832,2.203c0.221,0.696,0.365,1.274,0.436,1.736c2.094-1.197,4.418-2.413,6.973-3.644
		c2.557-1.231,5.205-2.267,7.947-3.111c2.74-0.842,5.5-1.454,8.273-1.837c2.773-0.38,5.424-0.397,7.957-0.055
		c0.844,0.091,1.82,0.315,2.932,0.679c1.107,0.362,2.139,0.838,3.092,1.43c0.951,0.59,1.748,1.294,2.391,2.111
		c0.641,0.817,0.877,1.762,0.707,2.836c-0.031,2.075-0.506,4.221-1.422,6.437c-0.918,2.217-2.084,4.429-3.502,6.638
		c-1.416,2.209-3.006,4.376-4.768,6.502c-1.76,2.127-3.482,4.118-5.162,5.977c-1.682,1.86-3.264,3.547-4.746,5.062
		c-1.484,1.518-2.619,2.769-3.4,3.755c2.627-0.959,5.715-1.777,9.262-2.456c3.545-0.677,7.029-0.875,10.445-0.594
		s6.479,1.174,9.186,2.673c2.707,1.502,4.498,3.913,5.371,7.23c0.201,2.004-0.219,4.246-1.254,6.729
		c-1.037,2.483-2.496,5.057-4.383,7.719c-1.885,2.663-4.096,5.341-6.635,8.03c-2.539,2.692-5.193,5.286-7.957,7.782
		c-2.768,2.495-5.551,4.8-8.35,6.91c-2.797,2.112-5.383,3.938-7.75,5.478c-2.369,1.541-4.441,2.702-6.221,3.482
		c-1.783,0.781-3.055,1.09-3.82,0.924l-2.697-4.654c0.383,0.083,1.621-0.532,3.717-1.847c2.096-1.313,4.6-3.045,7.516-5.193
		c2.914-2.147,6.045-4.598,9.393-7.355c3.346-2.757,6.484-5.535,9.41-8.337c2.922-2.8,5.404-5.512,7.441-8.134
		c2.039-2.622,3.227-4.93,3.564-6.925c0.424-2.683-0.26-4.634-2.047-5.854c-1.789-1.217-4.221-1.85-7.295-1.896
		s-6.504,0.423-10.283,1.403c-3.783,0.982-7.379,2.274-10.783,3.875c-3.408,1.604-6.396,3.463-8.963,5.576
		c-2.568,2.114-4.178,4.319-4.828,6.616c-0.344,2.379-0.572,4.835-0.686,7.37c-0.115,2.536-0.211,5.092-0.287,7.665
		c-0.078,2.576-0.154,5.13-0.23,7.666c-0.078,2.536-0.287,4.954-0.627,7.256c-0.256,1.688-0.604,3.066-1.041,4.137
		c-0.441,1.068-1.58,1.436-3.418,1.103c-0.156-0.002-0.424-0.047-0.807-0.127c-0.385-0.084-0.574-0.164-0.572-0.24L1688.496,384.342
		z M1695.394,393.442c-0.254,1.534-0.457,3.491-0.607,5.872c-0.15,2.382-0.244,4.839-0.283,7.376c-0.037,2.536,0.021,5,0.18,7.383
		c0.154,2.387,0.414,4.39,0.775,6.01c1.4-1.133,3.326-2.719,5.779-4.759c2.451-2.038,5.061-4.324,7.83-6.859
		c2.764-2.535,5.477-5.203,8.133-8.01c2.654-2.804,4.867-5.521,6.637-8.146s2.9-5.031,3.395-7.216
		c0.494-2.183-0.02-3.938-1.535-5.269c-1.381-0.174-3.053-0.22-5.016-0.133c-1.961,0.086-4.023,0.325-6.18,0.715
		c-2.16,0.392-4.32,0.955-6.482,1.691c-2.166,0.737-4.141,1.65-5.924,2.736c-1.785,1.089-3.283,2.354-4.496,3.797
		C1696.384,390.074,1695.652,391.677,1695.394,393.442z"/>
	<path fill="#FFFFFF" d="M1751.294,441.903c0.066-9.687,1.197-18.491,3.393-26.417c2.193-7.924,5.023-14.819,8.496-20.689
		c3.471-5.867,7.326-10.596,11.57-14.185c4.244-3.588,8.449-5.851,12.615-6.789c4.164-0.936,8.078-0.494,11.742,1.329
		c3.662,1.822,6.611,5.212,8.844,10.164c2.01,4.412,3.355,9.526,4.039,15.341c0.68,5.815,0.727,11.813,0.135,17.992
		c-0.594,6.181-1.816,12.255-3.674,18.224c-1.857,5.97-4.34,11.373-7.449,16.208c-3.111,4.836-6.801,8.818-11.076,11.943
		c-4.275,3.128-9.146,4.921-14.609,5.375c-4.311,0.167-7.986-0.753-11.031-2.758c-3.047-2.007-5.525-4.504-7.441-7.492
		s-3.33-6.162-4.24-9.521C1751.693,447.271,1751.257,444.363,1751.294,441.903z M1776.57,386.461
		c-1.324,1.059-2.812,2.92-4.467,5.586c-1.654,2.668-3.277,5.852-4.869,9.557c-1.594,3.706-3.057,7.739-4.391,12.102
		s-2.398,8.769-3.195,13.214c-0.799,4.448-1.207,8.786-1.23,13.014c-0.025,4.228,0.514,8.062,1.615,11.499
		c1.102,3.437,2.826,6.309,5.176,8.611s5.518,3.754,9.508,4.35c3.066,0.432,6.178-0.522,9.326-2.859
		c3.148-2.335,6.059-5.521,8.734-9.556c2.674-4.036,5.029-8.633,7.066-13.792s3.557-10.307,4.555-15.443
		c0.838-4.601,1.291-9.108,1.355-13.53c0.066-4.418-0.297-8.48-1.086-12.184c-0.793-3.7-1.975-6.908-3.549-9.624
		c-1.574-2.713-3.545-4.665-5.908-5.854c-2.367-1.189-5.111-1.441-8.234-0.757C1783.851,381.479,1780.382,383.369,1776.57,386.461z"
		/>
	<path fill="#FFFFFF" d="M1821.195,472.006c-1.314,0.364-2.354,0.444-3.119,0.241c-0.766-0.202-1.391-0.75-1.877-1.643
		c-0.488-0.891-0.521-2.409-0.105-4.558l22.729-39.332l-23.859-47.292c-0.203-1.771,0.199-3.014,1.209-3.729
		c1.01-0.715,2.318-0.868,3.928-0.46l23.564,43.826c0.473-0.685,1.299-2.073,2.484-4.171c1.184-2.096,2.564-4.575,4.146-7.435
		c1.58-2.859,3.242-5.948,4.982-9.268c1.738-3.317,3.441-6.521,5.102-9.611c1.66-3.088,3.182-5.891,4.566-8.408
		c1.381-2.516,2.467-4.42,3.256-5.716c0.463-0.069,0.998-0.023,1.611,0.139c0.613,0.164,1.186,0.402,1.721,0.718
		c0.531,0.316,0.93,0.726,1.191,1.229c0.262,0.504,0.273,1.099,0.031,1.787l-25.51,48.056l24.17,41.877
		c0.52,1.161,0.582,2.182,0.186,3.059c-0.398,0.88-0.986,1.505-1.758,1.877c-0.775,0.372-1.604,0.476-2.484,0.309
		c-0.883-0.167-1.547-0.714-1.994-1.645l-21.906-39.074l-21.785,37.963L1821.195,472.006z"/>
</g>
<g enable-background="new    ">
	<path fill="#5CBA47" d="M1345.441,604.945c4.719-7.051,9.334-13.779,13.845-20.184c4.509-6.402,8.968-12.781,13.377-19.138
		c4.407-6.353,8.692-12.834,12.854-19.445c4.162-6.608,8.254-13.646,12.277-21.109c0.312-0.696,0.922-1.289,1.833-1.778
		c0.909-0.487,1.84-0.748,2.796-0.786c0.951-0.035,1.826,0.154,2.624,0.566c0.796,0.414,1.236,1.123,1.323,2.126l-1.185,59.271
		c3.811,0.057,7.503-0.339,11.078-1.188c3.571-0.85,7.265-1.246,11.077-1.189c0.954,3.225,0.823,5.405-0.397,6.539
		c-1.222,1.137-3.038,1.837-5.448,2.102c-2.412,0.265-5.123,0.45-8.135,0.556c-3.012,0.106-5.779,0.692-8.303,1.758l-0.553,57.324
		c-0.016,1.001-0.428,1.698-1.236,2.088c-0.809,0.388-1.715,0.576-2.716,0.561c-1.004-0.015-1.979-0.231-2.925-0.645
		c-0.948-0.416-1.619-0.877-2.011-1.384l0.843-56.568L1345.441,604.945z M1362.596,594.818l33.823-7.772l3.267-47.503
		L1362.596,594.818z"/>
	<path fill="#5CBA47" d="M1437.994,644.847c0.018-21.466-0.068-39.352-0.254-53.649c-0.189-14.299-0.367-25.889-0.535-34.769
		c-0.169-8.882-0.322-15.453-0.459-19.721c-0.139-4.264-0.195-7.049-0.176-8.354c0.021-1.505,0.465-2.701,1.332-3.592
		c0.865-0.89,1.799-1.302,2.803-1.236c1,0.066,1.947,0.63,2.834,1.697c0.887,1.065,1.361,2.754,1.429,5.062l3.171,110.35
		l65.5-12.869c6.719,0.1,8.131,2.981,4.234,8.641l-75.764,14.973C1439.3,651.337,1437.929,649.161,1437.994,644.847z"/>
	<path fill="#5CBA47" d="M1541.859,602.155l-45.578-61.775c0.02-1.302,0.735-2.321,2.152-3.053c1.414-0.729,2.674-1.088,3.778-1.071
		l43.278,54.516c0.411-0.795,1.166-2.59,2.262-5.382c1.095-2.792,2.373-6.135,3.836-10.025c1.461-3.892,3.03-8.157,4.705-12.796
		c1.673-4.642,3.271-9.255,4.796-13.849c1.521-4.59,2.864-8.91,4.03-12.956c1.162-4.046,2.016-7.469,2.561-10.27
		c0.711-0.69,1.493-0.93,2.344-0.718c0.848,0.216,1.645,0.627,2.389,1.239c0.744,0.613,1.357,1.352,1.849,2.209
		c0.487,0.861,0.729,1.592,0.72,2.193c-3.67,10.479-6.76,19.362-9.275,26.647c-2.517,7.286-4.617,13.45-6.295,18.49
		c-1.682,5.042-3.021,9.11-4.02,12.204c-1,3.096-1.791,5.691-2.373,7.789c-0.584,2.099-1.088,3.873-1.509,5.32
		c-0.424,1.448-0.872,2.973-1.347,4.569c-0.476,1.598-1.057,3.497-1.74,5.692c-0.687,2.198-1.656,5.091-2.914,8.684
		c-1.256,3.594-2.881,8.109-4.867,13.547c-1.986,5.438-4.446,12.197-7.374,20.279c-1.505-0.022-3.034-0.045-4.589-0.068
		c-1.556-0.022-2.32-0.786-2.298-2.291L1541.859,602.155z"/>
	<path fill="#5CBA47" d="M1590.341,529.593c0.018-1.204,0.381-2.049,1.09-2.542c0.709-0.489,1.567-0.827,2.574-1.015
		c1.004-0.186,2.059-0.271,3.164-0.254c1.102,0.017,2.055-0.02,2.861-0.107l-0.238,15.946c7.354-2.097,13.451-3.986,18.293-5.671
		c4.84-1.682,9.227-3.173,13.157-4.47c3.932-1.295,7.762-2.492,11.49-3.59c3.727-1.097,8.157-2.159,13.29-3.188
		c0.801,0.012,1.348,0.422,1.636,1.228c0.289,0.81,0.431,1.512,0.421,2.113c-0.02,1.305-0.738,2.347-2.152,3.128l-55.668,19.485
		l1.832,48.782c8.291-4.489,15.295-8.298,21.012-11.425c5.712-3.124,10.441-5.712,14.186-7.763c3.74-2.052,6.648-3.611,8.722-4.686
		c2.071-1.072,3.613-1.852,4.624-2.339c1.01-0.486,1.615-0.778,1.819-0.876c0.202-0.096,0.353-0.146,0.453-0.144
		c0.907-0.288,1.509-0.253,1.805,0.103c0.296,0.356,0.438,0.885,0.428,1.585c-0.011,0.703-0.149,1.503-0.412,2.403
		c-0.265,0.898-0.552,1.747-0.865,2.544c-0.513,0.695-2.161,1.875-4.944,3.538c-2.784,1.665-6.098,3.572-9.941,5.72
		c-3.846,2.151-7.916,4.423-12.215,6.816c-4.301,2.395-8.295,4.616-11.986,6.668c-3.695,2.052-6.754,3.864-9.186,5.431
		c-2.431,1.569-3.65,2.604-3.658,3.105l-0.133,39.273c-0.021,1.406-0.289,2.505-0.803,3.298c-0.515,0.798-1.322,1.185-2.425,1.169
		c-1.203-0.019-2.259-1.614-3.163-4.788c-0.908-3.174-1.673-7.398-2.295-12.675c-0.624-5.275-1.136-11.352-1.533-18.23
		c-0.401-6.876-0.695-13.979-0.887-21.307c-0.192-7.324-0.335-14.624-0.426-21.9c-0.094-7.274-0.145-13.971-0.152-20.091
		c-0.011-6.118,0.02-11.437,0.087-15.95C1590.269,534.408,1590.316,531.299,1590.341,529.593z"/>
	<path fill="#5CBA47" d="M1664.367,651.38c0.144-9.628,0.465-19.454,0.967-29.479c0.499-10.023,0.8-20.127,0.902-30.308
		c0.101-10.18-0.175-20.292-0.826-30.335c-0.654-10.04-2.013-19.893-4.074-29.555c0.008-0.501,0.217-1.125,0.629-1.871
		c0.412-0.745,0.926-1.415,1.535-2.009c0.611-0.592,1.296-1.057,2.053-1.398c0.757-0.339,1.533-0.354,2.332-0.04
		c1.296,0.522,2.36,1.516,3.192,2.981c0.829,1.467,1.46,3.057,1.886,4.768c0.426,1.714,0.701,3.348,0.829,4.904
		c0.127,1.557,0.186,2.687,0.175,3.387l58.137-13.579c0.9,0.216,1.619,0.754,2.158,1.612c0.537,0.861,0.774,1.817,0.709,2.869
		c-0.067,1.053-0.433,2.077-1.098,3.069c-0.668,0.994-1.657,1.683-2.967,2.062l-57.248,14.646
		c-0.098,6.521-0.021,12.993,0.236,19.416c0.255,6.425,0.584,12.95,0.986,19.577l42.043-13.97c1.222-1.187,2.261-1.972,3.12-2.361
		c0.856-0.387,1.761-0.523,2.715-0.411c0.95,0.115,1.867,0.882,2.749,2.299c-0.03,2.007-1.261,3.817-3.692,5.437
		c-2.433,1.619-5.44,3.104-9.02,4.456c-3.583,1.352-7.465,2.622-11.644,3.812c-4.183,1.194-8.062,2.416-11.643,3.665
		c-3.58,1.251-6.583,2.536-9.01,3.853c-2.428,1.318-3.653,2.73-3.676,4.234l-1.643,39.552c1.49,0.926,3.668,1.235,6.533,0.926
		c2.862-0.309,6.057-0.938,9.582-1.89c3.524-0.949,7.256-2.123,11.189-3.521c3.932-1.394,7.714-2.718,11.344-3.969
		c3.631-1.248,6.98-2.354,10.057-3.312c3.073-0.955,5.564-1.471,7.472-1.544c0.901,0.115,1.698,0.454,2.393,1.015
		c0.692,0.562,1.186,1.197,1.476,1.902c0.291,0.708,0.303,1.434,0.043,2.184c-0.262,0.748-0.949,1.365-2.059,1.851
		c-3.938,1.646-8.682,3.48-14.227,5.505c-5.55,2.024-11.271,3.971-17.166,5.838c-5.896,1.869-11.615,3.491-17.152,4.862
		c-5.539,1.373-10.217,2.18-14.031,2.424c-1.402-0.221-2.526-0.563-3.37-1.027C1666.417,653.443,1665.453,652.601,1664.367,651.38z"
		/>
</g>
</svg>
