<svg xmlns="http://www.w3.org/2000/svg" viewBox="0 0 594.9 113.2" enable-background="new 0 0 594.9 113.2"><path d="M127 5.6h35.7c11.5 0 19.5 3 24.6 8.2 4.4 4.3 6.7 10.1 6.7 17.6v.2c0 11.6-6.2 19.2-15.5 23.2l18 26.3h-24.2l-15.2-22.9h-9.2v22.9H127V5.6zm34.7 36.3c7.1 0 11.2-3.5 11.2-9v-.2c0-5.9-4.3-9-11.3-9h-13.7v18.1h13.8zm202.4 28L375.7 56c7.5 5.9 15.8 9.1 24.5 9.1 5.6 0 8.6-1.9 8.6-5.2v-.2c0-3.1-2.5-4.9-12.7-7.2-16.1-3.7-28.5-8.2-28.5-23.7v-.2c0-14 11.1-24.2 29.2-24.2 12.8 0 22.9 3.5 31.1 10l-10.5 14.8c-6.9-4.9-14.5-7.4-21.1-7.4-5.1 0-7.6 2.2-7.6 4.9v.2c0 3.5 2.6 5 13.1 7.3C419.2 38 430 43.6 430 57.7v.2c0 15.4-12.2 24.6-30.5 24.6-13.4-.1-26.2-4.3-35.4-12.6zm73.1-64.3h47.5l10.8 17.8h-37.6v11.4H491v16.5h-33.1v12h38.6v17.8h-59.3V5.6zm113 0l-15.6 27.5-15.5-27.5h-23.9l28.7 47.3v28.3H545V52.6l28.7-47zm-306.5-.5h-20.2l-26.1 61.7 9.8 14.3h6.2l5.4-13.5h29.1l5.5 13.5h22.4l-32.1-76zM225 51.4l8.5-21.5 8.4 21.5H225zM336.4 5.6l-18 29.3-18-29.3h-22.1v57.7l7.6 17.9h12.9V38L318 67.3h.4l19.3-29.5v43.4h20.8V5.6zM133.9 98.5c3.6.9 5.5 2.2 5.5 5 0 3.2-2.5 5.1-6.1 5.1-2.6 0-5.1-.9-7.1-2.7l1.8-2.1c1.6 1.4 3.3 2.2 5.4 2.2 1.9 0 3-.9 3-2.2 0-1.2-.7-1.9-3.9-2.6-3.6-.9-5.7-2-5.7-5.1 0-3 2.4-5 5.8-5 2.5 0 4.5.8 6.2 2.1l-1.6 2.3c-1.5-1.1-3.1-1.8-4.6-1.8-1.8 0-2.8.9-2.8 2 .1 1.5.9 2.1 4.1 2.8zm51.3 10.2c-5.2 0-8.9-4-8.9-8.8 0-4.8 3.7-8.8 8.9-8.8s8.9 4 8.9 8.8c0 4.8-3.7 8.8-8.9 8.8zm0-14.9c-3.4 0-5.8 2.7-5.8 6s2.4 6.1 5.8 6.1 5.8-2.7 5.8-6-2.4-6.1-5.8-6.1zm47-2.4h3v14.3h9v2.7h-12v-17zm63.2 9.6c0 5.1-2.9 7.7-7.3 7.7s-7.3-2.6-7.3-7.5v-9.8h3v9.7c0 3.2 1.6 4.9 4.3 4.9 2.7 0 4.3-1.6 4.3-4.8v-9.8h3v9.6zm45.5 7.4h-3V94.2h-5.4v-2.8h13.8v2.8h-5.4v14.2zm45.8-17v17.1h-3V91.4h3zm46.9 17.3c-5.2 0-8.9-4-8.9-8.8 0-4.8 3.7-8.8 8.9-8.8s8.9 4 8.9 8.8c0 4.8-3.7 8.8-8.9 8.8zm0-14.9c-3.4 0-5.8 2.7-5.8 6s2.4 6.1 5.8 6.1 5.8-2.7 5.8-6-2.4-6.1-5.8-6.1zm58.9-2.4h2.9v17.1h-2.5l-9.4-12.1v12.1h-2.9V91.4h2.8l9.1 11.8V91.4zm48.3 7.1c3.6.9 5.5 2.2 5.5 5 0 3.2-2.5 5.1-6.1 5.1-2.6 0-5.1-.9-7.1-2.7l1.8-2.1c1.6 1.4 3.3 2.2 5.4 2.2 1.9 0 3-.9 3-2.2 0-1.2-.7-1.9-3.8-2.6-3.6-.9-5.7-2-5.7-5.1 0-3 2.4-5 5.8-5 2.5 0 4.5.8 6.2 2.1l-1.6 2.3c-1.5-1.1-3.1-1.8-4.6-1.8-1.8 0-2.8.9-2.8 2-.1 1.5.7 2.1 4 2.8zM61.2 46v-.1c0-5.5-4.9-5.7-7.5-5.7h-6.4v11.4h6.4c2.6.1 7.5-.1 7.5-5.6zM3.1 5.6v102.8H106V5.6H3.1zM31.8 30h24.3c5.7 0 10.1.7 12 1.5 6.5 2.8 8.4 10.2 8.4 14.4 0 4.2-1.9 11.6-8.4 14.4-1.9.8-4.3 1.5-12 1.5H31.8V30zm15.5 48.8H31.8V66h15.5v12.8zm17.1 5.3L53.8 66h16.6l11.2 18.2H64.4zm516.1-72.4h-.7V6.3h-2v-.7h4.8v.6h-2v5.5zm6.2-1.7l-2.3-3.3v4.9h-.7v-6h.7l2.2 3.3 2.2-3.3h.7v6.1h-.7V6.8l-2.1 3.2z" fill="#fff"/></svg>