<svg xmlns="http://www.w3.org/2000/svg" xmlns:xlink="http://www.w3.org/1999/xlink" version="1.1" x="0px" y="0px" viewBox="0 0 100 67.545" enable-background="new 0 0 100 54.036" xml:space="preserve"><path d="M50.234,35.062c5.558,0,11.462-1.787,11.462-5.097v-6.247c0-0.207-0.022-0.407-0.068-0.603  c-0.088-0.39-0.264-0.755-0.514-1.096c-0.125-0.171-0.268-0.335-0.427-0.493c-0.115-0.113-0.238-0.223-0.37-0.33  c-0.051-0.041-0.105-0.079-0.157-0.119c-0.085-0.064-0.168-0.127-0.258-0.188c-0.072-0.05-0.148-0.096-0.225-0.144  c-0.075-0.048-0.151-0.096-0.23-0.143c-0.091-0.053-0.185-0.104-0.279-0.154c-0.069-0.037-0.138-0.074-0.209-0.11  c-0.109-0.055-0.223-0.108-0.336-0.16c-0.061-0.028-0.12-0.056-0.183-0.082c-0.128-0.057-0.259-0.111-0.392-0.164  c-0.05-0.02-0.1-0.038-0.148-0.058c-0.149-0.056-0.299-0.112-0.453-0.165c-0.034-0.012-0.069-0.023-0.104-0.035  c-0.171-0.057-0.342-0.112-0.521-0.165c-1.088-0.324-2.29-0.562-3.536-0.709c-0.501-0.059-1.009-0.104-1.519-0.134  c-0.001,0-0.001,0-0.003,0c-0.508-0.03-1.02-0.045-1.529-0.045h0h-0.001c-4.86,0-9.99,1.368-11.196,3.928  c-0.172,0.365-0.264,0.755-0.264,1.169v0.601v2.076v3.57C38.774,33.274,44.679,35.062,50.234,35.062z M59.753,29.965  c0,1.285-3.705,3.152-9.516,3.152v-4.303c3.593-0.001,7.322-0.752,9.516-2.176V29.965z M40.76,23.471  c0.025-0.075,0.064-0.152,0.111-0.229c0.017-0.027,0.04-0.054,0.059-0.081c0.036-0.051,0.072-0.102,0.117-0.153  c0.029-0.033,0.064-0.067,0.097-0.1c0.044-0.045,0.089-0.09,0.14-0.135c0.043-0.038,0.09-0.075,0.137-0.112  c0.05-0.04,0.102-0.08,0.158-0.12c0.057-0.042,0.119-0.083,0.183-0.124c0.052-0.034,0.108-0.068,0.164-0.103  c0.075-0.045,0.152-0.091,0.235-0.136c0.05-0.028,0.104-0.055,0.156-0.082c0.097-0.05,0.195-0.1,0.301-0.148  c0.037-0.018,0.076-0.034,0.114-0.051c1.052-0.473,2.485-0.881,4.229-1.117c0.006-0.001,0.012-0.002,0.018-0.002  c0.25-0.034,0.506-0.063,0.768-0.089c0.011-0.001,0.021-0.002,0.031-0.003c0.264-0.026,0.533-0.048,0.808-0.066  c0.001,0,0.001,0,0.003,0c0.529-0.034,1.075-0.056,1.646-0.056c0.6,0,1.176,0.021,1.73,0.058c0.926,0.062,1.78,0.174,2.562,0.32  c0.053,0.01,0.108,0.02,0.162,0.031c0.618,0.12,1.187,0.264,1.703,0.422c0.053,0.016,0.104,0.033,0.156,0.049  c0.25,0.08,0.491,0.163,0.715,0.25c0.004,0.001,0.006,0.003,0.009,0.004c0.217,0.084,0.416,0.172,0.606,0.262  c0.046,0.022,0.093,0.044,0.138,0.066c0.185,0.091,0.36,0.184,0.517,0.277c0.006,0.003,0.01,0.006,0.016,0.009  c0.15,0.091,0.284,0.184,0.408,0.276c0.033,0.025,0.063,0.049,0.096,0.074c0.119,0.096,0.229,0.191,0.319,0.287  c0.25,0.266,0.38,0.527,0.38,0.768c0,1.286-3.707,3.153-9.517,3.153c-0.43,0-0.843-0.013-1.249-0.033  c-0.122-0.005-0.24-0.014-0.359-0.021c-0.29-0.018-0.575-0.041-0.853-0.067c-0.114-0.012-0.229-0.022-0.341-0.035  c-0.325-0.037-0.642-0.08-0.948-0.127c-0.041-0.007-0.084-0.012-0.125-0.019c-0.359-0.059-0.7-0.125-1.029-0.199  c-0.048-0.01-0.093-0.022-0.139-0.033c-0.282-0.065-0.552-0.134-0.809-0.208c-0.051-0.015-0.102-0.029-0.151-0.044  c-1.377-0.408-2.39-0.925-2.964-1.44c-0.022-0.02-0.043-0.04-0.063-0.06c-0.052-0.049-0.103-0.098-0.146-0.146  c-0.058-0.064-0.11-0.129-0.153-0.193c-0.02-0.028-0.033-0.056-0.049-0.084c-0.03-0.052-0.056-0.104-0.076-0.155  c-0.01-0.024-0.02-0.048-0.027-0.072c-0.021-0.073-0.038-0.146-0.038-0.217C40.717,23.638,40.732,23.555,40.76,23.471z"/><path d="M99.96,21.097c-0.009-0.027-0.021-0.053-0.03-0.08c-0.022-0.057-0.048-0.111-0.079-0.163  c-0.017-0.027-0.034-0.053-0.055-0.078c-0.036-0.048-0.076-0.09-0.121-0.131c-0.022-0.02-0.042-0.04-0.066-0.058  c-0.01-0.007-0.017-0.018-0.027-0.025c-0.063-0.044-0.132-0.079-0.202-0.106c-0.002,0-0.002-0.001-0.003-0.001l0,0  c-0.003-0.001-0.004-0.002-0.007-0.002L86.094,15.37v-0.845c0-0.207-0.022-0.408-0.068-0.603c-0.088-0.39-0.264-0.755-0.514-1.097  c-0.125-0.17-0.269-0.334-0.428-0.493c-0.114-0.113-0.238-0.222-0.369-0.329c-0.051-0.041-0.105-0.079-0.158-0.119  c-0.084-0.064-0.167-0.128-0.257-0.188c-0.072-0.05-0.148-0.097-0.225-0.144c-0.075-0.048-0.151-0.096-0.23-0.143  c-0.091-0.053-0.185-0.104-0.279-0.155c-0.07-0.037-0.139-0.074-0.209-0.11c-0.11-0.055-0.223-0.107-0.336-0.16  c-0.061-0.028-0.121-0.056-0.183-0.083c-0.128-0.056-0.26-0.111-0.392-0.164c-0.05-0.019-0.1-0.038-0.149-0.058  c-0.148-0.056-0.298-0.112-0.452-0.165c-0.035-0.012-0.069-0.022-0.104-0.035c-0.171-0.057-0.343-0.112-0.521-0.166  c-1.089-0.324-2.291-0.562-3.537-0.708c-0.5-0.059-1.008-0.104-1.518-0.134c-0.002,0-0.002,0-0.003,0  c-0.509-0.03-1.021-0.045-1.528-0.045h-0.002l0,0c-1.156,0-2.326,0.08-3.456,0.232l-9.714-3.719V5.097  c0-0.207-0.022-0.408-0.068-0.603c-0.088-0.39-0.264-0.755-0.514-1.097c-0.124-0.17-0.268-0.334-0.427-0.493  c-0.115-0.113-0.238-0.222-0.37-0.329c-0.051-0.041-0.105-0.079-0.157-0.119c-0.085-0.064-0.168-0.128-0.257-0.189  c-0.073-0.049-0.149-0.096-0.226-0.144c-0.075-0.048-0.151-0.096-0.23-0.143c-0.091-0.053-0.185-0.104-0.279-0.155  c-0.069-0.037-0.138-0.074-0.209-0.11c-0.109-0.055-0.222-0.107-0.336-0.16c-0.061-0.028-0.12-0.056-0.182-0.083  c-0.129-0.056-0.26-0.111-0.393-0.164c-0.05-0.02-0.099-0.038-0.148-0.058c-0.148-0.056-0.299-0.112-0.453-0.165  c-0.034-0.012-0.069-0.022-0.104-0.035c-0.171-0.057-0.342-0.112-0.521-0.166c-1.088-0.324-2.29-0.562-3.536-0.708  c-0.501-0.059-1.009-0.104-1.519-0.134c-0.001,0-0.001,0-0.002,0C51.021,0.016,50.51,0,50.001,0h0H50  c-4.86,0-9.99,1.368-11.196,3.928c-0.172,0.365-0.264,0.756-0.264,1.169v0.599l-9.789,3.688c0.05,0.006,0.099,0.015,0.148,0.021  c-0.082-0.01-0.163-0.023-0.245-0.034c-0.501-0.059-1.009-0.104-1.519-0.134c-0.001,0-0.001,0-0.002,0  c-0.509-0.03-1.021-0.045-1.529-0.045h-0.001h0c-4.861,0-9.99,1.368-11.196,3.928c-0.172,0.365-0.265,0.755-0.265,1.169v0.599  l-13.51,5.091c-0.074,0.028-0.145,0.064-0.211,0.11c-0.01,0.007-0.017,0.016-0.026,0.023c-0.024,0.018-0.044,0.038-0.066,0.058  c-0.045,0.041-0.086,0.083-0.123,0.131c-0.02,0.025-0.037,0.051-0.054,0.078c-0.032,0.052-0.057,0.105-0.079,0.161  c-0.011,0.027-0.023,0.053-0.031,0.081c-0.023,0.083-0.039,0.167-0.04,0.255c0,0.003-0.001,0.006-0.001,0.01  c0,0.001,0,0.001,0,0.001s0,0,0,0.001v13.318c0,0.402,0.248,0.764,0.624,0.907l49.263,18.856c0.009,0.004,0.019,0.002,0.027,0.006  c0.104,0.036,0.211,0.059,0.32,0.059c0.108,0,0.214-0.022,0.316-0.058c0.008-0.003,0.018-0.001,0.026-0.005L99.37,35.589  c0.379-0.143,0.63-0.505,0.63-0.909V21.361C100,21.27,99.983,21.183,99.96,21.097z M71.376,11.585  c0.251-0.033,0.507-0.063,0.769-0.089c0.011-0.001,0.021-0.002,0.031-0.003c0.264-0.026,0.532-0.048,0.809-0.065  c0.001,0,0.001,0,0.003,0c0.528-0.034,1.074-0.056,1.645-0.056c0.6,0,1.177,0.02,1.731,0.058c0.926,0.062,1.78,0.174,2.562,0.32  c0.054,0.01,0.108,0.02,0.162,0.031c0.619,0.121,1.188,0.264,1.704,0.422c0.053,0.016,0.104,0.033,0.155,0.049  c0.251,0.081,0.491,0.164,0.715,0.25c0.004,0.001,0.007,0.002,0.01,0.004c0.217,0.084,0.416,0.173,0.606,0.262  c0.045,0.022,0.092,0.044,0.138,0.066c0.185,0.091,0.36,0.183,0.517,0.277c0.006,0.003,0.01,0.006,0.015,0.01  c0.151,0.091,0.285,0.183,0.408,0.276c0.034,0.024,0.064,0.049,0.097,0.073c0.119,0.096,0.229,0.192,0.318,0.287  c0.251,0.266,0.381,0.527,0.381,0.769c0,1.286-3.707,3.153-9.517,3.153c-0.43,0-0.844-0.014-1.249-0.033  c-0.122-0.005-0.24-0.014-0.359-0.021c-0.29-0.018-0.575-0.041-0.853-0.068c-0.115-0.011-0.229-0.022-0.342-0.035  c-0.325-0.037-0.642-0.08-0.947-0.128c-0.041-0.007-0.084-0.011-0.125-0.018c-0.358-0.059-0.699-0.126-1.029-0.199  c-0.048-0.01-0.092-0.022-0.139-0.033c-0.282-0.065-0.552-0.135-0.809-0.208c-0.051-0.015-0.102-0.03-0.151-0.044  c-1.378-0.407-2.39-0.925-2.964-1.44c-0.022-0.02-0.044-0.039-0.064-0.06c-0.051-0.049-0.102-0.098-0.146-0.146  c-0.058-0.064-0.11-0.129-0.153-0.193c-0.02-0.028-0.033-0.056-0.049-0.083c-0.029-0.052-0.057-0.104-0.076-0.155  c-0.01-0.024-0.02-0.048-0.027-0.072c-0.021-0.074-0.037-0.146-0.037-0.217c0-0.081,0.015-0.163,0.043-0.247  c0.025-0.075,0.064-0.152,0.111-0.229c0.017-0.027,0.04-0.053,0.059-0.08c0.036-0.051,0.072-0.102,0.117-0.153  c0.028-0.034,0.064-0.067,0.097-0.101c0.044-0.045,0.09-0.089,0.141-0.134c0.043-0.038,0.09-0.075,0.138-0.113  c0.05-0.04,0.102-0.08,0.157-0.12c0.058-0.042,0.119-0.083,0.183-0.125c0.053-0.034,0.107-0.068,0.164-0.103  c0.074-0.045,0.152-0.091,0.235-0.136c0.05-0.027,0.103-0.054,0.155-0.082c0.098-0.05,0.195-0.1,0.301-0.149  c0.036-0.017,0.077-0.034,0.114-0.051c1.052-0.473,2.485-0.881,4.23-1.116C71.364,11.587,71.371,11.586,71.376,11.585z   M84.15,17.446v3.326c0,1.285-3.706,3.153-9.516,3.153v-4.303C78.228,19.621,81.957,18.87,84.15,17.446z M40.526,4.85  c0.025-0.075,0.064-0.152,0.111-0.229c0.017-0.027,0.04-0.054,0.059-0.08c0.036-0.051,0.072-0.102,0.117-0.153  c0.029-0.034,0.064-0.067,0.097-0.101c0.044-0.045,0.09-0.09,0.141-0.134c0.042-0.038,0.089-0.075,0.137-0.113  c0.05-0.04,0.102-0.08,0.157-0.12c0.058-0.042,0.119-0.083,0.183-0.125c0.052-0.034,0.108-0.068,0.164-0.103  c0.075-0.045,0.152-0.091,0.235-0.136c0.05-0.027,0.104-0.054,0.156-0.082c0.097-0.05,0.195-0.1,0.301-0.149  c0.037-0.017,0.076-0.034,0.114-0.051c1.052-0.473,2.485-0.881,4.229-1.116c0.006-0.001,0.012-0.002,0.018-0.003  c0.25-0.033,0.506-0.063,0.769-0.089c0.011-0.001,0.021-0.002,0.031-0.003C47.808,2.039,48.077,2.017,48.353,2  c0.001,0,0.001,0,0.002,0c0.529-0.034,1.075-0.056,1.646-0.056c0.6,0,1.176,0.02,1.73,0.058c0.927,0.062,1.78,0.174,2.562,0.32  c0.054,0.01,0.108,0.02,0.162,0.031c0.618,0.121,1.188,0.264,1.704,0.422c0.052,0.016,0.104,0.033,0.155,0.049  c0.25,0.081,0.491,0.164,0.715,0.25c0.004,0.001,0.006,0.002,0.009,0.004c0.217,0.084,0.417,0.173,0.606,0.262  c0.046,0.022,0.093,0.044,0.138,0.066c0.186,0.091,0.36,0.183,0.518,0.277c0.005,0.003,0.009,0.006,0.015,0.01  c0.15,0.091,0.285,0.183,0.408,0.276c0.033,0.024,0.064,0.049,0.096,0.073c0.119,0.096,0.229,0.191,0.319,0.287  c0.25,0.266,0.38,0.527,0.38,0.769c0,1.286-3.707,3.153-9.517,3.153c-0.43,0-0.843-0.014-1.249-0.033  c-0.122-0.005-0.239-0.014-0.358-0.021c-0.291-0.018-0.576-0.041-0.853-0.068c-0.114-0.011-0.229-0.022-0.341-0.035  c-0.325-0.037-0.642-0.08-0.948-0.128c-0.041-0.007-0.084-0.011-0.125-0.018c-0.359-0.059-0.7-0.126-1.029-0.199  c-0.047-0.01-0.092-0.022-0.139-0.033c-0.282-0.065-0.552-0.135-0.809-0.208c-0.051-0.015-0.102-0.029-0.151-0.044  c-1.377-0.408-2.39-0.925-2.964-1.44c-0.022-0.02-0.043-0.04-0.063-0.06c-0.052-0.049-0.103-0.098-0.146-0.146  c-0.058-0.064-0.11-0.129-0.153-0.193c-0.02-0.028-0.033-0.056-0.049-0.083c-0.029-0.052-0.056-0.104-0.076-0.155  c-0.01-0.024-0.02-0.048-0.027-0.072c-0.021-0.074-0.038-0.146-0.038-0.217C40.483,5.017,40.498,4.935,40.526,4.85z M59.519,8.018  v3.326c0,1.285-3.705,3.153-9.516,3.153v-4.303C53.597,10.193,57.326,9.442,59.519,8.018z M29.824,9.543  c-0.055-0.009-0.109-0.021-0.164-0.029C29.715,9.522,29.77,9.533,29.824,9.543z M30.607,9.688c-0.006-0.001-0.013-0.002-0.019-0.004  C30.595,9.686,30.602,9.687,30.607,9.688z M16.129,14.043c0.025-0.075,0.064-0.152,0.111-0.229c0.017-0.027,0.04-0.054,0.059-0.081  c0.035-0.051,0.072-0.102,0.117-0.153c0.028-0.033,0.064-0.067,0.097-0.1c0.044-0.045,0.09-0.09,0.141-0.135  c0.043-0.038,0.09-0.075,0.137-0.112c0.05-0.04,0.102-0.08,0.157-0.12c0.058-0.042,0.119-0.083,0.183-0.125  c0.052-0.034,0.107-0.068,0.164-0.102c0.075-0.045,0.153-0.091,0.235-0.136c0.05-0.027,0.104-0.054,0.156-0.082  c0.097-0.05,0.195-0.1,0.301-0.148c0.037-0.018,0.076-0.034,0.114-0.051c1.051-0.473,2.485-0.881,4.229-1.117  c0.006-0.001,0.012-0.002,0.018-0.002c0.25-0.034,0.506-0.063,0.768-0.089c0.011-0.001,0.021-0.002,0.031-0.003  c0.264-0.026,0.533-0.048,0.809-0.066c0.001,0,0.001,0,0.003,0c0.529-0.034,1.075-0.055,1.646-0.055c0.6,0,1.177,0.02,1.73,0.057  c0.926,0.062,1.78,0.174,2.562,0.32c0.054,0.01,0.108,0.02,0.162,0.031c0.619,0.12,1.188,0.264,1.704,0.422  c0.052,0.016,0.104,0.033,0.156,0.049c0.25,0.08,0.492,0.163,0.715,0.25c0.003,0.001,0.006,0.003,0.009,0.004  c0.216,0.084,0.416,0.172,0.605,0.262c0.046,0.022,0.093,0.044,0.138,0.066c0.185,0.091,0.361,0.184,0.517,0.277  c0.005,0.003,0.009,0.006,0.014,0.009c0.151,0.091,0.285,0.184,0.408,0.276c0.034,0.025,0.065,0.049,0.097,0.074  c0.119,0.096,0.229,0.191,0.319,0.287c0.25,0.266,0.38,0.527,0.38,0.768c0,1.286-3.708,3.153-9.517,3.153  c-0.43,0-0.843-0.013-1.249-0.033c-0.122-0.005-0.24-0.014-0.359-0.021c-0.291-0.018-0.576-0.041-0.853-0.067  c-0.115-0.012-0.229-0.022-0.341-0.035c-0.325-0.037-0.642-0.08-0.948-0.128c-0.041-0.006-0.084-0.011-0.125-0.018  c-0.359-0.059-0.7-0.126-1.03-0.199c-0.047-0.01-0.092-0.022-0.139-0.033c-0.282-0.065-0.551-0.134-0.809-0.208  c-0.051-0.015-0.102-0.029-0.151-0.044c-1.377-0.408-2.39-0.925-2.964-1.44c-0.022-0.02-0.043-0.04-0.064-0.06  c-0.051-0.049-0.102-0.098-0.146-0.146c-0.058-0.064-0.111-0.129-0.153-0.193c-0.02-0.028-0.033-0.056-0.049-0.083  c-0.03-0.052-0.057-0.104-0.077-0.155c-0.01-0.024-0.019-0.048-0.026-0.073c-0.021-0.073-0.038-0.146-0.038-0.217  C16.086,14.209,16.101,14.127,16.129,14.043z M35.122,17.21v3.327c0,1.285-3.706,3.152-9.516,3.152v-4.303  C29.199,19.385,32.928,18.634,35.122,17.21z M25.603,25.633c5.557,0,11.462-1.786,11.462-5.096V14.29  c0-0.207-0.023-0.408-0.068-0.603c-0.089-0.39-0.264-0.755-0.514-1.096c-0.125-0.171-0.268-0.335-0.428-0.493  c-0.114-0.113-0.238-0.222-0.369-0.33c-0.05-0.041-0.106-0.079-0.158-0.118c-0.084-0.064-0.167-0.128-0.257-0.189  c-0.072-0.049-0.149-0.096-0.224-0.144c-0.076-0.048-0.151-0.096-0.231-0.143c-0.09-0.053-0.185-0.104-0.28-0.154  c-0.069-0.037-0.138-0.074-0.209-0.11c-0.109-0.055-0.222-0.108-0.335-0.16c-0.06-0.028-0.121-0.056-0.183-0.082  c-0.128-0.057-0.259-0.111-0.392-0.164c-0.05-0.02-0.099-0.038-0.149-0.058c-0.148-0.056-0.298-0.112-0.452-0.165  c-0.035-0.012-0.07-0.023-0.104-0.035c-0.131-0.043-0.265-0.085-0.399-0.127l6.228-2.348v0.002v3.57c0,3.31,5.905,5.097,11.46,5.097  c5.558,0,11.462-1.787,11.462-5.097V8.022l6.255,2.394c-2.065,0.662-3.672,1.649-4.281,2.94c-0.172,0.366-0.264,0.756-0.264,1.169  v0.6v2.077v3.57c0,3.31,5.904,5.097,11.46,5.097c5.557,0,11.462-1.787,11.462-5.097V17.45l10.198,3.904L68.91,31.672l-18.674,7.036  L3.707,20.897l10.436-3.933v0.001v3.57C14.143,23.847,20.048,25.633,25.603,25.633z M98.058,34.008L51.206,51.66V40.419  l46.852-17.653V34.008z"/></svg>
