<svg xmlns="http://www.w3.org/2000/svg" xmlns:xlink="http://www.w3.org/1999/xlink" version="1.1" x="0px" y="0px" viewBox="0 0 100 125" enable-background="new 0 0 100 100" xml:space="preserve"><path d="M72.6445312,90.5H49.1689453c-0.1455078,0-0.2841797-0.0634766-0.3789062-0.1738281  c-0.1181641-0.1367188-2.8710938-3.4082031-0.7568359-7.6298828c0.7314453-1.2177734,2.5078125-4.6533203,2.1757812-6.3105469  c-0.0068359-0.0341797-0.0097656-0.0683594-0.0097656-0.1025391c-0.0009766-0.2265625-0.15625-5.6308594-11.2167969-5.7695312  c-0.0029297,0-0.0058594,0-0.0078125,0c-0.8193359,0-6.9287109,0.1669922-8.2529297,5.4091797  c-0.0048828,0.0224609-0.6103516,2.8261719,2.4013672,7.8808594c0.921875,1.4375,2.0751953,4.6835938-0.2255859,6.5820312  C32.8076172,90.4599609,32.6953125,90.5,32.5791016,90.5H9.0742188c-0.2763672,0-0.5-0.2236328-0.5-0.5V26.4301758  c0-0.2763672,0.2236328-0.5,0.5-0.5h23.5302734c0.4833984-0.5219727,2.0878906-2.6352539,0.3046875-6.1391602  c-0.0947266-0.1552734-2.7041016-4.5239258-2.2724609-6.9111328c0.0205078-0.6816406,0.5371094-6.5761719,12.2050781-6.7226562  c0.0019531,0,0.1015625-0.0009766,0.1035156-0.0009766c0.7763672,0,7.6230469,0.1728516,9.1376953,6.1660156  c0.0400391,0.1464844,0.9853516,3.84375-2.7988281,8.8828125c-0.0527344,0.0883789-1.7822266,2.9101562,0.2041016,4.7250977  h23.15625c0.2763672,0,0.5,0.2236328,0.5,0.5v23.2167969c0.4609375,0.2724609,1.6640625,0.8769531,3.2597656,0.8769531  c1.0439453,0,2.0859375-0.2563477,3.0957031-0.762207c0.1357422-0.0834961,4.6171875-2.7246094,6.9550781-2.2617188  c0.2041016-0.0126953,6.5234375,0.1191406,6.6757812,12.1962891c0.0019531,0.0673828,0.1591797,7.6435547-6.1660156,9.2412109  c-0.0410156,0.0087891-0.2910156,0.0517578-0.75,0.0517578c-1.3427734,0-4.1083984-0.3544922-7.546875-2.7294922l0,0  c-0.0039062,0.0009766-1.6494141-0.90625-3.2929688-0.90625c-0.9345703,0-1.6835938,0.296875-2.2304688,0.8828125V90  C73.1445312,90.2763672,72.9208984,90.5,72.6445312,90.5z M49.4121094,89.5h22.7324219V66.0488281  c0-0.1162109,0.0400391-0.2285156,0.1142578-0.3183594c0.7539062-0.9130859,1.8017578-1.3769531,3.1162109-1.3769531  c1.9248047,0,3.7460938,1.0166016,3.8232422,1.0595703c3.3730469,2.328125,6.0292969,2.5761719,7.0166016,2.5761719  c0.3369141,0,0.5283203-0.0263672,0.5488281-0.0302734c5.5117188-1.3945312,5.3691406-8.1728516,5.3671875-8.2412109  c-0.1396484-11.0712891-5.5429688-11.2265625-5.7724609-11.2275391c-0.2373047-0.0375977-0.3876953-0.0498047-0.546875-0.0498047  c-2.15625,0-5.7939453,2.1748047-5.8300781,2.1967773c-1.1835938,0.5952148-2.3759766,0.887207-3.5761719,0.887207  c-0.0009766,0-0.0009766,0-0.0009766,0c-2.390625,0-3.9882812-1.1518555-4.0556641-1.2006836  c-0.1279297-0.0942383-0.2041016-0.2441406-0.2041016-0.4033203V26.9301758H49.3017578  c-0.1162109,0-0.2285156-0.0405273-0.3183594-0.1142578c-2.2988281-1.8964844-1.3466797-4.8701172-0.5214844-6.1777344  c3.4902344-4.6508789,2.6621094-8.03125,2.6533203-8.0644531C49.7851562,7.3081055,43.6416016,7.15625,42.9453125,7.15625  c-11.1533203,0.1396484-11.3085938,5.543457-11.3095703,5.7734375c-0.3417969,1.7592773,1.4345703,5.1933594,2.1474609,6.3764648  c2.4101562,4.7324219-0.6113281,7.472168-0.6425781,7.4995117c-0.0908203,0.0800781-0.2080078,0.1245117-0.3300781,0.1245117  H9.5742188V89.5h22.8173828c1.9794922-1.8398438-0.0976562-5.1367188-0.1191406-5.1708984  c-3.2597656-5.4697266-2.5517578-8.5214844-2.5205078-8.6494141c1.5136719-5.9941406,8.3623047-6.1669922,9.1376953-6.1669922  c0.0058594,0,0.1083984,0.0009766,0.1142578,0.0009766c11.65625,0.1464844,12.1738281,6.0400391,12.1943359,6.7226562  c0.4326172,2.3867188-2.1777344,6.7558594-2.2890625,6.9414062C47.3486328,86.296875,48.9169922,88.8232422,49.4121094,89.5z"/></svg>
