<svg xmlns="http://www.w3.org/2000/svg" xmlns:xlink="http://www.w3.org/1999/xlink" version="1.1" x="0px" y="0px" viewBox="0 0 100 125" enable-background="new 0 0 100 100" xml:space="preserve"><path d="M83.345,32.973l-11.21-11.21c-0.586-0.586-1.535-0.586-2.121,0l-3.098,3.098c-0.001,0-0.002,0-0.002,0.001  c-2.749,2.75-3.44,6.789-2.076,10.188l-18.28,18.278l-6.713-6.713c-0.563-0.563-1.559-0.563-2.121,0l-9.332,9.332  c-0.012,0.012-0.025,0.025-0.039,0.04c-5.686,5.727-5.671,15.02,0.039,20.729c2.773,2.773,6.461,4.302,10.384,4.302  s7.61-1.528,10.409-4.33l9.307-9.304c0.281-0.281,0.439-0.662,0.439-1.061c0-0.397-0.158-0.779-0.439-1.061l-6.715-6.715  l18.279-18.279c1.128,0.452,2.325,0.68,3.522,0.68c2.402,0,4.805-0.912,6.641-2.734c0.008-0.008,0.018-0.014,0.026-0.022  l3.098-3.098C83.931,34.508,83.931,33.558,83.345,32.973z M71.074,24.944l9.089,9.089l-0.977,0.977l-9.09-9.088L71.074,24.944z   M47.041,74.595c-2.208,2.207-5.142,3.423-8.263,3.423c-3.122,0-6.056-1.216-8.263-3.423c-4.55-4.551-4.556-11.958,0.013-16.541  l8.257-8.257l7.202,7.202l-8.262,8.263c-0.586,0.586-0.586,1.535,0,2.121c0.293,0.293,0.677,0.439,1.061,0.439  s0.768-0.146,1.061-0.439l8.262-8.263l7.204,7.204L47.041,74.595z M49.658,56.426l-0.978-0.979l17.771-17.769  c0.149,0.173,0.298,0.348,0.463,0.513s0.34,0.314,0.514,0.464L49.658,56.426z M69.035,36.07c-2.14-2.14-2.445-5.423-0.93-7.898  L76.935,37C74.46,38.518,71.176,38.21,69.035,36.07z"/></svg>
