<?xml version="1.0"?>
<svg width="84" height="85" xmlns="http://www.w3.org/2000/svg">

 <g>
  <title>background</title>
  <rect fill="none" id="canvas_background" height="87" width="86" y="-1" x="-1"/>
 </g>
 <g>
  <title>Layer 1</title>
  <path id="svg_1" d="m71.345001,23.973l-11.209999,-11.209999c-0.585999,-0.586 -1.535004,-0.586 -2.121002,0l-3.098,3.098c-0.000999,0 -0.001999,0 -0.001999,0.000999c-2.749001,2.75 -3.440002,6.789001 -2.076004,10.188l-18.279999,18.278l-6.712997,-6.712997c-0.563,-0.563004 -1.559002,-0.563004 -2.121002,0l-9.331999,9.331997c-0.012001,0.012001 -0.025,0.025002 -0.039,0.040001c-5.686001,5.727001 -5.671001,15.020004 0.039,20.729004c2.773001,2.772995 6.461,4.301994 10.384001,4.301994s7.610001,-1.528 10.409,-4.329994l9.306999,-9.304001c0.280998,-0.281006 0.438999,-0.662003 0.438999,-1.061005c0,-0.396996 -0.158001,-0.778999 -0.438999,-1.060997l-6.715,-6.715l18.278999,-18.278999c1.127998,0.452 2.324997,0.68 3.522003,0.68c2.402,0 4.805,-0.912003 6.640999,-2.734001c0.007996,-0.007999 0.017998,-0.014 0.026001,-0.021999l3.098,-3.098c0.587997,-0.586002 0.587997,-1.536003 0.001999,-2.121002zm-12.271004,-8.028999l9.089005,9.089001l-0.977005,0.976997l-9.089996,-9.087997l0.977997,-0.978001zm-24.032997,49.651001c-2.208,2.207001 -5.142002,3.422997 -8.263,3.422997c-3.122002,0 -6.056,-1.215996 -8.263,-3.422997c-4.549999,-4.551003 -4.556,-11.958 0.013,-16.541l8.257,-8.257l7.202,7.202l-8.262001,8.263c-0.585999,0.585999 -0.585999,1.534996 0,2.121002c0.293003,0.292999 0.677002,0.438995 1.061001,0.438995s0.768002,-0.145996 1.061001,-0.438995l8.262001,-8.263004l7.203999,7.203999l-8.271999,8.271004zm2.617001,-18.169003l-0.978001,-0.979l17.770996,-17.768997c0.149002,0.173 0.298004,0.348 0.463005,0.513s0.339996,0.313999 0.514,0.463997l-17.77,17.771zm19.377003,-20.355999c-2.140007,-2.139999 -2.445007,-5.423 -0.93,-7.897999l8.829994,8.827999c-2.474998,1.518002 -5.758995,1.209999 -7.899994,-0.93z"/>
 </g>
</svg>