<?xml version="1.0" encoding="UTF-8" standalone="no"?>
<svg width="100%" height="100%" viewBox="0 0 77 77" version="1.1" xmlns="http://www.w3.org/2000/svg" xmlns:xlink="http://www.w3.org/1999/xlink" xmlns:sketch="http://www.bohemiancoding.com/sketch/ns">
    <g id="Page-1" stroke="none" stroke-width="1" fill="none" fill-rule="evenodd" sketch:type="MSPage">
        <g id="Group" sketch:type="MSLayerGroup">
            <path d="M41.142,10.872 L41.142,3 C41.142,-0.386 35.892,-0.386 35.892,3 L35.892,10.872 C35.892,14.258 41.142,14.258 41.142,10.872 L41.142,10.872 L41.142,10.872 Z" id="Shape" fill="#000000" sketch:type="MSShapeGroup"></path>
            <path d="M41.142,73.966 L41.142,66.095 C41.142,62.709 35.892,62.709 35.892,66.095 L35.892,73.966 C35.892,77.352 41.142,77.352 41.142,73.966 L41.142,73.966 L41.142,73.966 Z" id="Shape" fill="#000000" sketch:type="MSShapeGroup"></path>
            <path d="M10.906,35.859 L3.032,35.859 C-0.354,35.859 -0.354,41.109 3.032,41.109 L10.906,41.109 C14.292,41.109 14.292,35.859 10.906,35.859 L10.906,35.859 L10.906,35.859 Z" id="Shape" fill="#000000" sketch:type="MSShapeGroup"></path>
            <path d="M74,35.859 L66.129,35.859 C62.743,35.859 62.743,41.109 66.129,41.109 L74,41.109 C77.386,41.109 77.386,35.859 74,35.859 L74,35.859 L74,35.859 Z" id="Shape" fill="#000000" sketch:type="MSShapeGroup"></path>
            <path d="M60.121,20.594 C61.976,18.738 63.832,16.881 65.687,15.026 C68.083,12.63 64.37,8.917 61.974,11.313 C60.119,13.169 58.263,15.026 56.408,16.881 C54.013,19.277 57.726,22.99 60.121,20.594 L60.121,20.594 L60.121,20.594 Z" id="Shape" fill="#000000" sketch:type="MSShapeGroup"></path>
            <path d="M15.061,65.653 C16.915,63.798 18.77,61.942 20.625,60.088 C23.021,57.692 19.309,53.98 16.912,56.375 C15.058,58.23 13.203,60.086 11.348,61.94 C8.952,64.337 12.664,68.049 15.061,65.653 L15.061,65.653 L15.061,65.653 Z" id="Shape" fill="#000000" sketch:type="MSShapeGroup"></path>
            <path d="M20.626,16.881 C18.771,15.026 16.915,13.169 15.061,11.313 C12.665,8.917 8.954,12.629 11.348,15.026 C13.203,16.881 15.059,18.738 16.913,20.594 C19.309,22.99 23.021,19.277 20.626,16.881 L20.626,16.881 L20.626,16.881 Z" id="Shape" fill="#000000" sketch:type="MSShapeGroup"></path>
            <path d="M65.688,64.94 C63.833,63.086 61.978,61.23 60.124,59.375 C57.728,56.979 54.016,60.691 56.411,63.088 C58.266,64.942 60.121,66.798 61.975,68.653 C64.371,71.049 68.083,67.337 65.688,64.94 L65.688,64.94 L65.688,64.94 Z" id="Shape" fill="#000000" sketch:type="MSShapeGroup"></path>
            <circle id="Oval-1" stroke="#000000" stroke-width="4" sketch:type="MSShapeGroup" cx="39.5" cy="39.5" r="18.5"></circle>
        </g>
    </g>
</svg>
