<?xml version="1.0"?>
<svg width="97" height="97" xmlns="http://www.w3.org/2000/svg">

 <g>
  <title>background</title>
  <rect fill="none" id="canvas_background" height="99" width="99" y="-1" x="-1"/>
 </g>
 <g>
  <title>Layer 1</title>
  <g fill-rule="evenodd" fill="none" id="Page-1">
   <g id="Group">
    <path fill="#000000" id="Shape" d="m51.141998,21.872l0,-7.872c0,-3.386 -5.25,-3.386 -5.25,0l0,7.872c0,3.386 5.25,3.386 5.25,0l0,0l0,0z"/>
    <path fill="#000000" id="Shape" d="m51.141998,84.966003l0,-7.871002c0,-3.386002 -5.25,-3.386002 -5.25,0l0,7.871002c0,3.385994 5.25,3.385994 5.25,0l0,0l0,0z"/>
    <path fill="#000000" id="Shape" d="m20.906,46.859001l-7.874001,0c-3.386,0 -3.386,5.25 0,5.25l7.874001,0c3.386,0 3.386,-5.25 0,-5.25l0,0l0,0z"/>
    <path fill="#000000" id="Shape" d="m84,46.859001l-7.871002,0c-3.385994,0 -3.385994,5.25 0,5.25l7.871002,0c3.386002,0 3.386002,-5.25 0,-5.25l0,0l0,0z"/>
    <path fill="#000000" id="Shape" d="m70.121002,31.594c1.855003,-1.855999 3.710999,-3.712999 5.565994,-5.567999c2.396004,-2.396 -1.316994,-6.109001 -3.712997,-3.713001c-1.854996,1.855999 -3.710999,3.713001 -5.566002,5.568001c-2.394997,2.396 1.318001,6.108997 3.713005,3.712999l0,0l0,0z"/>
    <path fill="#000000" id="Shape" d="m25.061001,76.653c1.854,-1.854996 3.709,-3.710999 5.563999,-5.564995c2.396,-2.396004 -1.316,-6.108009 -3.712999,-3.713005c-1.854,1.855003 -3.709,3.710999 -5.564001,5.565002c-2.396,2.396996 1.316,6.109001 3.713001,3.712997l0,0l0,0z"/>
    <path fill="#000000" id="Shape" d="m30.625999,27.881001c-1.855,-1.855 -3.710999,-3.712002 -5.564999,-5.568001c-2.396,-2.396 -6.107,1.316 -3.713001,3.713001c1.855001,1.855 3.711,3.712 5.565001,5.567999c2.396,2.395998 6.108,-1.316999 3.712999,-3.712999l0,0l0,0z"/>
    <path fill="#000000" id="Shape" d="m75.688004,75.940002c-1.855003,-1.854004 -3.709999,-3.709999 -5.564003,-5.565002c-2.396004,-2.395996 -6.108002,1.316002 -3.713005,3.713005c1.855003,1.853996 3.710007,3.709991 5.564003,5.564995c2.396004,2.396004 6.108002,-1.316002 3.713005,-3.712997l0,0l0,0z"/>
    <circle r="18.5" cy="50.5" cx="49.5" stroke-width="4" stroke="#000000" id="Oval-1"/>
   </g>
  </g>
 </g>
</svg>