<?xml version="1.0"?>
<svg width="100" height="105" xmlns="http://www.w3.org/2000/svg">

 <g>
  <title>background</title>
  <rect fill="none" id="canvas_background" height="107" width="102" y="-1" x="-1"/>
 </g>
 <g>
  <title>Layer 1</title>
  <g id="svg_1">
   <path id="svg_2" d="m86.929001,74.194l-30.184002,-53.573999c-1.695,-3.01 -4.091,-4.668 -6.744999,-4.668s-5.049999,1.658 -6.745003,4.668l-30.182998,53.573999c-1.664,2.954002 -1.851001,5.938004 -0.511999,8.227997s4.05,3.578003 7.44,3.578003l60,0c3.389999,0 6.101997,-1.288002 7.440002,-3.578003c1.337997,-2.289993 1.152,-5.273994 -0.511002,-8.227997zm-3.127998,6.208c-0.563004,0.961998 -1.948006,1.598 -3.801003,1.598l-60,0c-1.853001,0 -3.238001,-0.636002 -3.801001,-1.598c-0.561999,-0.962997 -0.363999,-2.482002 0.545,-4.098l30.184002,-53.596003c0.902,-1.601999 2.021,-2.531 3.070999,-2.531s2.168999,0.914001 3.070999,2.516001l30.183998,53.613001c0.911003,1.615997 1.109001,3.133003 0.547005,4.096001z"/>
   <polygon id="svg_3" points="46,43.941001892089844 47.0369987487793,60 52.9630012512207,60 54.10300064086914,44.150001525878906 54.106998443603516,39 46,39 "/>
   <rect id="svg_4" height="7" width="6" y="67" x="47"/>
  </g>
 </g>
</svg>