<svg xmlns="http://www.w3.org/2000/svg" xmlns:xlink="http://www.w3.org/1999/xlink" version="1.1" x="0px" y="0px" viewBox="0 0 90 112.5" enable-background="new 0 0 90 90" xml:space="preserve"><g><path d="M67.46,77.25H27.344c-5.344,0-9.631-2.07-11.766-5.677c-2.136-3.61-1.886-8.362,0.683-13.044L36.925,20.86   c2.628-4.792,6.348-7.433,10.475-7.433c4.131,0,7.85,2.641,10.479,7.433l20.664,37.671c2.569,4.68,2.818,9.431,0.683,13.041   C77.091,75.18,72.804,77.25,67.46,77.25z M47.401,19.813c-1.665,0-3.442,1.5-4.876,4.115L21.86,61.599   c-1.459,2.656-1.743,5.104-0.789,6.722c0.957,1.615,3.246,2.544,6.273,2.544H67.46c3.027,0,5.316-0.929,6.273-2.544   c0.954-1.618,0.67-4.065-0.789-6.719L52.28,23.928C50.846,21.312,49.069,19.813,47.401,19.813z"/></g><g><g><path fill="#000000" d="M43.582,59.781c0-2.262,1.581-3.885,3.844-3.885s3.753,1.623,3.798,3.885c0,2.217-1.494,3.882-3.798,3.882    C45.118,63.663,43.582,61.998,43.582,59.781z M44.993,53.762l-0.983-19.336h6.787l-0.938,19.336H44.993z"/></g></g></svg>
