<svg xmlns="http://www.w3.org/2000/svg" xmlns:xlink="http://www.w3.org/1999/xlink" version="1.1" x="0px" y="0px" viewBox="0 0 100 100" enable-background="new 0 0 100 100" xml:space="preserve"><path d="M77.5,59c-0.8-4.7-2.6-9-4.4-12.9c-5.4-11.9-11.9-22.7-18.3-32.7L54,12c-1.1-1.7-2.4-2.6-3.9-2.6c-2.2,0-3.6,2-4,2.6  c0,0,0,0,0,0.1l-1.4,2.2c-2.5,4-5.1,8.2-7.6,12.4c-3.9,6.6-8.8,15.4-12.4,24.8c-1.2,3.1-2.3,6.2-2.4,9.6c-0.4,8.8,2.8,16.2,9.4,22  c5.1,4.5,11.6,7,18.3,7h0c9.8,0,18.7-5,23.8-13.5C77.2,71,78.5,65,77.5,59z M70.6,74.7C66.2,82.1,58.5,86.4,50,86.4  c-5.8,0-11.5-2.1-15.9-6c-5.7-5-8.5-11.5-8.2-19.1c0.1-2.8,1-5.5,2.2-8.4c3.5-9.2,8.3-17.8,12.1-24.3c2.4-4.1,5-8.3,7.6-12.3  l1.3-2.1c0-0.1,0.1-0.1,0.1-0.2c0.2-0.3,0.6-0.8,0.8-0.9c0,0,0.3,0.1,0.8,0.9l0.8,1.3c6.2,9.8,12.7,20.5,18,32.2  c1.7,3.8,3.4,7.8,4.1,12C74.7,64.7,73.6,69.8,70.6,74.7z M51.8,76.9c0,1-0.8,1.8-1.8,1.8c-9.1,0-16.4-7.4-16.4-16.4  c0-1,0.8-1.8,1.8-1.8c1,0,1.8,0.8,1.8,1.8C37.3,69.3,43,75,50,75C51,75,51.8,75.9,51.8,76.9z"></path></svg>