<?xml version="1.0"?>
<svg width="60" height="58" xmlns="http://www.w3.org/2000/svg">

 <g>
  <title>background</title>
  <rect fill="none" id="canvas_background" height="60" width="62" y="-1" x="-1"/>
 </g>
 <g>
  <title>Layer 1</title>
  <g stroke="null" fill="#000000" id="Group">
   <path stroke="null" id="Shape" d="m45.200001,38.849998l0,-2c3.299999,0 6,-2.499996 6,-5.599998c0,-2.700001 -2.200001,-5.1 -5,-5.5l-1,-0.200001l0.200001,-1c0.099998,-0.4 0.199997,-0.9 0.199997,-1.299999c0,-3.4 -2.899998,-6.1 -6.5,-6.1c-0.799999,0 -1.699997,0.200001 -2.599998,0.400002l-1.099998,0.4l-0.200001,-1.1c-0.5,-2.700001 -3,-4.6 -5.900002,-4.6c-3.4,0 -6.099998,2.6 -6.099998,5.700001l0,1.299999l-1.200001,-0.199999c-0.299999,-0.1 -0.6,-0.1 -1,-0.1c-3.1,0 -5.6,2.299999 -5.6,5.299999l0,1.4l-1.4,0c-3.3,0 -5.9,2.5 -5.9,5.5c0,3.000002 2.599999,5.500002 5.9,5.500002l0,2c-4.4,0 -7.9,-3.400002 -7.9,-7.500002c0,-3.9 3.2,-7.1 7.2,-7.5c0.3,-3.799999 3.500001,-6.699999 7.599999,-6.699999l0.300001,0c0.6,-3.800001 3.9,-6.700001 8,-6.700001c3.5,0 6.5,2.1 7.599998,5.2c5.700001,-1.3 10.700001,2.7 10.700001,7.8l0,0.700001c3.299999,0.9 5.799999,3.9 5.799999,7.299999c-0.099998,4.200001 -3.700001,7.599998 -8.099998,7.599998l0,0z"/>
   <path stroke="null" id="Shape" d="m11.900001,42.349998l-0.900001,-1.799999c1.8,-1 3.8,-1.299999 5.800001,-1.5c2.099998,-0.200001 4.299999,-0.200001 6.299999,-0.299999c1.5,0 3.1,-0.099998 4.6,-0.099998c3,-0.200001 6.799999,-0.600002 10.199997,-2.200001l0.200001,-0.100002c0.300003,-0.199997 0.600002,-0.299999 0.800003,-0.5l0.099998,-0.099998c0.299999,-0.299999 0.5,-0.599998 0.700001,-1c0.700001,-1.799999 0.099998,-4.1 -1.299999,-5.1c-1.400002,-1 -3.300003,-1.199999 -4.600002,-0.4c-0.599998,0.4 -0.799999,1.299999 -0.599998,2.1c0.200001,0.800001 1,1.4 1.599998,1.4l-0.200001,2c-1.599998,-0.099998 -2.999998,-1.399998 -3.399998,-3c-0.400002,-1.6 0.199999,-3.299999 1.5,-4.299999c2.199997,-1.300001 4.799999,-0.900002 6.799999,0.5c2.099998,1.599998 3,4.700001 2.099998,7.400002c-0.299999,0.799999 -0.699997,1.399998 -1.299999,1.899998c-0.399998,0.400002 -0.899998,0.700001 -1.299999,0.900002l-0.299999,0.099998c-3.700001,1.799999 -7.800001,2.200001 -11,2.400002c-1.6,0.099998 -3.200001,0.099998 -4.700001,0.099998c-2,0 -4.1,0.099998 -6.199999,0.200001c-1.500001,0.299999 -3.300001,0.5 -4.900001,1.399998l0,0z"/>
   <path stroke="null" id="Shape" d="m39.200001,52.25c-1.100002,0 -2.100002,-0.200001 -3,-0.700001c-1.5,-0.700001 -2.400002,-1.799999 -2.600002,-3.099998c-0.299999,-1.400002 0.600002,-3.100002 1.900002,-3.700001c1.200001,-0.700001 2.900002,-0.299999 4,0.900002l-1.5,1.299999c-0.400002,-0.5 -1.100002,-0.600002 -1.599998,-0.400002c-0.600002,0.299999 -0.900002,1 -0.800003,1.5c0.200001,0.900002 1,1.400002 1.600002,1.700001c1.200001,0.599998 2.700001,0.700001 3.899998,0.200001c0.400002,-0.200001 0.700001,-0.400002 1.100002,-0.700001c0.700001,-0.599998 0.799999,-2 0.299999,-3.099998c-0.599998,-1.300003 -2,-2 -3,-2.300003c-1.400002,-0.5 -2.900002,-0.399998 -4.200001,-0.399998c-3.099998,0.200001 -6.299999,0.700001 -9.4,1.5c-0.5,0.099998 -1,0.299999 -1.6,0.399998c-1.799999,0.5 -3.599998,0.900002 -5.499998,0.800003l0.099998,-2c1.6,0.099998 3.300001,-0.400002 5,-0.800003c0.5,-0.099998 1.1,-0.299999 1.6,-0.399998c3.200001,-0.799999 6.5,-1.299999 9.799999,-1.5c1.5,-0.100002 3.299999,-0.100002 5,0.5c1.400002,0.5 3.200001,1.399998 4.200001,3.299999c0.900002,1.900002 0.599998,4.200001 -0.799999,5.5c-0.5,0.400002 -1,0.700001 -1.600002,1c-1.199997,0.299999 -2.099998,0.5 -2.899998,0.5l0,0z"/>
   <path stroke="null" id="Shape" d="m46.900002,24.85l-0.700001,-1.9c3.399998,-1.200001 5.700001,-4.5 5.700001,-8.200001c0.099998,-4.6 -3.600002,-8.5 -8.200001,-8.5c-4.200001,0 -7.700001,3 -8.299999,7.3l-2,-0.3c0.799999,-5.2 5.099998,-9 10.299999,-9c5.700001,0 10.299999,4.8 10.299999,10.6c0,4.5 -2.799999,8.6 -7.099998,10l0,0z"/>
  </g>
 </g>
</svg>